%TF.GenerationSoftware,KiCad,Pcbnew,9.0.6-rc2*%
%TF.CreationDate,2026-05-07T23:38:51+08:00*%
%TF.ProjectId,R2000_R1.1,52323030-305f-4523-912e-312e6b696361,1.0*%
%TF.SameCoordinates,Original*%
%TF.FileFunction,Paste,Top*%
%TF.FilePolarity,Positive*%
%FSLAX46Y46*%
G04 Gerber Fmt 4.6, Leading zero omitted, Abs format (unit mm)*
G04 Created by KiCad (PCBNEW 9.0.6-rc2) date 2026-05-07 23:38:51*
%MOMM*%
%LPD*%
G01*
G04 APERTURE LIST*
G04 Aperture macros list*
%AMRoundRect*
0 Rectangle with rounded corners*
0 $1 Rounding radius*
0 $2 $3 $4 $5 $6 $7 $8 $9 X,Y pos of 4 corners*
0 Add a 4 corners polygon primitive as box body*
4,1,4,$2,$3,$4,$5,$6,$7,$8,$9,$2,$3,0*
0 Add four circle primitives for the rounded corners*
1,1,$1+$1,$2,$3*
1,1,$1+$1,$4,$5*
1,1,$1+$1,$6,$7*
1,1,$1+$1,$8,$9*
0 Add four rect primitives between the rounded corners*
20,1,$1+$1,$2,$3,$4,$5,0*
20,1,$1+$1,$4,$5,$6,$7,0*
20,1,$1+$1,$6,$7,$8,$9,0*
20,1,$1+$1,$8,$9,$2,$3,0*%
%AMRotRect*
0 Rectangle, with rotation*
0 The origin of the aperture is its center*
0 $1 length*
0 $2 width*
0 $3 Rotation angle, in degrees counterclockwise*
0 Add horizontal line*
21,1,$1,$2,0,0,$3*%
G04 Aperture macros list end*
%ADD10RoundRect,0.150000X0.256326X0.468458X-0.468458X-0.256326X-0.256326X-0.468458X0.468458X0.256326X0*%
%ADD11RoundRect,0.250000X-0.475000X0.337500X-0.475000X-0.337500X0.475000X-0.337500X0.475000X0.337500X0*%
%ADD12R,2.450000X5.900000*%
%ADD13RoundRect,0.250000X-0.350000X-0.450000X0.350000X-0.450000X0.350000X0.450000X-0.350000X0.450000X0*%
%ADD14RoundRect,0.150000X-0.512500X-0.150000X0.512500X-0.150000X0.512500X0.150000X-0.512500X0.150000X0*%
%ADD15RoundRect,0.250000X-1.000000X-0.650000X1.000000X-0.650000X1.000000X0.650000X-1.000000X0.650000X0*%
%ADD16R,1.000000X1.700000*%
%ADD17RoundRect,0.250000X-0.097227X0.574524X-0.574524X0.097227X0.097227X-0.574524X0.574524X-0.097227X0*%
%ADD18RoundRect,0.250000X-0.440000X0.255000X-0.440000X-0.255000X0.440000X-0.255000X0.440000X0.255000X0*%
%ADD19RoundRect,0.150000X-0.150000X0.825000X-0.150000X-0.825000X0.150000X-0.825000X0.150000X0.825000X0*%
%ADD20RoundRect,0.250000X-0.450000X0.350000X-0.450000X-0.350000X0.450000X-0.350000X0.450000X0.350000X0*%
%ADD21RoundRect,0.250000X0.350000X0.450000X-0.350000X0.450000X-0.350000X-0.450000X0.350000X-0.450000X0*%
%ADD22RoundRect,0.250000X0.070711X-0.565685X0.565685X-0.070711X-0.070711X0.565685X-0.565685X0.070711X0*%
%ADD23RoundRect,0.150000X-0.587500X-0.150000X0.587500X-0.150000X0.587500X0.150000X-0.587500X0.150000X0*%
%ADD24R,1.240000X0.600000*%
%ADD25R,1.240000X0.300000*%
%ADD26R,0.300000X1.300000*%
%ADD27R,1.800000X2.200000*%
%ADD28RoundRect,0.250000X0.337500X0.475000X-0.337500X0.475000X-0.337500X-0.475000X0.337500X-0.475000X0*%
%ADD29RoundRect,0.250000X0.574524X0.097227X0.097227X0.574524X-0.574524X-0.097227X-0.097227X-0.574524X0*%
%ADD30RoundRect,0.250000X-0.337500X-0.475000X0.337500X-0.475000X0.337500X0.475000X-0.337500X0.475000X0*%
%ADD31RotRect,0.750000X1.200000X225.000000*%
%ADD32RotRect,0.750000X1.200000X135.000000*%
G04 APERTURE END LIST*
D10*
%TO.C,U7*%
X119607213Y-137638835D03*
X118935462Y-136967084D03*
X118263711Y-136295333D03*
X116655043Y-137904001D03*
X117998545Y-139247503D03*
%TD*%
D11*
%TO.C,C19*%
X111175629Y-118057023D03*
X111175629Y-120132023D03*
%TD*%
%TO.C,C20*%
X100275629Y-123432022D03*
X100275629Y-125507022D03*
%TD*%
D12*
%TO.C,BIGGGG INDUCTOR*%
X110750629Y-125594523D03*
X105200629Y-125594523D03*
%TD*%
D13*
%TO.C,R22*%
X100275629Y-116894523D03*
X102275629Y-116894523D03*
%TD*%
%TO.C,R23*%
X104775629Y-116894523D03*
X106775629Y-116894523D03*
%TD*%
D14*
%TO.C,5V BOOST*%
X106838129Y-119144523D03*
X106838129Y-120094523D03*
X106838129Y-121044523D03*
X109113129Y-121044523D03*
X109113129Y-120094523D03*
X109113129Y-119144523D03*
%TD*%
D15*
%TO.C,D3*%
X100275629Y-119794523D03*
X104275629Y-119794523D03*
%TD*%
D16*
%TO.C,SW2*%
X117825629Y-156044523D03*
X117825629Y-162344523D03*
X114025629Y-156044523D03*
X114025629Y-162344523D03*
%TD*%
%TO.C,SW1*%
X107025629Y-167844523D03*
X107025629Y-161544523D03*
X110825629Y-167844523D03*
X110825629Y-161544523D03*
%TD*%
D17*
%TO.C,C21*%
X82439842Y-165958736D03*
X83907088Y-164491490D03*
%TD*%
%TO.C,C23*%
X79584899Y-163156826D03*
X81052145Y-161689580D03*
%TD*%
%TO.C,C25*%
X81025629Y-164544523D03*
X82492875Y-163077277D03*
%TD*%
D10*
%TO.C,U5*%
X115532044Y-136764257D03*
X114188542Y-135420755D03*
X115797210Y-133812087D03*
X116468961Y-134483838D03*
X117140712Y-135155589D03*
%TD*%
%TO.C,U4*%
X113057170Y-134289383D03*
X111713668Y-132945881D03*
X113322336Y-131337213D03*
X113994087Y-132008964D03*
X114665838Y-132680715D03*
%TD*%
D14*
%TO.C,U3*%
X124388129Y-135094523D03*
X124388129Y-136044523D03*
X124388129Y-136994523D03*
X126663129Y-136994523D03*
X126663129Y-136044523D03*
X126663129Y-135094523D03*
%TD*%
D18*
%TO.C,U2*%
X124150629Y-147183953D03*
X122500629Y-147183953D03*
X124150629Y-148383953D03*
X122500629Y-148383953D03*
D19*
X125230629Y-145308953D03*
X123960629Y-145308953D03*
X122690629Y-145308953D03*
X121420629Y-145308953D03*
X121420629Y-150258953D03*
X122690629Y-150258953D03*
X123960629Y-150258953D03*
X125230629Y-150258953D03*
%TD*%
D20*
%TO.C,R48*%
X71325629Y-151244523D03*
X71325629Y-153244523D03*
%TD*%
D21*
%TO.C,R18*%
X79325629Y-147244523D03*
X77325629Y-147244523D03*
%TD*%
%TO.C,R17*%
X75425629Y-146044523D03*
X73425629Y-146044523D03*
%TD*%
D20*
%TO.C,R16*%
X95025629Y-167144523D03*
X95025629Y-169144523D03*
%TD*%
D21*
%TO.C,R15*%
X79225629Y-145044523D03*
X77225629Y-145044523D03*
%TD*%
%TO.C,R14*%
X79325629Y-152744523D03*
X77325629Y-152744523D03*
%TD*%
%TO.C,R13*%
X75325629Y-151644523D03*
X73325629Y-151644523D03*
%TD*%
D22*
%TO.C,R11*%
X115018522Y-152951630D03*
X116432736Y-151537416D03*
%TD*%
D20*
%TO.C,R6*%
X90025629Y-169244523D03*
X90025629Y-171244523D03*
%TD*%
D13*
%TO.C,R3*%
X125025629Y-143044523D03*
X123025629Y-143044523D03*
%TD*%
%TO.C,R1*%
X127425629Y-129044523D03*
X125425629Y-129044523D03*
%TD*%
D23*
%TO.C,Q3*%
X92188129Y-169594523D03*
X92188129Y-171494523D03*
X94063129Y-170544523D03*
%TD*%
D14*
%TO.C,Q2*%
X120163129Y-131594523D03*
X120163129Y-132544523D03*
X120163129Y-133494523D03*
X122438129Y-133494523D03*
X122438129Y-132544523D03*
X122438129Y-131594523D03*
%TD*%
%TO.C,Q1*%
X124388129Y-131594523D03*
X124388129Y-132544523D03*
X124388129Y-133494523D03*
X126663129Y-133494523D03*
X126663129Y-132544523D03*
X126663129Y-131594523D03*
%TD*%
D24*
%TO.C,J5*%
X128115782Y-150983953D03*
X128115782Y-150183953D03*
D25*
X128115782Y-149033953D03*
X128115782Y-148033953D03*
X128115782Y-147533953D03*
X128115782Y-146533953D03*
D24*
X128115782Y-145383953D03*
X128115782Y-144583953D03*
X128115782Y-144583953D03*
X128115782Y-145383953D03*
D25*
X128115782Y-146033953D03*
X128115782Y-147033953D03*
X128115782Y-148533953D03*
X128115782Y-149533953D03*
D24*
X128115782Y-150183953D03*
X128115782Y-150983953D03*
%TD*%
D26*
%TO.C,J3*%
X92224841Y-173463998D03*
X92724841Y-173463998D03*
X93224841Y-173463998D03*
X93724841Y-173463998D03*
X94224841Y-173463998D03*
X94724841Y-173463998D03*
X95224841Y-173463998D03*
X95724841Y-173463998D03*
X96224841Y-173463998D03*
X96724841Y-173463998D03*
X97224841Y-173463998D03*
X97724841Y-173463998D03*
X98224841Y-173463998D03*
X98724841Y-173463998D03*
X99224841Y-173463998D03*
X99724841Y-173463998D03*
X100224841Y-173463998D03*
X100724841Y-173463998D03*
X101224841Y-173463998D03*
X101724841Y-173463998D03*
X102224841Y-173463998D03*
X102724841Y-173463998D03*
X103224841Y-173463998D03*
X103724841Y-173463998D03*
X104224841Y-173463998D03*
X104724841Y-173463998D03*
X105224841Y-173463998D03*
X105724841Y-173463998D03*
X106224841Y-173463998D03*
X106724841Y-173463998D03*
D27*
X90324841Y-176713998D03*
X108624841Y-176713998D03*
%TD*%
D28*
%TO.C,C16*%
X105063129Y-165844523D03*
X102988129Y-165844523D03*
%TD*%
%TO.C,C15*%
X75525629Y-148344523D03*
X73450629Y-148344523D03*
%TD*%
%TO.C,C11*%
X79363129Y-149444523D03*
X77288129Y-149444523D03*
%TD*%
D29*
%TO.C,C4*%
X119736942Y-128981637D03*
X118269696Y-127514391D03*
%TD*%
D11*
%TO.C,C3*%
X125525629Y-152507023D03*
X125525629Y-154582023D03*
%TD*%
D30*
%TO.C,C2*%
X121488129Y-153544523D03*
X123563129Y-153544523D03*
%TD*%
D11*
%TO.C,C1*%
X129025629Y-132507023D03*
X129025629Y-134582023D03*
%TD*%
D20*
%TO.C,R2*%
X128691093Y-137337370D03*
X128691093Y-139337370D03*
%TD*%
D31*
%TO.C,U1*%
X117569703Y-147739316D03*
X116671678Y-148637342D03*
X115773652Y-149535368D03*
X114875626Y-150433393D03*
X113977601Y-151331419D03*
X113079575Y-152229444D03*
X112181550Y-153127470D03*
X111283524Y-154025496D03*
X110385498Y-154923521D03*
X109487473Y-155821547D03*
X108589447Y-156719573D03*
X107691422Y-157617598D03*
X106793396Y-158515624D03*
X105895370Y-159413649D03*
X104997345Y-160311675D03*
X104099319Y-161209701D03*
X103201294Y-162107726D03*
X102303268Y-163005752D03*
X101405242Y-163903777D03*
X100507217Y-164801803D03*
D32*
X98463678Y-164780590D03*
X97565652Y-163882564D03*
X96667627Y-162984539D03*
X95769601Y-162086513D03*
X94871576Y-161188487D03*
X93973550Y-160290462D03*
X93075524Y-159392436D03*
X92177499Y-158494411D03*
X91279473Y-157596385D03*
X90381448Y-156698359D03*
X89483422Y-155800334D03*
X88585396Y-154902308D03*
X87687371Y-154004283D03*
X86789345Y-153106257D03*
X85891320Y-152208231D03*
X84993294Y-151310206D03*
X84095268Y-150412180D03*
X83197243Y-149514154D03*
X82299217Y-148616129D03*
X81401191Y-147718103D03*
D31*
X81436547Y-145688707D03*
X82334572Y-144790681D03*
X83232598Y-143892656D03*
X84130624Y-142994630D03*
X85028649Y-142096604D03*
X85926675Y-141198579D03*
X86824700Y-140300553D03*
X87722726Y-139402527D03*
X88620752Y-138504502D03*
X89518777Y-137606476D03*
X90416803Y-136708451D03*
X91314829Y-135810425D03*
X92212854Y-134912399D03*
X93110880Y-134014374D03*
X94008905Y-133116348D03*
X94906931Y-132218323D03*
X95804957Y-131320297D03*
X96702982Y-130422271D03*
X97601008Y-129524246D03*
X98499033Y-128626220D03*
D32*
X100535501Y-128668647D03*
X101433527Y-129566672D03*
X102331552Y-130464698D03*
X103229578Y-131362723D03*
X104127603Y-132260749D03*
X105025629Y-133158775D03*
X105923655Y-134056800D03*
X106821680Y-134954826D03*
X107719706Y-135852851D03*
X108617731Y-136750877D03*
X109515757Y-137648903D03*
X110413783Y-138546928D03*
X111311808Y-139444954D03*
X112209834Y-140342979D03*
X113107860Y-141241005D03*
X114005885Y-142139031D03*
X114903911Y-143037056D03*
X115801936Y-143935082D03*
X116699962Y-144833108D03*
X117597988Y-145731133D03*
%TD*%
M02*
