%TF.GenerationSoftware,KiCad,Pcbnew,9.0.6-rc2*%
%TF.CreationDate,2026-05-07T23:38:51+08:00*%
%TF.ProjectId,R2000_R1.1,52323030-305f-4523-912e-312e6b696361,1.0*%
%TF.SameCoordinates,Original*%
%TF.FileFunction,Copper,L2,Inr*%
%TF.FilePolarity,Positive*%
%FSLAX46Y46*%
G04 Gerber Fmt 4.6, Leading zero omitted, Abs format (unit mm)*
G04 Created by KiCad (PCBNEW 9.0.6-rc2) date 2026-05-07 23:38:51*
%MOMM*%
%LPD*%
G01*
G04 APERTURE LIST*
G04 Aperture macros list*
%AMRoundRect*
0 Rectangle with rounded corners*
0 $1 Rounding radius*
0 $2 $3 $4 $5 $6 $7 $8 $9 X,Y pos of 4 corners*
0 Add a 4 corners polygon primitive as box body*
4,1,4,$2,$3,$4,$5,$6,$7,$8,$9,$2,$3,0*
0 Add four circle primitives for the rounded corners*
1,1,$1+$1,$2,$3*
1,1,$1+$1,$4,$5*
1,1,$1+$1,$6,$7*
1,1,$1+$1,$8,$9*
0 Add four rect primitives between the rounded corners*
20,1,$1+$1,$2,$3,$4,$5,0*
20,1,$1+$1,$4,$5,$6,$7,0*
20,1,$1+$1,$6,$7,$8,$9,0*
20,1,$1+$1,$8,$9,$2,$3,0*%
%AMHorizOval*
0 Thick line with rounded ends*
0 $1 width*
0 $2 $3 position (X,Y) of the first rounded end (center of the circle)*
0 $4 $5 position (X,Y) of the second rounded end (center of the circle)*
0 Add line between two ends*
20,1,$1,$2,$3,$4,$5,0*
0 Add two circle primitives to create the rounded ends*
1,1,$1,$2,$3*
1,1,$1,$4,$5*%
%AMRotRect*
0 Rectangle, with rotation*
0 The origin of the aperture is its center*
0 $1 length*
0 $2 width*
0 $3 Rotation angle, in degrees counterclockwise*
0 Add horizontal line*
21,1,$1,$2,0,0,$3*%
G04 Aperture macros list end*
%TA.AperFunction,NonConductor*%
%ADD10C,0.200000*%
%TD*%
%TA.AperFunction,ComponentPad*%
%ADD11RoundRect,0.250000X-0.689429X-0.194454X-0.194454X-0.689429X0.689429X0.194454X0.194454X0.689429X0*%
%TD*%
%TA.AperFunction,ComponentPad*%
%ADD12HorizOval,1.200000X-0.194454X-0.194454X0.194454X0.194454X0*%
%TD*%
%TA.AperFunction,ComponentPad*%
%ADD13R,0.850000X0.850000*%
%TD*%
%TA.AperFunction,ComponentPad*%
%ADD14C,0.850000*%
%TD*%
%TA.AperFunction,ComponentPad*%
%ADD15C,2.100000*%
%TD*%
%TA.AperFunction,ComponentPad*%
%ADD16C,1.750000*%
%TD*%
%TA.AperFunction,ComponentPad*%
%ADD17RotRect,1.700000X1.700000X225.000000*%
%TD*%
%TA.AperFunction,ComponentPad*%
%ADD18C,1.700000*%
%TD*%
%TA.AperFunction,HeatsinkPad*%
%ADD19C,0.500000*%
%TD*%
%TA.AperFunction,HeatsinkPad*%
%ADD20O,2.100000X1.000000*%
%TD*%
%TA.AperFunction,HeatsinkPad*%
%ADD21O,1.800000X1.000000*%
%TD*%
%TA.AperFunction,ViaPad*%
%ADD22C,0.600000*%
%TD*%
%TA.AperFunction,ViaPad*%
%ADD23C,0.400000*%
%TD*%
%TA.AperFunction,ViaPad*%
%ADD24C,0.500000*%
%TD*%
%TA.AperFunction,ViaPad*%
%ADD25C,0.800000*%
%TD*%
%TA.AperFunction,ViaPad*%
%ADD26C,1.000000*%
%TD*%
%TA.AperFunction,ViaPad*%
%ADD27C,0.700000*%
%TD*%
G04 APERTURE END LIST*
D10*
X60025629Y-107044523D02*
X140025629Y-107044523D01*
X140025629Y-187544523D01*
X60025629Y-187544523D01*
X60025629Y-107044523D01*
D11*
%TO.N,Net-(J1-Pin_1)*%
%TO.C,J1*%
X121579770Y-124256244D03*
D12*
%TO.N,/3V7*%
X122993984Y-125670458D03*
%TD*%
D13*
%TO.N,/C6_IO9*%
%TO.C,JP1*%
X109125629Y-132544523D03*
D14*
%TO.N,Net-(JP1-B)*%
X108125629Y-132544523D03*
%TD*%
D15*
%TO.N,*%
%TO.C,SHUTTER*%
X76004397Y-129286788D03*
X80961216Y-124329970D03*
D16*
%TO.N,GND*%
X75127585Y-126642209D03*
%TO.N,/GPIO11*%
X78309566Y-123460228D03*
%TD*%
D15*
%TO.N,*%
%TO.C,POWER*%
X126253268Y-159574338D03*
X122748268Y-165645176D03*
D16*
%TO.N,/3V3*%
X127784671Y-161901870D03*
%TO.N,/GPIO53*%
X125534671Y-165798985D03*
%TD*%
D17*
%TO.N,/RED*%
%TO.C,J6*%
X79580949Y-173044237D03*
D18*
%TO.N,/GREEN*%
X77784898Y-171248186D03*
%TO.N,/BLUE*%
X75988847Y-169452135D03*
%TO.N,/5V*%
X74192795Y-167656083D03*
%TD*%
D19*
%TO.N,GND*%
%TO.C,U2*%
X124525629Y-147083953D03*
X123325629Y-147083953D03*
X122125629Y-147083953D03*
X124525629Y-148483953D03*
X123325629Y-148483953D03*
X122125629Y-148483953D03*
%TD*%
D20*
%TO.N,GND*%
%TO.C,J5*%
X128715782Y-152103953D03*
D21*
X132915782Y-152103953D03*
D20*
X128715782Y-143463953D03*
D21*
X132915782Y-143463953D03*
%TD*%
D22*
%TO.N,/VIN*%
X128115782Y-145383953D03*
X128115782Y-150183953D03*
%TO.N,GND*%
X130825629Y-152103953D03*
X123563129Y-153544523D03*
X127325629Y-143044523D03*
X127125629Y-138694523D03*
X124878307Y-137794523D03*
X121325628Y-141613153D03*
X121325530Y-138343110D03*
X128691093Y-139337370D03*
X125025629Y-143044523D03*
X112209834Y-140342979D03*
X114025629Y-156044523D03*
X114025629Y-162344523D03*
X110825629Y-161544523D03*
X110825629Y-167844523D03*
X106838129Y-120094523D03*
X108025629Y-171307023D03*
X99725629Y-174744523D03*
X97025629Y-174644523D03*
X98125629Y-174744523D03*
X100357357Y-125588750D03*
X94025629Y-170544523D03*
%TO.N,/GPIO53*%
X111283524Y-154025496D03*
%TO.N,GND*%
X126675629Y-146406626D03*
X126725629Y-149244523D03*
X125415488Y-148454664D03*
X125934483Y-149090391D03*
X126995780Y-146962192D03*
X118425629Y-144394523D03*
X118524629Y-146194523D03*
X108925629Y-144394523D03*
X110119875Y-146194523D03*
X81806830Y-143488953D03*
X80625629Y-144344523D03*
X86112083Y-148118523D03*
X84025629Y-148744523D03*
X84825629Y-150144523D03*
X106359472Y-148165670D03*
X107085074Y-147375464D03*
X105875629Y-146070073D03*
X108079119Y-146672634D03*
X114225629Y-144144523D03*
X116125629Y-142444523D03*
X116225629Y-146244523D03*
X118425629Y-149144523D03*
X81806830Y-153688953D03*
X83907088Y-164491490D03*
X81105178Y-161689580D03*
X81806830Y-150538953D03*
D23*
X96545629Y-149844523D03*
X96545629Y-148164523D03*
X101485629Y-148164523D03*
X101485629Y-149844523D03*
X96800628Y-145896085D03*
X96488217Y-144440230D03*
X101650334Y-171524094D03*
X101224841Y-172195883D03*
X101251584Y-170912519D03*
X99781186Y-169927485D03*
X96475990Y-169521954D03*
X96791470Y-168959353D03*
X96724841Y-170093635D03*
X96505629Y-166024523D03*
X98300628Y-166024523D03*
X99800628Y-166024523D03*
X101565629Y-166024523D03*
X101545629Y-159494523D03*
X96605629Y-154654523D03*
X96445629Y-160974523D03*
X98295629Y-153124523D03*
X98265629Y-156394523D03*
X98275629Y-149844523D03*
X98275629Y-148164523D03*
X98260584Y-146692408D03*
X98183542Y-143334543D03*
D24*
X93789551Y-136809051D03*
X93667134Y-136214922D03*
X93230771Y-135732325D03*
X91149653Y-139212166D03*
X92509741Y-138283493D03*
X92287934Y-137758278D03*
X91753684Y-137364414D03*
X90525629Y-138744523D03*
X94425629Y-131744523D03*
X97725629Y-125244523D03*
X92946054Y-125129863D03*
X95046054Y-125111921D03*
X87300629Y-133391706D03*
X83618051Y-141414214D03*
X83369512Y-140851217D03*
X83557995Y-140321117D03*
X85242499Y-137731637D03*
D22*
X86150256Y-132191867D03*
X86383860Y-131531994D03*
X87048495Y-131230260D03*
X85849876Y-133189945D03*
X85256407Y-133824745D03*
X85700629Y-134787307D03*
X82715106Y-137737878D03*
X82286198Y-138405092D03*
X81051159Y-141756062D03*
X80914574Y-140731113D03*
X81344809Y-139913208D03*
%TO.N,/GPIO11*%
X104925629Y-131044523D03*
%TO.N,/3V7*%
X119170075Y-135388969D03*
X116645201Y-132964095D03*
X114020327Y-130639221D03*
%TO.N,/SDA*%
X106649894Y-169968788D03*
%TO.N,/SCL*%
X105625629Y-170844523D03*
%TO.N,/SDA*%
X109525629Y-150544523D03*
%TO.N,/SCL*%
X108725629Y-150544523D03*
%TO.N,/CSI_IO0*%
X107650326Y-139744281D03*
%TO.N,/CSI_IO1*%
X107025629Y-139244523D03*
%TO.N,/SDA*%
X106591316Y-129378836D03*
%TO.N,/SCL*%
X105375629Y-129294523D03*
%TO.N,/GPIO11*%
X89025629Y-126844523D03*
%TO.N,/3V3*%
X103325629Y-169544523D03*
%TO.N,/T_INT*%
X103325629Y-171544523D03*
%TO.N,/GPIO28*%
X71306830Y-154638953D03*
%TO.N,Net-(J7-VDD)*%
X80325629Y-148344523D03*
%TO.N,/SD_DATA2*%
X79225629Y-145044523D03*
%TO.N,/SD_DATA3*%
X80225629Y-146044523D03*
%TO.N,/SD_CMD*%
X79325629Y-147244523D03*
%TO.N,Net-(J7-VDD)*%
X79363129Y-149444523D03*
%TO.N,/SD_DATA0*%
X81806830Y-151638953D03*
%TO.N,/SD_DATA1*%
X79320059Y-152738953D03*
%TO.N,/SD_CLK*%
X93525629Y-152344523D03*
%TO.N,/SD_DATA0*%
X94412678Y-156283045D03*
%TO.N,/SD_DATA1*%
X95325629Y-157944523D03*
%TO.N,/SD_DATA2*%
X95275629Y-156994523D03*
%TO.N,/SD_DATA3*%
X94221760Y-155349904D03*
%TO.N,/SD_CMD*%
X92725629Y-151007523D03*
%TO.N,/3V3*%
X119725629Y-153344523D03*
X108301364Y-175020258D03*
%TO.N,/VIN*%
X131713129Y-157044523D03*
X131713129Y-154744523D03*
%TO.N,/2V8*%
X95375235Y-175994917D03*
X119701364Y-152068788D03*
%TO.N,/3V3*%
X113057170Y-134289383D03*
%TO.N,Net-(JP1-B)*%
X102331552Y-130464698D03*
%TO.N,/CHIP_PU*%
X112018522Y-151051630D03*
%TO.N,/3V3*%
X113432736Y-149637416D03*
%TO.N,/1V8*%
X119525629Y-151044523D03*
D25*
%TO.N,GND*%
X117125629Y-126344523D03*
X109525629Y-117844523D03*
X108125629Y-117844523D03*
X111925629Y-116444523D03*
X106725629Y-116844523D03*
X111225629Y-118044523D03*
X118725629Y-122944523D03*
D26*
%TO.N,/3V7*%
X119736942Y-128981637D03*
D25*
%TO.N,GND*%
X118269696Y-127514391D03*
D22*
%TO.N,/RED_PWM*%
X92177499Y-158494411D03*
%TO.N,/BLUE_PWM*%
X91279473Y-157596385D03*
%TO.N,/GREEN_PWM*%
X90381448Y-156698359D03*
%TO.N,/GPIO53*%
X118825629Y-154744523D03*
%TO.N,GND*%
X76003094Y-163957616D03*
X78009313Y-165560839D03*
X81025629Y-169044523D03*
%TO.N,/5V*%
X81910572Y-167902220D03*
X78751926Y-164698319D03*
X75547319Y-161538966D03*
%TO.N,/1V8*%
X96525629Y-177044523D03*
D27*
%TO.N,GND*%
X115054747Y-135898051D03*
X111925629Y-133944523D03*
D22*
%TO.N,Net-(U2-~{STDBY})*%
X122525629Y-152544523D03*
%TO.N,Net-(U2-~{CHRG})*%
X124300630Y-152434777D03*
%TO.N,/DATA-*%
X107326150Y-146345044D03*
%TO.N,/DATA+*%
X106275629Y-147370073D03*
%TO.N,/DATA-*%
X126225108Y-148345044D03*
%TO.N,/DATA+*%
X126826150Y-147744002D03*
%TO.N,Net-(J5-CC1)*%
X130525629Y-148044523D03*
%TO.N,Net-(J5-CC2)*%
X130525629Y-146044523D03*
D25*
%TO.N,GND*%
X122976276Y-134508122D03*
D22*
%TO.N,/CSI_DCLN*%
X84118826Y-140819086D03*
%TO.N,/CSI_D0N*%
X87010464Y-132029358D03*
%TO.N,/CSI_D0P*%
X86025629Y-134044523D03*
%TO.N,/CSI_D1P*%
X81650630Y-141044523D03*
%TO.N,/CSI_D1N*%
X83101364Y-138438456D03*
%TO.N,/DSI_D1N*%
X99450629Y-170544523D03*
%TO.N,/DSI_D1P*%
X98600629Y-170544523D03*
X98525629Y-146044523D03*
%TO.N,/DSI_D1N*%
X98600629Y-145044523D03*
%TO.N,/DSI_DCLP*%
X100100629Y-171544523D03*
%TO.N,/DSI_DCLN*%
X100950629Y-171544523D03*
X93056518Y-136650412D03*
%TO.N,/DSI_DCLP*%
X92206518Y-136650412D03*
%TO.N,/DSI_D0N*%
X98025629Y-169544523D03*
%TO.N,/DSI_D0P*%
X97175629Y-169544523D03*
%TO.N,/DSI_D0N*%
X91625629Y-138110210D03*
%TO.N,/DSI_D0P*%
X91025629Y-137544523D03*
D27*
%TO.N,GND*%
X117529621Y-138372925D03*
D22*
%TO.N,/CSI_DCLP*%
X85018046Y-138521774D03*
%TO.N,GND*%
X83301364Y-137320258D03*
X106589772Y-145061140D03*
%TD*%
%TA.AperFunction,Conductor*%
%TO.N,GND*%
G36*
X100041329Y-113289137D02*
G01*
X101165647Y-113325943D01*
X101169672Y-113326142D01*
X102292164Y-113399715D01*
X102296205Y-113400045D01*
X103415722Y-113510307D01*
X103419654Y-113510760D01*
X104534968Y-113657594D01*
X104538935Y-113658182D01*
X105648874Y-113841434D01*
X105652816Y-113842152D01*
X106756123Y-114061614D01*
X106759986Y-114062447D01*
X107855555Y-114317898D01*
X107859490Y-114318884D01*
X108333728Y-114445955D01*
X108946081Y-114610034D01*
X108949907Y-114611127D01*
X110026441Y-114937690D01*
X110030247Y-114938913D01*
X111095469Y-115300508D01*
X111099262Y-115301865D01*
X112124093Y-115687584D01*
X112152047Y-115698105D01*
X112155816Y-115699594D01*
X113195107Y-116130082D01*
X113198795Y-116131681D01*
X113352800Y-116201460D01*
X114223433Y-116595938D01*
X114227101Y-116597673D01*
X115235981Y-117095198D01*
X115239590Y-117097052D01*
X116231666Y-117627327D01*
X116235163Y-117629270D01*
X117209389Y-118191740D01*
X117212855Y-118193818D01*
X118168100Y-118787827D01*
X118171511Y-118790026D01*
X119106826Y-119414985D01*
X119110162Y-119417294D01*
X120024518Y-120072512D01*
X120027777Y-120074929D01*
X120920209Y-120759716D01*
X120923388Y-120762239D01*
X121792954Y-121475873D01*
X121796011Y-121478466D01*
X122285098Y-121907385D01*
X122641772Y-122220180D01*
X122644778Y-122222905D01*
X123465781Y-122991857D01*
X123468697Y-122994679D01*
X124264114Y-123790096D01*
X124266936Y-123793012D01*
X125035888Y-124614015D01*
X125038613Y-124617021D01*
X125344410Y-124965715D01*
X125724824Y-125399494D01*
X125780311Y-125462764D01*
X125782925Y-125465845D01*
X125976169Y-125701313D01*
X126496554Y-126335405D01*
X126499077Y-126338584D01*
X127183864Y-127231016D01*
X127186281Y-127234275D01*
X127841499Y-128148631D01*
X127843808Y-128151967D01*
X128468767Y-129087282D01*
X128470966Y-129090693D01*
X129064975Y-130045938D01*
X129067061Y-130049418D01*
X129129395Y-130157384D01*
X129595786Y-130965197D01*
X129629509Y-131023606D01*
X129631480Y-131027153D01*
X130161741Y-132019203D01*
X130163595Y-132022812D01*
X130661120Y-133031692D01*
X130662855Y-133035360D01*
X131127104Y-134059981D01*
X131128718Y-134063704D01*
X131559197Y-135102972D01*
X131560688Y-135106746D01*
X131956923Y-136159518D01*
X131958290Y-136163338D01*
X132319870Y-137228517D01*
X132321112Y-137232381D01*
X132646001Y-138303397D01*
X132647653Y-138308841D01*
X132648767Y-138312743D01*
X132939909Y-139399303D01*
X132940895Y-139403238D01*
X133092071Y-140051594D01*
X133177641Y-140418586D01*
X133196333Y-140498749D01*
X133197189Y-140502716D01*
X133416636Y-141605952D01*
X133417363Y-141609944D01*
X133600607Y-142719835D01*
X133601202Y-142723849D01*
X133748027Y-143839090D01*
X133748491Y-143843121D01*
X133858747Y-144962585D01*
X133859078Y-144966629D01*
X133932651Y-146089121D01*
X133932851Y-146093174D01*
X133969657Y-147217464D01*
X133969723Y-147221521D01*
X133969723Y-148346384D01*
X133969657Y-148350441D01*
X133932851Y-149474731D01*
X133932651Y-149478784D01*
X133859078Y-150601276D01*
X133858747Y-150605320D01*
X133748491Y-151724784D01*
X133748027Y-151728815D01*
X133601202Y-152844056D01*
X133600607Y-152848070D01*
X133417363Y-153957961D01*
X133416636Y-153961953D01*
X133197189Y-155065189D01*
X133196333Y-155069156D01*
X132940895Y-156164667D01*
X132939909Y-156168602D01*
X132648767Y-157255162D01*
X132647653Y-157259064D01*
X132321112Y-158335524D01*
X132319870Y-158339388D01*
X131958290Y-159404567D01*
X131956923Y-159408387D01*
X131560688Y-160461159D01*
X131559197Y-160464933D01*
X131128718Y-161504201D01*
X131127104Y-161507924D01*
X130662855Y-162532545D01*
X130661120Y-162536213D01*
X130163595Y-163545093D01*
X130161741Y-163548702D01*
X129631480Y-164540752D01*
X129629509Y-164544299D01*
X129067061Y-165518487D01*
X129064975Y-165521967D01*
X128470966Y-166477212D01*
X128468767Y-166480623D01*
X127843808Y-167415938D01*
X127841499Y-167419274D01*
X127186281Y-168333630D01*
X127183864Y-168336889D01*
X126499077Y-169229321D01*
X126496554Y-169232500D01*
X125782936Y-170102047D01*
X125780311Y-170105141D01*
X125038613Y-170950884D01*
X125035888Y-170953890D01*
X124266936Y-171774893D01*
X124264114Y-171777809D01*
X123468697Y-172573226D01*
X123465781Y-172576048D01*
X122644778Y-173345000D01*
X122641772Y-173347725D01*
X121796029Y-174089423D01*
X121792935Y-174092048D01*
X120923388Y-174805666D01*
X120920209Y-174808189D01*
X120027777Y-175492976D01*
X120024518Y-175495393D01*
X119110162Y-176150611D01*
X119106826Y-176152920D01*
X118171511Y-176777879D01*
X118168100Y-176780078D01*
X117212855Y-177374087D01*
X117209375Y-177376173D01*
X116235187Y-177938621D01*
X116231640Y-177940592D01*
X115239590Y-178470853D01*
X115235981Y-178472707D01*
X114227101Y-178970232D01*
X114223433Y-178971967D01*
X113198812Y-179436216D01*
X113195089Y-179437830D01*
X112155821Y-179868309D01*
X112152047Y-179869800D01*
X111099275Y-180266035D01*
X111095455Y-180267402D01*
X110030276Y-180628982D01*
X110026412Y-180630224D01*
X108949952Y-180956765D01*
X108946050Y-180957879D01*
X107859490Y-181249021D01*
X107855555Y-181250007D01*
X106760044Y-181505445D01*
X106756077Y-181506301D01*
X105652841Y-181725748D01*
X105648849Y-181726475D01*
X104538958Y-181909719D01*
X104534944Y-181910314D01*
X103419703Y-182057139D01*
X103415672Y-182057603D01*
X102296208Y-182167859D01*
X102292164Y-182168190D01*
X101169672Y-182241763D01*
X101165619Y-182241963D01*
X100041329Y-182278769D01*
X100037272Y-182278835D01*
X98912410Y-182278835D01*
X98908353Y-182278769D01*
X97784062Y-182241963D01*
X97780009Y-182241763D01*
X96657517Y-182168190D01*
X96653473Y-182167859D01*
X95534009Y-182057603D01*
X95529978Y-182057139D01*
X94414737Y-181910314D01*
X94410723Y-181909719D01*
X93300832Y-181726475D01*
X93296840Y-181725748D01*
X92193604Y-181506301D01*
X92189650Y-181505447D01*
X91900413Y-181438007D01*
X91094126Y-181250007D01*
X91090191Y-181249021D01*
X90003631Y-180957879D01*
X89999729Y-180956765D01*
X88923269Y-180630224D01*
X88919405Y-180628982D01*
X87854226Y-180267402D01*
X87850406Y-180266035D01*
X86797634Y-179869800D01*
X86793860Y-179868309D01*
X85754592Y-179437830D01*
X85750869Y-179436216D01*
X84726248Y-178971967D01*
X84722580Y-178970232D01*
X83713700Y-178472707D01*
X83710091Y-178470853D01*
X82718041Y-177940592D01*
X82714494Y-177938621D01*
X81740306Y-177376173D01*
X81736826Y-177374087D01*
X81257149Y-177075805D01*
X81100880Y-176978631D01*
X96025129Y-176978631D01*
X96025129Y-177110414D01*
X96059237Y-177237710D01*
X96092183Y-177294773D01*
X96125129Y-177351837D01*
X96218315Y-177445023D01*
X96332443Y-177510915D01*
X96459737Y-177545023D01*
X96459739Y-177545023D01*
X96591519Y-177545023D01*
X96591521Y-177545023D01*
X96718815Y-177510915D01*
X96832943Y-177445023D01*
X96926129Y-177351837D01*
X96992021Y-177237709D01*
X97026129Y-177110415D01*
X97026129Y-176978631D01*
X96992021Y-176851337D01*
X96926129Y-176737209D01*
X96832943Y-176644023D01*
X96775879Y-176611077D01*
X96718816Y-176578131D01*
X96655168Y-176561077D01*
X96591521Y-176544023D01*
X96459737Y-176544023D01*
X96332441Y-176578131D01*
X96218315Y-176644023D01*
X96218312Y-176644025D01*
X96125131Y-176737206D01*
X96125129Y-176737209D01*
X96059237Y-176851335D01*
X96025129Y-176978631D01*
X81100880Y-176978631D01*
X80781581Y-176780078D01*
X80778170Y-176777879D01*
X79842855Y-176152920D01*
X79839519Y-176150611D01*
X79659611Y-176021691D01*
X79530296Y-175929025D01*
X94874735Y-175929025D01*
X94874735Y-176060808D01*
X94908843Y-176188104D01*
X94941789Y-176245167D01*
X94974735Y-176302231D01*
X95067921Y-176395417D01*
X95182049Y-176461309D01*
X95309343Y-176495417D01*
X95309345Y-176495417D01*
X95441125Y-176495417D01*
X95441127Y-176495417D01*
X95568421Y-176461309D01*
X95682549Y-176395417D01*
X95775735Y-176302231D01*
X95841627Y-176188103D01*
X95875735Y-176060809D01*
X95875735Y-175929025D01*
X95841627Y-175801731D01*
X95775735Y-175687603D01*
X95682549Y-175594417D01*
X95625485Y-175561471D01*
X95568422Y-175528525D01*
X95504774Y-175511471D01*
X95441127Y-175494417D01*
X95309343Y-175494417D01*
X95182047Y-175528525D01*
X95067921Y-175594417D01*
X95067918Y-175594419D01*
X94974737Y-175687600D01*
X94974735Y-175687603D01*
X94908843Y-175801729D01*
X94874735Y-175929025D01*
X79530296Y-175929025D01*
X78925163Y-175495393D01*
X78921904Y-175492976D01*
X78337588Y-175044615D01*
X78219973Y-174954366D01*
X107800864Y-174954366D01*
X107800864Y-175086149D01*
X107834972Y-175213445D01*
X107867918Y-175270508D01*
X107900864Y-175327572D01*
X107994050Y-175420758D01*
X108108178Y-175486650D01*
X108235472Y-175520758D01*
X108235474Y-175520758D01*
X108367254Y-175520758D01*
X108367256Y-175520758D01*
X108494550Y-175486650D01*
X108608678Y-175420758D01*
X108701864Y-175327572D01*
X108767756Y-175213444D01*
X108801864Y-175086150D01*
X108801864Y-174954366D01*
X108767756Y-174827072D01*
X108701864Y-174712944D01*
X108608678Y-174619758D01*
X108551614Y-174586812D01*
X108494551Y-174553866D01*
X108430903Y-174536812D01*
X108367256Y-174519758D01*
X108235472Y-174519758D01*
X108108176Y-174553866D01*
X107994050Y-174619758D01*
X107994047Y-174619760D01*
X107900866Y-174712941D01*
X107900864Y-174712944D01*
X107834972Y-174827070D01*
X107800864Y-174954366D01*
X78219973Y-174954366D01*
X78029472Y-174808189D01*
X78026293Y-174805666D01*
X77574860Y-174435185D01*
X77156733Y-174092037D01*
X77153652Y-174089423D01*
X76307909Y-173347725D01*
X76304903Y-173345000D01*
X76067371Y-173122527D01*
X75983778Y-173044234D01*
X78174440Y-173044234D01*
X78174440Y-173044239D01*
X78190000Y-173122467D01*
X78190000Y-173122468D01*
X78223130Y-173172049D01*
X78223133Y-173172053D01*
X79453132Y-174402052D01*
X79453136Y-174402055D01*
X79453138Y-174402057D01*
X79502718Y-174435185D01*
X79580947Y-174450746D01*
X79580949Y-174450746D01*
X79580951Y-174450746D01*
X79633103Y-174440372D01*
X79659180Y-174435185D01*
X79708760Y-174402057D01*
X80938769Y-173172048D01*
X80971897Y-173122468D01*
X80987458Y-173044237D01*
X80987458Y-173044234D01*
X80971897Y-172966006D01*
X80971897Y-172966005D01*
X80955275Y-172941130D01*
X80938769Y-172916426D01*
X80938767Y-172916424D01*
X80938764Y-172916420D01*
X79708765Y-171686421D01*
X79708761Y-171686418D01*
X79659179Y-171653288D01*
X79580951Y-171637728D01*
X79580947Y-171637728D01*
X79502718Y-171653288D01*
X79502717Y-171653288D01*
X79453136Y-171686418D01*
X79453132Y-171686421D01*
X78223133Y-172916420D01*
X78223130Y-172916424D01*
X78190000Y-172966005D01*
X78190000Y-172966006D01*
X78174440Y-173044234D01*
X75983778Y-173044234D01*
X75483900Y-172576048D01*
X75480984Y-172573226D01*
X74685567Y-171777809D01*
X74682745Y-171774893D01*
X74166211Y-171223394D01*
X74092521Y-171144716D01*
X76734398Y-171144716D01*
X76734398Y-171351655D01*
X76774766Y-171554598D01*
X76774768Y-171554606D01*
X76853956Y-171745782D01*
X76968922Y-171917843D01*
X77115240Y-172064161D01*
X77115243Y-172064163D01*
X77287300Y-172179127D01*
X77478478Y-172258316D01*
X77681428Y-172298685D01*
X77681432Y-172298686D01*
X77681433Y-172298686D01*
X77888364Y-172298686D01*
X77888365Y-172298685D01*
X78091318Y-172258316D01*
X78282496Y-172179127D01*
X78454553Y-172064163D01*
X78600875Y-171917841D01*
X78715839Y-171745784D01*
X78795028Y-171554606D01*
X78835398Y-171351651D01*
X78835398Y-171144721D01*
X78795028Y-170941766D01*
X78715839Y-170750588D01*
X78600875Y-170578531D01*
X78600873Y-170578528D01*
X78454555Y-170432210D01*
X78360380Y-170369285D01*
X78282496Y-170317245D01*
X78183173Y-170276104D01*
X78091318Y-170238056D01*
X78091310Y-170238054D01*
X77888367Y-170197686D01*
X77888363Y-170197686D01*
X77681433Y-170197686D01*
X77681428Y-170197686D01*
X77478485Y-170238054D01*
X77478477Y-170238056D01*
X77287301Y-170317244D01*
X77115240Y-170432210D01*
X76968922Y-170578528D01*
X76853956Y-170750589D01*
X76774768Y-170941765D01*
X76774766Y-170941773D01*
X76734398Y-171144716D01*
X74092521Y-171144716D01*
X73913793Y-170953890D01*
X73911068Y-170950884D01*
X73548284Y-170537209D01*
X73169354Y-170105123D01*
X73166761Y-170102066D01*
X72548461Y-169348665D01*
X74938347Y-169348665D01*
X74938347Y-169555604D01*
X74978715Y-169758547D01*
X74978717Y-169758555D01*
X75057905Y-169949731D01*
X75172871Y-170121792D01*
X75319189Y-170268110D01*
X75319192Y-170268112D01*
X75491249Y-170383076D01*
X75682427Y-170462265D01*
X75885377Y-170502634D01*
X75885381Y-170502635D01*
X75885382Y-170502635D01*
X76092313Y-170502635D01*
X76092314Y-170502634D01*
X76295267Y-170462265D01*
X76486445Y-170383076D01*
X76658502Y-170268112D01*
X76804824Y-170121790D01*
X76919788Y-169949733D01*
X76998977Y-169758555D01*
X77039347Y-169555600D01*
X77039347Y-169478631D01*
X96675129Y-169478631D01*
X96675129Y-169610414D01*
X96709237Y-169737710D01*
X96742183Y-169794773D01*
X96775129Y-169851837D01*
X96868315Y-169945023D01*
X96982443Y-170010915D01*
X97109737Y-170045023D01*
X97109739Y-170045023D01*
X97241519Y-170045023D01*
X97241521Y-170045023D01*
X97368815Y-170010915D01*
X97482943Y-169945023D01*
X97512948Y-169915018D01*
X97574271Y-169881533D01*
X97643963Y-169886517D01*
X97688310Y-169915018D01*
X97718315Y-169945023D01*
X97832443Y-170010915D01*
X97959737Y-170045023D01*
X97959739Y-170045023D01*
X98096314Y-170045023D01*
X98163353Y-170064708D01*
X98209108Y-170117512D01*
X98219052Y-170186670D01*
X98203701Y-170231024D01*
X98200131Y-170237206D01*
X98200129Y-170237209D01*
X98182287Y-170268112D01*
X98134237Y-170351335D01*
X98100129Y-170478631D01*
X98100129Y-170610414D01*
X98134237Y-170737710D01*
X98167183Y-170794773D01*
X98200129Y-170851837D01*
X98293315Y-170945023D01*
X98407443Y-171010915D01*
X98534737Y-171045023D01*
X98534739Y-171045023D01*
X98666519Y-171045023D01*
X98666521Y-171045023D01*
X98793815Y-171010915D01*
X98907943Y-170945023D01*
X98937948Y-170915018D01*
X98999271Y-170881533D01*
X99068963Y-170886517D01*
X99113310Y-170915018D01*
X99143315Y-170945023D01*
X99257443Y-171010915D01*
X99384737Y-171045023D01*
X99384739Y-171045023D01*
X99516518Y-171045023D01*
X99516521Y-171045023D01*
X99582862Y-171027247D01*
X99652709Y-171028910D01*
X99710572Y-171068072D01*
X99738076Y-171132301D01*
X99726490Y-171201203D01*
X99702640Y-171234698D01*
X99700130Y-171237207D01*
X99700129Y-171237209D01*
X99634237Y-171351335D01*
X99600129Y-171478631D01*
X99600129Y-171610415D01*
X99611617Y-171653288D01*
X99634237Y-171737710D01*
X99638899Y-171745784D01*
X99700129Y-171851837D01*
X99793315Y-171945023D01*
X99907443Y-172010915D01*
X100034737Y-172045023D01*
X100034739Y-172045023D01*
X100166519Y-172045023D01*
X100166521Y-172045023D01*
X100293815Y-172010915D01*
X100407943Y-171945023D01*
X100437948Y-171915018D01*
X100499271Y-171881533D01*
X100568963Y-171886517D01*
X100613310Y-171915018D01*
X100643315Y-171945023D01*
X100757443Y-172010915D01*
X100884737Y-172045023D01*
X100884739Y-172045023D01*
X101016519Y-172045023D01*
X101016521Y-172045023D01*
X101143815Y-172010915D01*
X101257943Y-171945023D01*
X101351129Y-171851837D01*
X101417021Y-171737709D01*
X101451129Y-171610415D01*
X101451129Y-171478631D01*
X102825129Y-171478631D01*
X102825129Y-171610415D01*
X102836617Y-171653288D01*
X102859237Y-171737710D01*
X102863899Y-171745784D01*
X102925129Y-171851837D01*
X103018315Y-171945023D01*
X103132443Y-172010915D01*
X103259737Y-172045023D01*
X103259739Y-172045023D01*
X103391519Y-172045023D01*
X103391521Y-172045023D01*
X103518815Y-172010915D01*
X103632943Y-171945023D01*
X103726129Y-171851837D01*
X103792021Y-171737709D01*
X103826129Y-171610415D01*
X103826129Y-171478631D01*
X103792021Y-171351337D01*
X103726129Y-171237209D01*
X103632943Y-171144023D01*
X103575879Y-171111077D01*
X103518816Y-171078131D01*
X103451652Y-171060135D01*
X103391521Y-171044023D01*
X103259737Y-171044023D01*
X103132441Y-171078131D01*
X103018315Y-171144023D01*
X103018312Y-171144025D01*
X102925131Y-171237206D01*
X102925129Y-171237209D01*
X102859237Y-171351335D01*
X102825129Y-171478631D01*
X101451129Y-171478631D01*
X101417021Y-171351337D01*
X101351129Y-171237209D01*
X101257943Y-171144023D01*
X101200879Y-171111077D01*
X101143816Y-171078131D01*
X101076652Y-171060135D01*
X101016521Y-171044023D01*
X100884737Y-171044023D01*
X100757441Y-171078131D01*
X100643315Y-171144023D01*
X100643312Y-171144025D01*
X100613310Y-171174028D01*
X100551987Y-171207513D01*
X100482295Y-171202529D01*
X100437948Y-171174028D01*
X100407945Y-171144025D01*
X100407943Y-171144023D01*
X100350879Y-171111077D01*
X100293816Y-171078131D01*
X100226652Y-171060135D01*
X100166521Y-171044023D01*
X100034737Y-171044023D01*
X100034735Y-171044023D01*
X99968396Y-171061798D01*
X99898546Y-171060135D01*
X99840684Y-171020971D01*
X99813181Y-170956742D01*
X99824768Y-170887840D01*
X99829264Y-170879426D01*
X99837325Y-170865640D01*
X99851129Y-170851837D01*
X99893395Y-170778631D01*
X105125129Y-170778631D01*
X105125129Y-170910415D01*
X105133531Y-170941773D01*
X105159237Y-171037710D01*
X105176767Y-171068072D01*
X105225129Y-171151837D01*
X105318315Y-171245023D01*
X105432443Y-171310915D01*
X105559737Y-171345023D01*
X105559739Y-171345023D01*
X105691519Y-171345023D01*
X105691521Y-171345023D01*
X105818815Y-171310915D01*
X105932943Y-171245023D01*
X106026129Y-171151837D01*
X106092021Y-171037709D01*
X106126129Y-170910415D01*
X106126129Y-170778631D01*
X106092021Y-170651337D01*
X106026129Y-170537209D01*
X105932943Y-170444023D01*
X105875879Y-170411077D01*
X105818816Y-170378131D01*
X105718817Y-170351337D01*
X105691521Y-170344023D01*
X105559737Y-170344023D01*
X105432441Y-170378131D01*
X105318315Y-170444023D01*
X105318312Y-170444025D01*
X105225131Y-170537206D01*
X105225129Y-170537209D01*
X105159237Y-170651335D01*
X105132643Y-170750588D01*
X105125129Y-170778631D01*
X99893395Y-170778631D01*
X99917021Y-170737709D01*
X99951129Y-170610415D01*
X99951129Y-170478631D01*
X99917021Y-170351337D01*
X99851129Y-170237209D01*
X99757943Y-170144023D01*
X99685239Y-170102047D01*
X99643816Y-170078131D01*
X99580168Y-170061077D01*
X99516521Y-170044023D01*
X99384737Y-170044023D01*
X99257441Y-170078131D01*
X99143315Y-170144023D01*
X99143312Y-170144025D01*
X99113310Y-170174028D01*
X99051987Y-170207513D01*
X98982295Y-170202529D01*
X98937948Y-170174028D01*
X98907945Y-170144025D01*
X98907943Y-170144023D01*
X98835239Y-170102047D01*
X98793816Y-170078131D01*
X98730168Y-170061077D01*
X98666521Y-170044023D01*
X98534737Y-170044023D01*
X98529944Y-170044023D01*
X98462905Y-170024338D01*
X98417150Y-169971534D01*
X98407206Y-169902376D01*
X98422557Y-169858022D01*
X98426126Y-169851839D01*
X98426129Y-169851837D01*
X98492021Y-169737709D01*
X98526129Y-169610415D01*
X98526129Y-169478631D01*
X102825129Y-169478631D01*
X102825129Y-169610414D01*
X102859237Y-169737710D01*
X102892183Y-169794773D01*
X102925129Y-169851837D01*
X103018315Y-169945023D01*
X103132443Y-170010915D01*
X103259737Y-170045023D01*
X103259739Y-170045023D01*
X103391519Y-170045023D01*
X103391521Y-170045023D01*
X103518815Y-170010915D01*
X103632943Y-169945023D01*
X103675070Y-169902896D01*
X106149394Y-169902896D01*
X106149394Y-170034680D01*
X106157440Y-170064708D01*
X106183502Y-170161975D01*
X106209794Y-170207513D01*
X106249394Y-170276102D01*
X106342580Y-170369288D01*
X106456708Y-170435180D01*
X106584002Y-170469288D01*
X106584004Y-170469288D01*
X106715784Y-170469288D01*
X106715786Y-170469288D01*
X106843080Y-170435180D01*
X106957208Y-170369288D01*
X107050394Y-170276102D01*
X107116286Y-170161974D01*
X107150394Y-170034680D01*
X107150394Y-169902896D01*
X107116286Y-169775602D01*
X107050394Y-169661474D01*
X106957208Y-169568288D01*
X106900144Y-169535342D01*
X106843081Y-169502396D01*
X106754387Y-169478631D01*
X106715786Y-169468288D01*
X106584002Y-169468288D01*
X106456706Y-169502396D01*
X106342580Y-169568288D01*
X106342577Y-169568290D01*
X106249396Y-169661471D01*
X106249394Y-169661474D01*
X106183502Y-169775600D01*
X106161914Y-169856169D01*
X106149394Y-169902896D01*
X103675070Y-169902896D01*
X103726129Y-169851837D01*
X103792021Y-169737709D01*
X103826129Y-169610415D01*
X103826129Y-169478631D01*
X103792021Y-169351337D01*
X103726129Y-169237209D01*
X103632943Y-169144023D01*
X103575879Y-169111077D01*
X103518816Y-169078131D01*
X103455168Y-169061077D01*
X103391521Y-169044023D01*
X103259737Y-169044023D01*
X103132441Y-169078131D01*
X103018315Y-169144023D01*
X103018312Y-169144025D01*
X102925131Y-169237206D01*
X102925129Y-169237209D01*
X102859237Y-169351335D01*
X102825129Y-169478631D01*
X98526129Y-169478631D01*
X98492021Y-169351337D01*
X98426129Y-169237209D01*
X98332943Y-169144023D01*
X98275879Y-169111077D01*
X98218816Y-169078131D01*
X98155168Y-169061077D01*
X98091521Y-169044023D01*
X97959737Y-169044023D01*
X97832441Y-169078131D01*
X97718315Y-169144023D01*
X97718312Y-169144025D01*
X97688310Y-169174028D01*
X97626987Y-169207513D01*
X97557295Y-169202529D01*
X97512948Y-169174028D01*
X97482945Y-169144025D01*
X97482943Y-169144023D01*
X97425879Y-169111077D01*
X97368816Y-169078131D01*
X97305168Y-169061077D01*
X97241521Y-169044023D01*
X97109737Y-169044023D01*
X96982441Y-169078131D01*
X96868315Y-169144023D01*
X96868312Y-169144025D01*
X96775131Y-169237206D01*
X96775129Y-169237209D01*
X96709237Y-169351335D01*
X96675129Y-169478631D01*
X77039347Y-169478631D01*
X77039347Y-169348670D01*
X76998977Y-169145715D01*
X76919788Y-168954537D01*
X76804824Y-168782480D01*
X76804822Y-168782477D01*
X76658504Y-168636159D01*
X76572473Y-168578676D01*
X76486445Y-168521194D01*
X76295267Y-168442005D01*
X76295259Y-168442003D01*
X76092316Y-168401635D01*
X76092312Y-168401635D01*
X75885382Y-168401635D01*
X75885377Y-168401635D01*
X75682434Y-168442003D01*
X75682426Y-168442005D01*
X75491250Y-168521193D01*
X75319189Y-168636159D01*
X75172871Y-168782477D01*
X75057905Y-168954538D01*
X74978717Y-169145714D01*
X74978715Y-169145722D01*
X74938347Y-169348665D01*
X72548461Y-169348665D01*
X72491817Y-169279644D01*
X72453127Y-169232500D01*
X72450604Y-169229321D01*
X71765817Y-168336889D01*
X71763400Y-168333630D01*
X71251127Y-167618753D01*
X71203732Y-167552613D01*
X73142295Y-167552613D01*
X73142295Y-167759552D01*
X73182663Y-167962495D01*
X73182665Y-167962503D01*
X73261853Y-168153679D01*
X73376819Y-168325740D01*
X73523137Y-168472058D01*
X73523140Y-168472060D01*
X73695197Y-168587024D01*
X73886375Y-168666213D01*
X74089325Y-168706582D01*
X74089329Y-168706583D01*
X74089330Y-168706583D01*
X74296261Y-168706583D01*
X74296262Y-168706582D01*
X74499215Y-168666213D01*
X74690393Y-168587024D01*
X74862450Y-168472060D01*
X75008772Y-168325738D01*
X75123736Y-168153681D01*
X75202925Y-167962503D01*
X75216787Y-167892810D01*
X75228023Y-167836328D01*
X81410072Y-167836328D01*
X81410072Y-167968111D01*
X81444180Y-168095407D01*
X81477126Y-168152470D01*
X81510072Y-168209534D01*
X81603258Y-168302720D01*
X81717386Y-168368612D01*
X81844680Y-168402720D01*
X81844682Y-168402720D01*
X81976462Y-168402720D01*
X81976464Y-168402720D01*
X82103758Y-168368612D01*
X82217886Y-168302720D01*
X82311072Y-168209534D01*
X82376964Y-168095406D01*
X82411072Y-167968112D01*
X82411072Y-167836328D01*
X82376964Y-167709034D01*
X82311072Y-167594906D01*
X82217886Y-167501720D01*
X82160822Y-167468774D01*
X82103759Y-167435828D01*
X82029527Y-167415938D01*
X81976464Y-167401720D01*
X81844680Y-167401720D01*
X81717384Y-167435828D01*
X81603258Y-167501720D01*
X81603255Y-167501722D01*
X81510074Y-167594903D01*
X81510072Y-167594906D01*
X81444180Y-167709032D01*
X81410072Y-167836328D01*
X75228023Y-167836328D01*
X75234446Y-167804039D01*
X75234451Y-167804011D01*
X75243295Y-167759546D01*
X75243295Y-167552617D01*
X75243294Y-167552613D01*
X75216108Y-167415938D01*
X75202925Y-167349663D01*
X75123736Y-167158485D01*
X75008772Y-166986428D01*
X75008770Y-166986425D01*
X74862452Y-166840107D01*
X74776421Y-166782624D01*
X74690393Y-166725142D01*
X74675159Y-166718832D01*
X74499215Y-166645953D01*
X74499207Y-166645951D01*
X74296264Y-166605583D01*
X74296260Y-166605583D01*
X74089330Y-166605583D01*
X74089325Y-166605583D01*
X73886382Y-166645951D01*
X73886374Y-166645953D01*
X73695198Y-166725141D01*
X73523137Y-166840107D01*
X73376819Y-166986425D01*
X73261853Y-167158486D01*
X73182665Y-167349662D01*
X73182663Y-167349670D01*
X73142295Y-167552613D01*
X71203732Y-167552613D01*
X71135744Y-167457737D01*
X71108179Y-167419270D01*
X71105873Y-167415938D01*
X70721114Y-166840107D01*
X70480908Y-166480614D01*
X70478715Y-166477212D01*
X69900120Y-165546753D01*
X121497768Y-165546753D01*
X121497768Y-165743598D01*
X121528558Y-165938002D01*
X121589385Y-166125205D01*
X121633525Y-166211834D01*
X121678744Y-166300581D01*
X121794440Y-166459822D01*
X121933622Y-166599004D01*
X122092863Y-166714700D01*
X122113355Y-166725141D01*
X122268238Y-166804058D01*
X122268240Y-166804058D01*
X122268243Y-166804060D01*
X122368585Y-166836663D01*
X122455441Y-166864885D01*
X122649846Y-166895676D01*
X122649851Y-166895676D01*
X122846690Y-166895676D01*
X123041094Y-166864885D01*
X123117355Y-166840106D01*
X123228293Y-166804060D01*
X123403673Y-166714700D01*
X123562914Y-166599004D01*
X123702096Y-166459822D01*
X123817792Y-166300581D01*
X123907152Y-166125201D01*
X123967977Y-165938002D01*
X123976589Y-165883629D01*
X123998768Y-165743598D01*
X123998768Y-165714335D01*
X124459171Y-165714335D01*
X124459171Y-165883634D01*
X124485652Y-166050832D01*
X124537967Y-166211838D01*
X124614823Y-166362673D01*
X124714319Y-166499619D01*
X124714323Y-166499624D01*
X124834031Y-166619332D01*
X124834036Y-166619336D01*
X124870669Y-166645951D01*
X124970986Y-166718835D01*
X125067096Y-166767805D01*
X125121817Y-166795688D01*
X125121819Y-166795688D01*
X125121822Y-166795690D01*
X125208121Y-166823730D01*
X125282823Y-166848003D01*
X125450022Y-166874485D01*
X125450027Y-166874485D01*
X125619320Y-166874485D01*
X125786518Y-166848003D01*
X125810822Y-166840106D01*
X125947520Y-166795690D01*
X126098356Y-166718835D01*
X126235312Y-166619331D01*
X126355017Y-166499626D01*
X126454521Y-166362670D01*
X126531376Y-166211834D01*
X126583689Y-166050832D01*
X126585832Y-166037301D01*
X126610171Y-165883634D01*
X126610171Y-165714335D01*
X126583689Y-165547137D01*
X126531374Y-165386131D01*
X126503491Y-165331410D01*
X126454521Y-165235300D01*
X126403555Y-165165151D01*
X126355022Y-165098350D01*
X126355018Y-165098345D01*
X126235310Y-164978637D01*
X126235305Y-164978633D01*
X126098359Y-164879137D01*
X126098358Y-164879136D01*
X126098356Y-164879135D01*
X126051253Y-164855135D01*
X125947524Y-164802281D01*
X125786518Y-164749966D01*
X125619320Y-164723485D01*
X125619315Y-164723485D01*
X125450027Y-164723485D01*
X125450022Y-164723485D01*
X125282823Y-164749966D01*
X125121817Y-164802281D01*
X124970982Y-164879137D01*
X124834036Y-164978633D01*
X124834031Y-164978637D01*
X124714323Y-165098345D01*
X124714319Y-165098350D01*
X124614823Y-165235296D01*
X124537967Y-165386131D01*
X124485652Y-165547137D01*
X124459171Y-165714335D01*
X123998768Y-165714335D01*
X123998768Y-165546753D01*
X123967977Y-165352349D01*
X123907150Y-165165146D01*
X123860011Y-165072631D01*
X123817792Y-164989771D01*
X123702096Y-164830530D01*
X123562914Y-164691348D01*
X123403673Y-164575652D01*
X123228297Y-164486293D01*
X123041094Y-164425466D01*
X122846690Y-164394676D01*
X122846685Y-164394676D01*
X122649851Y-164394676D01*
X122649846Y-164394676D01*
X122455441Y-164425466D01*
X122268238Y-164486293D01*
X122092862Y-164575652D01*
X122002009Y-164641661D01*
X121933622Y-164691348D01*
X121933620Y-164691350D01*
X121933619Y-164691350D01*
X121794442Y-164830527D01*
X121794442Y-164830528D01*
X121794440Y-164830530D01*
X121759126Y-164879135D01*
X121678744Y-164989770D01*
X121589385Y-165165146D01*
X121528558Y-165352349D01*
X121497768Y-165546753D01*
X69900120Y-165546753D01*
X69884698Y-165521953D01*
X69882620Y-165518487D01*
X69806207Y-165386136D01*
X69371053Y-164632427D01*
X78251426Y-164632427D01*
X78251426Y-164764211D01*
X78261627Y-164802281D01*
X78285534Y-164891506D01*
X78318480Y-164948569D01*
X78351426Y-165005633D01*
X78444612Y-165098819D01*
X78558740Y-165164711D01*
X78686034Y-165198819D01*
X78686036Y-165198819D01*
X78817816Y-165198819D01*
X78817818Y-165198819D01*
X78945112Y-165164711D01*
X79059240Y-165098819D01*
X79152426Y-165005633D01*
X79218318Y-164891505D01*
X79252426Y-164764211D01*
X79252426Y-164632427D01*
X79218318Y-164505133D01*
X79152426Y-164391005D01*
X79059240Y-164297819D01*
X79002176Y-164264873D01*
X78945113Y-164231927D01*
X78881465Y-164214873D01*
X78817818Y-164197819D01*
X78686034Y-164197819D01*
X78558738Y-164231927D01*
X78444612Y-164297819D01*
X78444609Y-164297821D01*
X78351428Y-164391002D01*
X78351426Y-164391005D01*
X78285534Y-164505131D01*
X78251426Y-164632427D01*
X69371053Y-164632427D01*
X69320158Y-164544275D01*
X69318215Y-164540778D01*
X68787940Y-163548702D01*
X68786086Y-163545093D01*
X68288561Y-162536213D01*
X68286826Y-162532545D01*
X68188132Y-162314723D01*
X67822569Y-161507907D01*
X67820963Y-161504201D01*
X67814675Y-161489021D01*
X67808070Y-161473074D01*
X75046819Y-161473074D01*
X75046819Y-161604857D01*
X75080927Y-161732153D01*
X75091435Y-161750353D01*
X75146819Y-161846280D01*
X75240005Y-161939466D01*
X75354133Y-162005358D01*
X75481427Y-162039466D01*
X75481429Y-162039466D01*
X75613209Y-162039466D01*
X75613211Y-162039466D01*
X75740505Y-162005358D01*
X75854633Y-161939466D01*
X75947819Y-161846280D01*
X75964597Y-161817220D01*
X126709171Y-161817220D01*
X126709171Y-161986519D01*
X126735652Y-162153717D01*
X126787967Y-162314723D01*
X126864823Y-162465558D01*
X126964319Y-162602504D01*
X126964323Y-162602509D01*
X127084031Y-162722217D01*
X127084036Y-162722221D01*
X127203488Y-162809007D01*
X127220986Y-162821720D01*
X127317096Y-162870690D01*
X127371817Y-162898573D01*
X127371819Y-162898573D01*
X127371822Y-162898575D01*
X127458121Y-162926615D01*
X127532823Y-162950888D01*
X127700022Y-162977370D01*
X127700027Y-162977370D01*
X127869320Y-162977370D01*
X128036518Y-162950888D01*
X128197520Y-162898575D01*
X128348356Y-162821720D01*
X128485312Y-162722216D01*
X128605017Y-162602511D01*
X128704521Y-162465555D01*
X128781376Y-162314719D01*
X128833689Y-162153717D01*
X128860171Y-161986519D01*
X128860171Y-161817220D01*
X128833689Y-161650022D01*
X128787518Y-161507924D01*
X128781376Y-161489021D01*
X128781374Y-161489018D01*
X128781374Y-161489016D01*
X128753491Y-161434295D01*
X128704521Y-161338185D01*
X128627121Y-161231652D01*
X128605022Y-161201235D01*
X128605018Y-161201230D01*
X128485310Y-161081522D01*
X128485305Y-161081518D01*
X128348359Y-160982022D01*
X128348358Y-160982021D01*
X128348356Y-160982020D01*
X128301253Y-160958020D01*
X128197524Y-160905166D01*
X128036518Y-160852851D01*
X127869320Y-160826370D01*
X127869315Y-160826370D01*
X127700027Y-160826370D01*
X127700022Y-160826370D01*
X127532823Y-160852851D01*
X127371817Y-160905166D01*
X127220982Y-160982022D01*
X127084036Y-161081518D01*
X127084031Y-161081522D01*
X126964323Y-161201230D01*
X126964319Y-161201235D01*
X126864823Y-161338181D01*
X126787967Y-161489016D01*
X126735652Y-161650022D01*
X126709171Y-161817220D01*
X75964597Y-161817220D01*
X76013711Y-161732152D01*
X76047819Y-161604858D01*
X76047819Y-161473074D01*
X76013711Y-161345780D01*
X75947819Y-161231652D01*
X75854633Y-161138466D01*
X75797569Y-161105520D01*
X75740506Y-161072574D01*
X75676858Y-161055520D01*
X75613211Y-161038466D01*
X75481427Y-161038466D01*
X75354131Y-161072574D01*
X75240005Y-161138466D01*
X75240002Y-161138468D01*
X75146821Y-161231649D01*
X75146819Y-161231652D01*
X75080927Y-161345778D01*
X75046819Y-161473074D01*
X67808070Y-161473074D01*
X67390482Y-160464928D01*
X67388993Y-160461159D01*
X67032782Y-159514728D01*
X67018174Y-159475915D01*
X125002768Y-159475915D01*
X125002768Y-159672760D01*
X125033558Y-159867164D01*
X125094385Y-160054367D01*
X125183744Y-160229743D01*
X125299440Y-160388984D01*
X125438622Y-160528166D01*
X125597863Y-160643862D01*
X125680723Y-160686081D01*
X125773238Y-160733220D01*
X125773240Y-160733220D01*
X125773243Y-160733222D01*
X125873585Y-160765825D01*
X125960441Y-160794047D01*
X126154846Y-160824838D01*
X126154851Y-160824838D01*
X126351690Y-160824838D01*
X126546094Y-160794047D01*
X126733293Y-160733222D01*
X126908673Y-160643862D01*
X127067914Y-160528166D01*
X127207096Y-160388984D01*
X127322792Y-160229743D01*
X127412152Y-160054363D01*
X127472977Y-159867164D01*
X127503768Y-159672760D01*
X127503768Y-159475915D01*
X127472977Y-159281511D01*
X127412150Y-159094308D01*
X127361504Y-158994910D01*
X127322792Y-158918933D01*
X127207096Y-158759692D01*
X127067914Y-158620510D01*
X126908673Y-158504814D01*
X126733297Y-158415455D01*
X126546094Y-158354628D01*
X126351690Y-158323838D01*
X126351685Y-158323838D01*
X126154851Y-158323838D01*
X126154846Y-158323838D01*
X125960441Y-158354628D01*
X125773238Y-158415455D01*
X125597862Y-158504814D01*
X125521492Y-158560301D01*
X125438622Y-158620510D01*
X125438620Y-158620512D01*
X125438619Y-158620512D01*
X125299442Y-158759689D01*
X125299442Y-158759690D01*
X125299440Y-158759692D01*
X125268902Y-158801724D01*
X125183744Y-158918932D01*
X125094385Y-159094308D01*
X125033558Y-159281511D01*
X125002768Y-159475915D01*
X67018174Y-159475915D01*
X66992758Y-159408387D01*
X66991391Y-159404566D01*
X66670839Y-158460250D01*
X66660068Y-158428519D01*
X91676999Y-158428519D01*
X91676999Y-158560302D01*
X91711107Y-158687598D01*
X91744053Y-158744661D01*
X91776999Y-158801725D01*
X91870185Y-158894911D01*
X91984313Y-158960803D01*
X92111607Y-158994911D01*
X92111609Y-158994911D01*
X92243389Y-158994911D01*
X92243391Y-158994911D01*
X92370685Y-158960803D01*
X92484813Y-158894911D01*
X92577999Y-158801725D01*
X92643891Y-158687597D01*
X92677999Y-158560303D01*
X92677999Y-158428519D01*
X92643891Y-158301225D01*
X92577999Y-158187097D01*
X92484813Y-158093911D01*
X92427749Y-158060965D01*
X92370686Y-158028019D01*
X92304978Y-158010413D01*
X92243391Y-157993911D01*
X92111607Y-157993911D01*
X91984311Y-158028019D01*
X91870185Y-158093911D01*
X91870182Y-158093913D01*
X91777001Y-158187094D01*
X91776999Y-158187097D01*
X91711107Y-158301223D01*
X91676999Y-158428519D01*
X66660068Y-158428519D01*
X66634985Y-158354629D01*
X66629801Y-158339359D01*
X66628578Y-158335553D01*
X66384366Y-157530493D01*
X90778973Y-157530493D01*
X90778973Y-157662276D01*
X90813081Y-157789572D01*
X90846027Y-157846635D01*
X90878973Y-157903699D01*
X90972159Y-157996885D01*
X91086287Y-158062777D01*
X91213581Y-158096885D01*
X91213583Y-158096885D01*
X91345363Y-158096885D01*
X91345365Y-158096885D01*
X91472659Y-158062777D01*
X91586787Y-157996885D01*
X91679973Y-157903699D01*
X91745865Y-157789571D01*
X91779973Y-157662277D01*
X91779973Y-157530493D01*
X91745865Y-157403199D01*
X91741330Y-157395345D01*
X91716210Y-157351836D01*
X91679973Y-157289071D01*
X91586787Y-157195885D01*
X91529723Y-157162939D01*
X91472660Y-157129993D01*
X91399585Y-157110413D01*
X91345365Y-157095885D01*
X91213581Y-157095885D01*
X91086285Y-157129993D01*
X90972159Y-157195885D01*
X90972156Y-157195887D01*
X90878975Y-157289068D01*
X90878973Y-157289071D01*
X90813081Y-157403197D01*
X90778973Y-157530493D01*
X66384366Y-157530493D01*
X66302015Y-157259019D01*
X66300922Y-157255193D01*
X66192710Y-156851337D01*
X66140486Y-156656433D01*
X66134064Y-156632467D01*
X89880948Y-156632467D01*
X89880948Y-156764251D01*
X89886118Y-156783545D01*
X89915056Y-156891546D01*
X89936469Y-156928633D01*
X89980948Y-157005673D01*
X90074134Y-157098859D01*
X90188262Y-157164751D01*
X90315556Y-157198859D01*
X90315558Y-157198859D01*
X90447338Y-157198859D01*
X90447340Y-157198859D01*
X90574634Y-157164751D01*
X90688762Y-157098859D01*
X90781948Y-157005673D01*
X90847840Y-156891545D01*
X90881948Y-156764251D01*
X90881948Y-156632467D01*
X90847840Y-156505173D01*
X90781948Y-156391045D01*
X90688762Y-156297859D01*
X90631698Y-156264913D01*
X90574635Y-156231967D01*
X90510987Y-156214913D01*
X90447340Y-156197859D01*
X90315556Y-156197859D01*
X90188260Y-156231967D01*
X90074134Y-156297859D01*
X90074131Y-156297861D01*
X89980950Y-156391042D01*
X89980948Y-156391045D01*
X89915056Y-156505171D01*
X89904833Y-156543326D01*
X89880948Y-156632467D01*
X66134064Y-156632467D01*
X66009772Y-156168603D01*
X66008786Y-156164667D01*
X65964732Y-155975731D01*
X65803446Y-155284012D01*
X93721260Y-155284012D01*
X93721260Y-155415795D01*
X93755368Y-155543091D01*
X93788314Y-155600154D01*
X93821260Y-155657218D01*
X93914446Y-155750404D01*
X93970116Y-155782545D01*
X93979540Y-155787986D01*
X94027756Y-155838553D01*
X94040979Y-155907160D01*
X94015917Y-155970857D01*
X94012182Y-155975723D01*
X93946286Y-156089857D01*
X93912178Y-156217153D01*
X93912178Y-156348936D01*
X93946286Y-156476232D01*
X93971827Y-156520469D01*
X94012178Y-156590359D01*
X94105364Y-156683545D01*
X94198307Y-156737206D01*
X94219488Y-156749435D01*
X94219492Y-156749437D01*
X94346786Y-156783545D01*
X94346788Y-156783545D01*
X94478568Y-156783545D01*
X94478570Y-156783545D01*
X94605864Y-156749437D01*
X94605871Y-156749432D01*
X94613378Y-156746325D01*
X94614143Y-156748172D01*
X94671531Y-156734239D01*
X94737562Y-156757080D01*
X94780763Y-156811994D01*
X94787416Y-156881546D01*
X94785428Y-156890192D01*
X94775129Y-156928629D01*
X94775129Y-157060414D01*
X94809237Y-157187710D01*
X94815674Y-157198859D01*
X94875129Y-157301837D01*
X94968315Y-157395023D01*
X94968321Y-157395026D01*
X94968736Y-157395345D01*
X94969003Y-157395711D01*
X94974062Y-157400770D01*
X94973273Y-157401558D01*
X95009940Y-157451772D01*
X95014097Y-157521518D01*
X94980934Y-157581404D01*
X94925129Y-157637209D01*
X94859237Y-157751335D01*
X94825129Y-157878631D01*
X94825129Y-158010414D01*
X94859237Y-158137710D01*
X94887751Y-158187097D01*
X94925129Y-158251837D01*
X95018315Y-158345023D01*
X95132443Y-158410915D01*
X95259737Y-158445023D01*
X95259739Y-158445023D01*
X95391519Y-158445023D01*
X95391521Y-158445023D01*
X95518815Y-158410915D01*
X95632943Y-158345023D01*
X95726129Y-158251837D01*
X95792021Y-158137709D01*
X95826129Y-158010415D01*
X95826129Y-157878631D01*
X95792021Y-157751337D01*
X95726129Y-157637209D01*
X95632943Y-157544023D01*
X95632941Y-157544022D01*
X95632519Y-157543698D01*
X95632251Y-157543331D01*
X95627196Y-157538276D01*
X95627984Y-157537487D01*
X95591316Y-157487271D01*
X95587161Y-157417525D01*
X95620321Y-157357644D01*
X95676129Y-157301837D01*
X95742021Y-157187709D01*
X95776129Y-157060415D01*
X95776129Y-156978631D01*
X131212629Y-156978631D01*
X131212629Y-157110414D01*
X131246737Y-157237710D01*
X131259066Y-157259064D01*
X131312629Y-157351837D01*
X131405815Y-157445023D01*
X131519943Y-157510915D01*
X131647237Y-157545023D01*
X131647239Y-157545023D01*
X131779019Y-157545023D01*
X131779021Y-157545023D01*
X131906315Y-157510915D01*
X132020443Y-157445023D01*
X132113629Y-157351837D01*
X132179521Y-157237709D01*
X132213629Y-157110415D01*
X132213629Y-156978631D01*
X132179521Y-156851337D01*
X132113629Y-156737209D01*
X132020443Y-156644023D01*
X131963379Y-156611077D01*
X131906316Y-156578131D01*
X131842668Y-156561077D01*
X131779021Y-156544023D01*
X131647237Y-156544023D01*
X131519941Y-156578131D01*
X131405815Y-156644023D01*
X131405812Y-156644025D01*
X131312631Y-156737206D01*
X131312629Y-156737209D01*
X131246737Y-156851335D01*
X131212629Y-156978631D01*
X95776129Y-156978631D01*
X95776129Y-156928631D01*
X95742021Y-156801337D01*
X95676129Y-156687209D01*
X95582943Y-156594023D01*
X95496341Y-156544023D01*
X95468816Y-156528131D01*
X95405168Y-156511077D01*
X95341521Y-156494023D01*
X95209737Y-156494023D01*
X95082443Y-156528131D01*
X95082442Y-156528131D01*
X95082440Y-156528132D01*
X95074929Y-156531243D01*
X95074165Y-156529399D01*
X95016744Y-156543326D01*
X94950719Y-156520469D01*
X94907532Y-156465545D01*
X94900895Y-156395991D01*
X94902869Y-156387410D01*
X94913178Y-156348937D01*
X94913178Y-156217153D01*
X94879070Y-156089859D01*
X94813178Y-155975731D01*
X94719992Y-155882545D01*
X94719990Y-155882544D01*
X94719988Y-155882542D01*
X94654897Y-155844962D01*
X94606681Y-155794395D01*
X94593459Y-155725788D01*
X94618527Y-155662081D01*
X94622253Y-155657224D01*
X94622260Y-155657218D01*
X94688152Y-155543090D01*
X94722260Y-155415796D01*
X94722260Y-155284012D01*
X94688152Y-155156718D01*
X94622260Y-155042590D01*
X94529074Y-154949404D01*
X94472010Y-154916458D01*
X94414947Y-154883512D01*
X94351299Y-154866458D01*
X94287652Y-154849404D01*
X94155868Y-154849404D01*
X94028572Y-154883512D01*
X93914446Y-154949404D01*
X93914443Y-154949406D01*
X93821262Y-155042587D01*
X93821260Y-155042590D01*
X93755368Y-155156716D01*
X93721260Y-155284012D01*
X65803446Y-155284012D01*
X65753338Y-155069110D01*
X65752501Y-155065235D01*
X65654601Y-154573061D01*
X70806330Y-154573061D01*
X70806330Y-154704844D01*
X70840438Y-154832140D01*
X70850406Y-154849404D01*
X70906330Y-154946267D01*
X70999516Y-155039453D01*
X71113644Y-155105345D01*
X71240938Y-155139453D01*
X71240940Y-155139453D01*
X71372720Y-155139453D01*
X71372722Y-155139453D01*
X71500016Y-155105345D01*
X71614144Y-155039453D01*
X71707330Y-154946267D01*
X71773222Y-154832139D01*
X71807330Y-154704845D01*
X71807330Y-154678631D01*
X118325129Y-154678631D01*
X118325129Y-154810414D01*
X118359237Y-154937710D01*
X118364179Y-154946269D01*
X118425129Y-155051837D01*
X118518315Y-155145023D01*
X118632443Y-155210915D01*
X118759737Y-155245023D01*
X118759739Y-155245023D01*
X118891519Y-155245023D01*
X118891521Y-155245023D01*
X119018815Y-155210915D01*
X119132943Y-155145023D01*
X119226129Y-155051837D01*
X119292021Y-154937709D01*
X119326129Y-154810415D01*
X119326129Y-154678631D01*
X131212629Y-154678631D01*
X131212629Y-154810414D01*
X131246737Y-154937710D01*
X131251679Y-154946269D01*
X131312629Y-155051837D01*
X131405815Y-155145023D01*
X131519943Y-155210915D01*
X131647237Y-155245023D01*
X131647239Y-155245023D01*
X131779019Y-155245023D01*
X131779021Y-155245023D01*
X131906315Y-155210915D01*
X132020443Y-155145023D01*
X132113629Y-155051837D01*
X132179521Y-154937709D01*
X132213629Y-154810415D01*
X132213629Y-154678631D01*
X132179521Y-154551337D01*
X132113629Y-154437209D01*
X132020443Y-154344023D01*
X131963379Y-154311077D01*
X131906316Y-154278131D01*
X131842668Y-154261077D01*
X131779021Y-154244023D01*
X131647237Y-154244023D01*
X131519941Y-154278131D01*
X131405815Y-154344023D01*
X131405812Y-154344025D01*
X131312631Y-154437206D01*
X131312629Y-154437209D01*
X131246737Y-154551335D01*
X131212629Y-154678631D01*
X119326129Y-154678631D01*
X119292021Y-154551337D01*
X119226129Y-154437209D01*
X119132943Y-154344023D01*
X119075879Y-154311077D01*
X119018816Y-154278131D01*
X118955168Y-154261077D01*
X118891521Y-154244023D01*
X118759737Y-154244023D01*
X118632441Y-154278131D01*
X118518315Y-154344023D01*
X118518312Y-154344025D01*
X118425131Y-154437206D01*
X118425129Y-154437209D01*
X118359237Y-154551335D01*
X118325129Y-154678631D01*
X71807330Y-154678631D01*
X71807330Y-154573061D01*
X71773222Y-154445767D01*
X71707330Y-154331639D01*
X71614144Y-154238453D01*
X71557080Y-154205507D01*
X71500017Y-154172561D01*
X71436369Y-154155507D01*
X71372722Y-154138453D01*
X71240938Y-154138453D01*
X71113642Y-154172561D01*
X70999516Y-154238453D01*
X70999513Y-154238455D01*
X70906332Y-154331636D01*
X70906330Y-154331639D01*
X70840438Y-154445765D01*
X70806330Y-154573061D01*
X65654601Y-154573061D01*
X65533030Y-153961880D01*
X65532616Y-153959604D01*
X110783024Y-153959604D01*
X110783024Y-154091387D01*
X110817132Y-154218683D01*
X110850078Y-154275746D01*
X110883024Y-154332810D01*
X110976210Y-154425996D01*
X111090338Y-154491888D01*
X111217632Y-154525996D01*
X111217634Y-154525996D01*
X111349414Y-154525996D01*
X111349416Y-154525996D01*
X111476710Y-154491888D01*
X111590838Y-154425996D01*
X111684024Y-154332810D01*
X111749916Y-154218682D01*
X111784024Y-154091388D01*
X111784024Y-153959604D01*
X111749916Y-153832310D01*
X111684024Y-153718182D01*
X111590838Y-153624996D01*
X111533774Y-153592050D01*
X111476711Y-153559104D01*
X111413063Y-153542050D01*
X111349416Y-153524996D01*
X111217632Y-153524996D01*
X111090336Y-153559104D01*
X110976210Y-153624996D01*
X110976207Y-153624998D01*
X110883026Y-153718179D01*
X110883024Y-153718182D01*
X110817132Y-153832308D01*
X110783024Y-153959604D01*
X65532616Y-153959604D01*
X65532318Y-153957961D01*
X65508040Y-153810914D01*
X65420160Y-153278631D01*
X119225129Y-153278631D01*
X119225129Y-153410414D01*
X119259237Y-153537710D01*
X119271589Y-153559104D01*
X119325129Y-153651837D01*
X119418315Y-153745023D01*
X119532443Y-153810915D01*
X119659737Y-153845023D01*
X119659739Y-153845023D01*
X119791519Y-153845023D01*
X119791521Y-153845023D01*
X119918815Y-153810915D01*
X120032943Y-153745023D01*
X120126129Y-153651837D01*
X120192021Y-153537709D01*
X120226129Y-153410415D01*
X120226129Y-153278631D01*
X120192021Y-153151337D01*
X120126129Y-153037209D01*
X120032943Y-152944023D01*
X119958716Y-152901168D01*
X119918816Y-152878131D01*
X119855168Y-152861077D01*
X119791521Y-152844023D01*
X119659737Y-152844023D01*
X119532441Y-152878131D01*
X119418315Y-152944023D01*
X119418312Y-152944025D01*
X119325131Y-153037206D01*
X119325129Y-153037209D01*
X119259237Y-153151335D01*
X119225129Y-153278631D01*
X65420160Y-153278631D01*
X65349070Y-152848047D01*
X65348479Y-152844056D01*
X65347323Y-152835277D01*
X65325967Y-152673061D01*
X78819559Y-152673061D01*
X78819559Y-152804845D01*
X78830324Y-152845022D01*
X78853667Y-152932140D01*
X78886613Y-152989203D01*
X78919559Y-153046267D01*
X79012745Y-153139453D01*
X79126873Y-153205345D01*
X79254167Y-153239453D01*
X79254169Y-153239453D01*
X79385949Y-153239453D01*
X79385951Y-153239453D01*
X79513245Y-153205345D01*
X79627373Y-153139453D01*
X79720559Y-153046267D01*
X79786451Y-152932139D01*
X79820559Y-152804845D01*
X79820559Y-152673061D01*
X79786451Y-152545767D01*
X79720559Y-152431639D01*
X79627373Y-152338453D01*
X79570309Y-152305507D01*
X79523759Y-152278631D01*
X93025129Y-152278631D01*
X93025129Y-152410414D01*
X93059237Y-152537710D01*
X93077469Y-152569288D01*
X93125129Y-152651837D01*
X93218315Y-152745023D01*
X93332443Y-152810915D01*
X93459737Y-152845023D01*
X93459739Y-152845023D01*
X93591519Y-152845023D01*
X93591521Y-152845023D01*
X93718815Y-152810915D01*
X93832943Y-152745023D01*
X93926129Y-152651837D01*
X93992021Y-152537709D01*
X94026129Y-152410415D01*
X94026129Y-152278631D01*
X93992021Y-152151337D01*
X93926129Y-152037209D01*
X93832943Y-151944023D01*
X93775879Y-151911077D01*
X93718816Y-151878131D01*
X93655168Y-151861077D01*
X93591521Y-151844023D01*
X93459737Y-151844023D01*
X93332441Y-151878131D01*
X93218315Y-151944023D01*
X93218312Y-151944025D01*
X93125131Y-152037206D01*
X93125129Y-152037209D01*
X93059237Y-152151335D01*
X93025129Y-152278631D01*
X79523759Y-152278631D01*
X79513246Y-152272561D01*
X79449598Y-152255507D01*
X79385951Y-152238453D01*
X79254167Y-152238453D01*
X79126871Y-152272561D01*
X79012745Y-152338453D01*
X79012742Y-152338455D01*
X78919561Y-152431636D01*
X78919559Y-152431639D01*
X78853667Y-152545765D01*
X78825246Y-152651836D01*
X78819559Y-152673061D01*
X65325967Y-152673061D01*
X65201648Y-151728766D01*
X65201195Y-151724834D01*
X65186247Y-151573061D01*
X81306330Y-151573061D01*
X81306330Y-151704845D01*
X81311673Y-151724784D01*
X81340438Y-151832140D01*
X81373384Y-151889203D01*
X81406330Y-151946267D01*
X81499516Y-152039453D01*
X81613644Y-152105345D01*
X81740938Y-152139453D01*
X81740940Y-152139453D01*
X81872720Y-152139453D01*
X81872722Y-152139453D01*
X82000016Y-152105345D01*
X82114144Y-152039453D01*
X82207330Y-151946267D01*
X82273222Y-151832139D01*
X82307330Y-151704845D01*
X82307330Y-151573061D01*
X82273222Y-151445767D01*
X82272792Y-151445023D01*
X82251430Y-151408022D01*
X82207330Y-151331639D01*
X82114144Y-151238453D01*
X82057080Y-151205507D01*
X82000017Y-151172561D01*
X81936369Y-151155507D01*
X81872722Y-151138453D01*
X81740938Y-151138453D01*
X81613642Y-151172561D01*
X81499516Y-151238453D01*
X81499513Y-151238455D01*
X81406332Y-151331636D01*
X81406330Y-151331639D01*
X81340438Y-151445765D01*
X81313843Y-151545023D01*
X81306330Y-151573061D01*
X65186247Y-151573061D01*
X65124057Y-150941631D01*
X92225129Y-150941631D01*
X92225129Y-151073415D01*
X92235043Y-151110414D01*
X92259237Y-151200710D01*
X92281030Y-151238455D01*
X92325129Y-151314837D01*
X92418315Y-151408023D01*
X92532443Y-151473915D01*
X92659737Y-151508023D01*
X92659739Y-151508023D01*
X92791519Y-151508023D01*
X92791521Y-151508023D01*
X92918815Y-151473915D01*
X93032943Y-151408023D01*
X93126129Y-151314837D01*
X93192021Y-151200709D01*
X93226129Y-151073415D01*
X93226129Y-150941631D01*
X93192021Y-150814337D01*
X93126129Y-150700209D01*
X93032943Y-150607023D01*
X92936134Y-150551130D01*
X92918816Y-150541131D01*
X92855168Y-150524077D01*
X92791521Y-150507023D01*
X92659737Y-150507023D01*
X92532441Y-150541131D01*
X92418315Y-150607023D01*
X92418312Y-150607025D01*
X92325131Y-150700206D01*
X92325129Y-150700209D01*
X92259237Y-150814335D01*
X92238982Y-150889930D01*
X92225129Y-150941631D01*
X65124057Y-150941631D01*
X65090933Y-150605317D01*
X65090603Y-150601276D01*
X65082564Y-150478631D01*
X108225129Y-150478631D01*
X108225129Y-150610415D01*
X108236039Y-150651132D01*
X108259237Y-150737710D01*
X108266170Y-150749718D01*
X108325129Y-150851837D01*
X108418315Y-150945023D01*
X108532443Y-151010915D01*
X108659737Y-151045023D01*
X108659739Y-151045023D01*
X108791519Y-151045023D01*
X108791521Y-151045023D01*
X108918815Y-151010915D01*
X109032943Y-150945023D01*
X109037948Y-150940018D01*
X109099271Y-150906533D01*
X109168963Y-150911517D01*
X109213310Y-150940018D01*
X109218315Y-150945023D01*
X109332443Y-151010915D01*
X109459737Y-151045023D01*
X109459739Y-151045023D01*
X109591519Y-151045023D01*
X109591521Y-151045023D01*
X109718815Y-151010915D01*
X109762423Y-150985738D01*
X111518022Y-150985738D01*
X111518022Y-151117522D01*
X111532770Y-151172561D01*
X111552130Y-151244817D01*
X111554807Y-151249453D01*
X111618022Y-151358944D01*
X111711208Y-151452130D01*
X111825336Y-151518022D01*
X111952630Y-151552130D01*
X111952632Y-151552130D01*
X112084412Y-151552130D01*
X112084414Y-151552130D01*
X112211708Y-151518022D01*
X112325836Y-151452130D01*
X112419022Y-151358944D01*
X112484914Y-151244816D01*
X112519022Y-151117522D01*
X112519022Y-150985738D01*
X112517118Y-150978631D01*
X119025129Y-150978631D01*
X119025129Y-151110415D01*
X119031573Y-151134465D01*
X119059237Y-151237710D01*
X119066017Y-151249453D01*
X119125129Y-151351837D01*
X119218315Y-151445023D01*
X119327434Y-151508023D01*
X119331321Y-151510267D01*
X119379537Y-151560834D01*
X119392760Y-151629441D01*
X119366792Y-151694306D01*
X119357003Y-151705335D01*
X119300864Y-151761474D01*
X119234972Y-151875600D01*
X119216037Y-151946269D01*
X119200864Y-152002896D01*
X119200864Y-152134680D01*
X119203368Y-152144025D01*
X119234972Y-152261975D01*
X119241084Y-152272561D01*
X119300864Y-152376102D01*
X119394050Y-152469288D01*
X119508178Y-152535180D01*
X119635472Y-152569288D01*
X119635474Y-152569288D01*
X119767254Y-152569288D01*
X119767256Y-152569288D01*
X119894550Y-152535180D01*
X119992495Y-152478631D01*
X122025129Y-152478631D01*
X122025129Y-152610415D01*
X122041915Y-152673061D01*
X122059237Y-152737710D01*
X122092183Y-152794773D01*
X122125129Y-152851837D01*
X122218315Y-152945023D01*
X122332443Y-153010915D01*
X122459737Y-153045023D01*
X122459739Y-153045023D01*
X122591519Y-153045023D01*
X122591521Y-153045023D01*
X122718815Y-153010915D01*
X122832943Y-152945023D01*
X122926129Y-152851837D01*
X122992021Y-152737709D01*
X123026129Y-152610415D01*
X123026129Y-152478631D01*
X122996723Y-152368885D01*
X123800130Y-152368885D01*
X123800130Y-152500668D01*
X123834238Y-152627964D01*
X123864928Y-152681119D01*
X123900130Y-152742091D01*
X123993316Y-152835277D01*
X124107444Y-152901169D01*
X124234738Y-152935277D01*
X124234740Y-152935277D01*
X124366520Y-152935277D01*
X124366522Y-152935277D01*
X124493816Y-152901169D01*
X124607944Y-152835277D01*
X124701130Y-152742091D01*
X124767022Y-152627963D01*
X124801130Y-152500669D01*
X124801130Y-152368885D01*
X124767022Y-152241591D01*
X124701130Y-152127463D01*
X124607944Y-152034277D01*
X124550880Y-152001331D01*
X124493817Y-151968385D01*
X124411277Y-151946269D01*
X124366522Y-151934277D01*
X124234738Y-151934277D01*
X124107442Y-151968385D01*
X123993316Y-152034277D01*
X123993313Y-152034279D01*
X123900132Y-152127460D01*
X123900130Y-152127463D01*
X123834238Y-152241589D01*
X123800130Y-152368885D01*
X122996723Y-152368885D01*
X122992021Y-152351337D01*
X122926129Y-152237209D01*
X122832943Y-152144023D01*
X122765949Y-152105344D01*
X122718816Y-152078131D01*
X122655168Y-152061077D01*
X122591521Y-152044023D01*
X122459737Y-152044023D01*
X122332441Y-152078131D01*
X122218315Y-152144023D01*
X122218312Y-152144025D01*
X122125131Y-152237206D01*
X122125129Y-152237209D01*
X122059237Y-152351335D01*
X122043407Y-152410415D01*
X122025129Y-152478631D01*
X119992495Y-152478631D01*
X120008678Y-152469288D01*
X120101864Y-152376102D01*
X120167756Y-152261974D01*
X120201864Y-152134680D01*
X120201864Y-152002896D01*
X120167756Y-151875602D01*
X120101864Y-151761474D01*
X120008678Y-151668288D01*
X119895671Y-151603043D01*
X119847455Y-151552476D01*
X119834233Y-151483869D01*
X119860201Y-151419004D01*
X119869974Y-151407991D01*
X119926129Y-151351837D01*
X119992021Y-151237709D01*
X120026129Y-151110415D01*
X120026129Y-150978631D01*
X119992021Y-150851337D01*
X119926129Y-150737209D01*
X119832943Y-150644023D01*
X119762390Y-150603289D01*
X119718816Y-150578131D01*
X119647222Y-150558948D01*
X119591521Y-150544023D01*
X119459737Y-150544023D01*
X119332441Y-150578131D01*
X119218315Y-150644023D01*
X119218312Y-150644025D01*
X119125131Y-150737206D01*
X119125129Y-150737209D01*
X119059237Y-150851335D01*
X119048896Y-150889930D01*
X119025129Y-150978631D01*
X112517118Y-150978631D01*
X112484914Y-150858444D01*
X112481099Y-150851837D01*
X112476085Y-150843151D01*
X112419022Y-150744316D01*
X112325836Y-150651130D01*
X112255314Y-150610414D01*
X112211709Y-150585238D01*
X112113591Y-150558948D01*
X112084414Y-150551130D01*
X111952630Y-150551130D01*
X111825334Y-150585238D01*
X111711208Y-150651130D01*
X111711205Y-150651132D01*
X111618024Y-150744313D01*
X111618022Y-150744316D01*
X111552130Y-150858442D01*
X111529840Y-150941631D01*
X111518022Y-150985738D01*
X109762423Y-150985738D01*
X109832943Y-150945023D01*
X109926129Y-150851837D01*
X109992021Y-150737709D01*
X110026129Y-150610415D01*
X110026129Y-150478631D01*
X109992021Y-150351337D01*
X109926129Y-150237209D01*
X109832943Y-150144023D01*
X109754014Y-150098453D01*
X109718816Y-150078131D01*
X109655168Y-150061077D01*
X109591521Y-150044023D01*
X109459737Y-150044023D01*
X109332441Y-150078131D01*
X109218315Y-150144023D01*
X109218312Y-150144025D01*
X109213310Y-150149028D01*
X109151987Y-150182513D01*
X109082295Y-150177529D01*
X109037948Y-150149028D01*
X109032945Y-150144025D01*
X109032943Y-150144023D01*
X108954014Y-150098453D01*
X108918816Y-150078131D01*
X108855168Y-150061077D01*
X108791521Y-150044023D01*
X108659737Y-150044023D01*
X108532441Y-150078131D01*
X108418315Y-150144023D01*
X108418312Y-150144025D01*
X108325131Y-150237206D01*
X108325129Y-150237209D01*
X108259237Y-150351335D01*
X108252323Y-150377139D01*
X108225129Y-150478631D01*
X65082564Y-150478631D01*
X65017030Y-149478784D01*
X65016830Y-149474731D01*
X65013684Y-149378633D01*
X65013684Y-149378631D01*
X78862629Y-149378631D01*
X78862629Y-149510415D01*
X78866835Y-149526113D01*
X78896737Y-149637710D01*
X78923147Y-149683453D01*
X78962629Y-149751837D01*
X79055815Y-149845023D01*
X79169943Y-149910915D01*
X79297237Y-149945023D01*
X79297239Y-149945023D01*
X79429019Y-149945023D01*
X79429021Y-149945023D01*
X79556315Y-149910915D01*
X79670443Y-149845023D01*
X79763629Y-149751837D01*
X79829521Y-149637709D01*
X79847255Y-149571524D01*
X112932236Y-149571524D01*
X112932236Y-149703307D01*
X112966344Y-149830603D01*
X112999290Y-149887666D01*
X113032236Y-149944730D01*
X113125422Y-150037916D01*
X113239550Y-150103808D01*
X113366844Y-150137916D01*
X113366846Y-150137916D01*
X113498626Y-150137916D01*
X113498628Y-150137916D01*
X113572729Y-150118061D01*
X127615282Y-150118061D01*
X127615282Y-150249844D01*
X127649390Y-150377140D01*
X127682336Y-150434203D01*
X127715282Y-150491267D01*
X127808468Y-150584453D01*
X127922596Y-150650345D01*
X128049890Y-150684453D01*
X128049892Y-150684453D01*
X128181672Y-150684453D01*
X128181674Y-150684453D01*
X128308968Y-150650345D01*
X128423096Y-150584453D01*
X128448601Y-150558948D01*
X128509924Y-150525463D01*
X128579616Y-150530447D01*
X128635549Y-150572319D01*
X128659966Y-150637783D01*
X128660282Y-150646629D01*
X128660282Y-150749718D01*
X128699501Y-150896089D01*
X128727752Y-150945020D01*
X128775267Y-151027318D01*
X128882417Y-151134468D01*
X129013647Y-151210234D01*
X129160016Y-151249453D01*
X129160018Y-151249453D01*
X129311546Y-151249453D01*
X129311548Y-151249453D01*
X129457917Y-151210234D01*
X129589147Y-151134468D01*
X129696297Y-151027318D01*
X129772063Y-150896088D01*
X129811282Y-150749719D01*
X129811282Y-150598187D01*
X129772063Y-150451818D01*
X129696297Y-150320588D01*
X129589147Y-150213438D01*
X129523532Y-150175555D01*
X129457918Y-150137672D01*
X129331533Y-150103808D01*
X129311548Y-150098453D01*
X129160016Y-150098453D01*
X129013645Y-150137672D01*
X128882417Y-150213438D01*
X128882414Y-150213440D01*
X128827963Y-150267892D01*
X128766640Y-150301377D01*
X128696948Y-150296393D01*
X128641015Y-150254521D01*
X128616598Y-150189057D01*
X128616282Y-150180211D01*
X128616282Y-150118063D01*
X128616282Y-150118061D01*
X128582174Y-149990767D01*
X128516282Y-149876639D01*
X128423096Y-149783453D01*
X128366032Y-149750507D01*
X128308969Y-149717561D01*
X128245321Y-149700507D01*
X128181674Y-149683453D01*
X128049890Y-149683453D01*
X127922594Y-149717561D01*
X127808468Y-149783453D01*
X127808465Y-149783455D01*
X127715284Y-149876636D01*
X127715282Y-149876639D01*
X127649390Y-149990765D01*
X127615282Y-150118061D01*
X113572729Y-150118061D01*
X113625922Y-150103808D01*
X113740050Y-150037916D01*
X113833236Y-149944730D01*
X113899128Y-149830602D01*
X113933236Y-149703308D01*
X113933236Y-149571524D01*
X113899128Y-149444230D01*
X113833236Y-149330102D01*
X113740050Y-149236916D01*
X113682986Y-149203970D01*
X113625923Y-149171024D01*
X113562275Y-149153970D01*
X113498628Y-149136916D01*
X113366844Y-149136916D01*
X113239548Y-149171024D01*
X113125422Y-149236916D01*
X113125419Y-149236918D01*
X113032238Y-149330099D01*
X113032236Y-149330102D01*
X112966344Y-149444228D01*
X112932236Y-149571524D01*
X79847255Y-149571524D01*
X79863629Y-149510415D01*
X79863629Y-149378631D01*
X79829521Y-149251337D01*
X79763629Y-149137209D01*
X79670443Y-149044023D01*
X79613379Y-149011077D01*
X79556316Y-148978131D01*
X79492668Y-148961077D01*
X79429021Y-148944023D01*
X79297237Y-148944023D01*
X79169941Y-148978131D01*
X79055815Y-149044023D01*
X79055812Y-149044025D01*
X78962631Y-149137206D01*
X78962629Y-149137209D01*
X78896737Y-149251335D01*
X78875633Y-149330099D01*
X78862629Y-149378631D01*
X65013684Y-149378631D01*
X64980025Y-148350441D01*
X64979959Y-148346384D01*
X64979959Y-148278631D01*
X79825129Y-148278631D01*
X79825129Y-148410415D01*
X79825269Y-148410936D01*
X79859237Y-148537710D01*
X79892183Y-148594773D01*
X79925129Y-148651837D01*
X80018315Y-148745023D01*
X80132443Y-148810915D01*
X80259737Y-148845023D01*
X80259739Y-148845023D01*
X80391519Y-148845023D01*
X80391521Y-148845023D01*
X80518815Y-148810915D01*
X80632943Y-148745023D01*
X80726129Y-148651837D01*
X80792021Y-148537709D01*
X80826129Y-148410415D01*
X80826129Y-148279152D01*
X125724608Y-148279152D01*
X125724608Y-148410936D01*
X125741662Y-148474583D01*
X125758716Y-148538231D01*
X125791662Y-148595294D01*
X125824608Y-148652358D01*
X125917794Y-148745544D01*
X126016629Y-148802607D01*
X126031019Y-148810915D01*
X126031922Y-148811436D01*
X126159216Y-148845544D01*
X126159218Y-148845544D01*
X126290998Y-148845544D01*
X126291000Y-148845544D01*
X126418294Y-148811436D01*
X126532422Y-148745544D01*
X126625608Y-148652358D01*
X126691500Y-148538230D01*
X126725608Y-148410936D01*
X126725608Y-148368502D01*
X126745293Y-148301463D01*
X126798097Y-148255708D01*
X126849608Y-148244502D01*
X126892040Y-148244502D01*
X126892042Y-148244502D01*
X127019336Y-148210394D01*
X127133464Y-148144502D01*
X127226650Y-148051316D01*
X127268615Y-147978631D01*
X130025129Y-147978631D01*
X130025129Y-148110415D01*
X130036093Y-148151335D01*
X130059237Y-148237710D01*
X130083164Y-148279152D01*
X130125129Y-148351837D01*
X130218315Y-148445023D01*
X130332443Y-148510915D01*
X130459737Y-148545023D01*
X130459739Y-148545023D01*
X130591519Y-148545023D01*
X130591521Y-148545023D01*
X130718815Y-148510915D01*
X130832943Y-148445023D01*
X130926129Y-148351837D01*
X130992021Y-148237709D01*
X131026129Y-148110415D01*
X131026129Y-147978631D01*
X130992021Y-147851337D01*
X130926129Y-147737209D01*
X130832943Y-147644023D01*
X130775879Y-147611077D01*
X130718816Y-147578131D01*
X130655168Y-147561077D01*
X130591521Y-147544023D01*
X130459737Y-147544023D01*
X130332441Y-147578131D01*
X130218315Y-147644023D01*
X130218312Y-147644025D01*
X130125131Y-147737206D01*
X130125129Y-147737209D01*
X130059237Y-147851335D01*
X130034262Y-147944544D01*
X130025129Y-147978631D01*
X127268615Y-147978631D01*
X127292542Y-147937188D01*
X127326650Y-147809894D01*
X127326650Y-147678110D01*
X127292542Y-147550816D01*
X127226650Y-147436688D01*
X127133464Y-147343502D01*
X127065358Y-147304181D01*
X127019337Y-147277610D01*
X126955689Y-147260556D01*
X126892042Y-147243502D01*
X126760258Y-147243502D01*
X126632962Y-147277610D01*
X126518836Y-147343502D01*
X126518833Y-147343504D01*
X126425652Y-147436685D01*
X126425650Y-147436688D01*
X126359758Y-147550814D01*
X126325650Y-147678110D01*
X126325650Y-147720544D01*
X126305965Y-147787583D01*
X126253161Y-147833338D01*
X126201650Y-147844544D01*
X126159216Y-147844544D01*
X126031920Y-147878652D01*
X125917794Y-147944544D01*
X125917791Y-147944546D01*
X125824610Y-148037727D01*
X125824608Y-148037730D01*
X125758716Y-148151856D01*
X125733892Y-148244502D01*
X125724608Y-148279152D01*
X80826129Y-148279152D01*
X80826129Y-148278631D01*
X80792021Y-148151337D01*
X80726129Y-148037209D01*
X80632943Y-147944023D01*
X80575879Y-147911077D01*
X80518816Y-147878131D01*
X80418817Y-147851337D01*
X80391521Y-147844023D01*
X80259737Y-147844023D01*
X80132441Y-147878131D01*
X80018315Y-147944023D01*
X80018312Y-147944025D01*
X79925131Y-148037206D01*
X79925129Y-148037209D01*
X79859237Y-148151335D01*
X79834274Y-148244501D01*
X79825129Y-148278631D01*
X64979959Y-148278631D01*
X64979959Y-147221521D01*
X64980025Y-147217464D01*
X64981296Y-147178631D01*
X78825129Y-147178631D01*
X78825129Y-147310414D01*
X78859237Y-147437710D01*
X78892183Y-147494773D01*
X78925129Y-147551837D01*
X79018315Y-147645023D01*
X79132443Y-147710915D01*
X79259737Y-147745023D01*
X79259739Y-147745023D01*
X79391519Y-147745023D01*
X79391521Y-147745023D01*
X79518815Y-147710915D01*
X79632943Y-147645023D01*
X79726129Y-147551837D01*
X79792021Y-147437709D01*
X79826129Y-147310415D01*
X79826129Y-147304181D01*
X105775129Y-147304181D01*
X105775129Y-147435965D01*
X105775597Y-147437710D01*
X105809237Y-147563260D01*
X105817823Y-147578131D01*
X105875129Y-147677387D01*
X105968315Y-147770573D01*
X106082443Y-147836465D01*
X106209737Y-147870573D01*
X106209739Y-147870573D01*
X106341519Y-147870573D01*
X106341521Y-147870573D01*
X106468815Y-147836465D01*
X106582943Y-147770573D01*
X106676129Y-147677387D01*
X106742021Y-147563259D01*
X106776129Y-147435965D01*
X106776129Y-147304181D01*
X106742021Y-147176887D01*
X106676129Y-147062759D01*
X106582943Y-146969573D01*
X106525879Y-146936627D01*
X106468816Y-146903681D01*
X106405168Y-146886627D01*
X106341521Y-146869573D01*
X106209737Y-146869573D01*
X106082441Y-146903681D01*
X105968315Y-146969573D01*
X105968312Y-146969575D01*
X105875131Y-147062756D01*
X105875129Y-147062759D01*
X105809237Y-147176885D01*
X105775129Y-147304181D01*
X79826129Y-147304181D01*
X79826129Y-147178631D01*
X79792021Y-147051337D01*
X79726129Y-146937209D01*
X79632943Y-146844023D01*
X79575879Y-146811077D01*
X79518816Y-146778131D01*
X79455168Y-146761077D01*
X79391521Y-146744023D01*
X79259737Y-146744023D01*
X79132441Y-146778131D01*
X79018315Y-146844023D01*
X79018312Y-146844025D01*
X78925131Y-146937206D01*
X78925129Y-146937209D01*
X78859237Y-147051335D01*
X78825129Y-147178631D01*
X64981296Y-147178631D01*
X64981695Y-147166447D01*
X65016831Y-146093142D01*
X65017027Y-146089153D01*
X65024271Y-145978631D01*
X79725129Y-145978631D01*
X79725129Y-146110414D01*
X79759237Y-146237710D01*
X79783164Y-146279152D01*
X79825129Y-146351837D01*
X79918315Y-146445023D01*
X80032443Y-146510915D01*
X80159737Y-146545023D01*
X80159739Y-146545023D01*
X80291519Y-146545023D01*
X80291521Y-146545023D01*
X80418815Y-146510915D01*
X80532943Y-146445023D01*
X80626129Y-146351837D01*
X80692021Y-146237709D01*
X80726129Y-146110415D01*
X80726129Y-145978631D01*
X98025129Y-145978631D01*
X98025129Y-146110414D01*
X98059237Y-146237710D01*
X98083164Y-146279152D01*
X98125129Y-146351837D01*
X98218315Y-146445023D01*
X98332443Y-146510915D01*
X98459737Y-146545023D01*
X98459739Y-146545023D01*
X98591519Y-146545023D01*
X98591521Y-146545023D01*
X98718815Y-146510915D01*
X98832943Y-146445023D01*
X98926129Y-146351837D01*
X98968094Y-146279152D01*
X106825650Y-146279152D01*
X106825650Y-146410936D01*
X106842704Y-146474583D01*
X106859758Y-146538231D01*
X106892704Y-146595294D01*
X106925650Y-146652358D01*
X107018836Y-146745544D01*
X107132964Y-146811436D01*
X107260258Y-146845544D01*
X107260260Y-146845544D01*
X107392040Y-146845544D01*
X107392042Y-146845544D01*
X107519336Y-146811436D01*
X107633464Y-146745544D01*
X107726650Y-146652358D01*
X107792542Y-146538230D01*
X107826650Y-146410936D01*
X107826650Y-146279152D01*
X107792542Y-146151858D01*
X107726650Y-146037730D01*
X107667551Y-145978631D01*
X130025129Y-145978631D01*
X130025129Y-146110414D01*
X130059237Y-146237710D01*
X130083164Y-146279152D01*
X130125129Y-146351837D01*
X130218315Y-146445023D01*
X130332443Y-146510915D01*
X130459737Y-146545023D01*
X130459739Y-146545023D01*
X130591519Y-146545023D01*
X130591521Y-146545023D01*
X130718815Y-146510915D01*
X130832943Y-146445023D01*
X130926129Y-146351837D01*
X130992021Y-146237709D01*
X131026129Y-146110415D01*
X131026129Y-145978631D01*
X130992021Y-145851337D01*
X130926129Y-145737209D01*
X130832943Y-145644023D01*
X130753678Y-145598259D01*
X130718816Y-145578131D01*
X130652932Y-145560478D01*
X130591521Y-145544023D01*
X130459737Y-145544023D01*
X130332441Y-145578131D01*
X130218315Y-145644023D01*
X130218312Y-145644025D01*
X130125131Y-145737206D01*
X130125129Y-145737209D01*
X130059237Y-145851335D01*
X130025129Y-145978631D01*
X107667551Y-145978631D01*
X107633464Y-145944544D01*
X107529384Y-145884453D01*
X107519337Y-145878652D01*
X107455689Y-145861598D01*
X107392042Y-145844544D01*
X107260258Y-145844544D01*
X107132962Y-145878652D01*
X107018836Y-145944544D01*
X107018833Y-145944546D01*
X106925652Y-146037727D01*
X106925650Y-146037730D01*
X106859758Y-146151856D01*
X106836754Y-146237710D01*
X106825650Y-146279152D01*
X98968094Y-146279152D01*
X98992021Y-146237709D01*
X99026129Y-146110415D01*
X99026129Y-145978631D01*
X98992021Y-145851337D01*
X98926129Y-145737209D01*
X98848502Y-145659582D01*
X98815017Y-145598259D01*
X98820001Y-145528567D01*
X98861873Y-145472634D01*
X98874174Y-145464519D01*
X98907943Y-145445023D01*
X99001129Y-145351837D01*
X99020630Y-145318061D01*
X127615282Y-145318061D01*
X127615282Y-145449844D01*
X127649390Y-145577140D01*
X127672064Y-145616411D01*
X127715282Y-145691267D01*
X127808468Y-145784453D01*
X127907303Y-145841516D01*
X127922592Y-145850343D01*
X127922596Y-145850345D01*
X128049890Y-145884453D01*
X128049892Y-145884453D01*
X128181672Y-145884453D01*
X128181674Y-145884453D01*
X128308968Y-145850345D01*
X128423096Y-145784453D01*
X128516282Y-145691267D01*
X128582174Y-145577139D01*
X128616282Y-145449845D01*
X128616282Y-145387695D01*
X128635967Y-145320656D01*
X128688771Y-145274901D01*
X128757929Y-145264957D01*
X128821485Y-145293982D01*
X128827963Y-145300014D01*
X128882417Y-145354468D01*
X128939968Y-145387695D01*
X129012311Y-145429463D01*
X129013647Y-145430234D01*
X129160016Y-145469453D01*
X129160018Y-145469453D01*
X129311546Y-145469453D01*
X129311548Y-145469453D01*
X129457917Y-145430234D01*
X129589147Y-145354468D01*
X129696297Y-145247318D01*
X129772063Y-145116088D01*
X129811282Y-144969719D01*
X129811282Y-144818187D01*
X129772063Y-144671818D01*
X129696297Y-144540588D01*
X129589147Y-144433438D01*
X129523532Y-144395555D01*
X129457918Y-144357672D01*
X129384732Y-144338062D01*
X129311548Y-144318453D01*
X129160016Y-144318453D01*
X129013645Y-144357672D01*
X128882417Y-144433438D01*
X128882414Y-144433440D01*
X128775269Y-144540585D01*
X128775267Y-144540588D01*
X128699501Y-144671816D01*
X128660282Y-144818187D01*
X128660282Y-144921277D01*
X128640597Y-144988316D01*
X128587793Y-145034071D01*
X128518635Y-145044015D01*
X128455079Y-145014990D01*
X128448601Y-145008958D01*
X128423098Y-144983455D01*
X128423096Y-144983453D01*
X128366032Y-144950507D01*
X128308969Y-144917561D01*
X128245321Y-144900507D01*
X128181674Y-144883453D01*
X128049890Y-144883453D01*
X127922594Y-144917561D01*
X127808468Y-144983453D01*
X127808465Y-144983455D01*
X127715284Y-145076636D01*
X127715282Y-145076639D01*
X127649390Y-145190765D01*
X127615282Y-145318061D01*
X99020630Y-145318061D01*
X99045548Y-145274901D01*
X99061118Y-145247934D01*
X99061118Y-145247933D01*
X99061474Y-145247317D01*
X99067021Y-145237709D01*
X99101129Y-145110415D01*
X99101129Y-144978631D01*
X99067021Y-144851337D01*
X99001129Y-144737209D01*
X98907943Y-144644023D01*
X98850879Y-144611077D01*
X98793816Y-144578131D01*
X98730168Y-144561077D01*
X98666521Y-144544023D01*
X98534737Y-144544023D01*
X98407441Y-144578131D01*
X98293315Y-144644023D01*
X98293312Y-144644025D01*
X98200131Y-144737206D01*
X98200129Y-144737209D01*
X98134237Y-144851335D01*
X98115497Y-144921277D01*
X98100129Y-144978631D01*
X98100129Y-145110415D01*
X98117183Y-145174062D01*
X98134237Y-145237710D01*
X98155710Y-145274901D01*
X98200129Y-145351837D01*
X98200131Y-145351839D01*
X98277755Y-145429463D01*
X98311240Y-145490786D01*
X98306256Y-145560478D01*
X98264384Y-145616411D01*
X98252076Y-145624530D01*
X98218318Y-145644020D01*
X98218312Y-145644025D01*
X98125131Y-145737206D01*
X98125129Y-145737209D01*
X98059237Y-145851335D01*
X98025129Y-145978631D01*
X80726129Y-145978631D01*
X80692021Y-145851337D01*
X80626129Y-145737209D01*
X80532943Y-145644023D01*
X80453678Y-145598259D01*
X80418816Y-145578131D01*
X80352932Y-145560478D01*
X80291521Y-145544023D01*
X80159737Y-145544023D01*
X80032441Y-145578131D01*
X79918315Y-145644023D01*
X79918312Y-145644025D01*
X79825131Y-145737206D01*
X79825129Y-145737209D01*
X79759237Y-145851335D01*
X79725129Y-145978631D01*
X65024271Y-145978631D01*
X65040095Y-145737209D01*
X65089816Y-144978631D01*
X78725129Y-144978631D01*
X78725129Y-145110415D01*
X78742183Y-145174062D01*
X78759237Y-145237710D01*
X78780710Y-145274901D01*
X78825129Y-145351837D01*
X78918315Y-145445023D01*
X79032443Y-145510915D01*
X79159737Y-145545023D01*
X79159739Y-145545023D01*
X79291519Y-145545023D01*
X79291521Y-145545023D01*
X79418815Y-145510915D01*
X79532943Y-145445023D01*
X79626129Y-145351837D01*
X79692021Y-145237709D01*
X79726129Y-145110415D01*
X79726129Y-144978631D01*
X79692021Y-144851337D01*
X79626129Y-144737209D01*
X79532943Y-144644023D01*
X79475879Y-144611077D01*
X79418816Y-144578131D01*
X79355168Y-144561077D01*
X79291521Y-144544023D01*
X79159737Y-144544023D01*
X79032441Y-144578131D01*
X78918315Y-144644023D01*
X78918312Y-144644025D01*
X78825131Y-144737206D01*
X78825129Y-144737209D01*
X78759237Y-144851335D01*
X78740497Y-144921277D01*
X78725129Y-144978631D01*
X65089816Y-144978631D01*
X65090603Y-144966629D01*
X65090934Y-144962588D01*
X65091351Y-144958353D01*
X65091351Y-144958350D01*
X65201196Y-143843064D01*
X65201647Y-143839146D01*
X65348483Y-142723816D01*
X65349069Y-142719867D01*
X65532324Y-141609908D01*
X65533038Y-141605988D01*
X65657827Y-140978631D01*
X81150130Y-140978631D01*
X81150130Y-141110414D01*
X81184238Y-141237710D01*
X81217184Y-141294773D01*
X81250130Y-141351837D01*
X81343316Y-141445023D01*
X81457444Y-141510915D01*
X81584738Y-141545023D01*
X81584740Y-141545023D01*
X81716520Y-141545023D01*
X81716522Y-141545023D01*
X81843816Y-141510915D01*
X81957944Y-141445023D01*
X82051130Y-141351837D01*
X82117022Y-141237709D01*
X82151130Y-141110415D01*
X82151130Y-140978631D01*
X82117022Y-140851337D01*
X82060359Y-140753194D01*
X83618326Y-140753194D01*
X83618326Y-140884977D01*
X83652434Y-141012273D01*
X83685380Y-141069336D01*
X83718326Y-141126400D01*
X83811512Y-141219586D01*
X83925640Y-141285478D01*
X84052934Y-141319586D01*
X84052936Y-141319586D01*
X84184716Y-141319586D01*
X84184718Y-141319586D01*
X84312012Y-141285478D01*
X84426140Y-141219586D01*
X84519326Y-141126400D01*
X84585218Y-141012272D01*
X84619326Y-140884978D01*
X84619326Y-140753194D01*
X84585218Y-140625900D01*
X84519326Y-140511772D01*
X84426140Y-140418586D01*
X84369076Y-140385640D01*
X84312013Y-140352694D01*
X84248365Y-140335640D01*
X84184718Y-140318586D01*
X84052934Y-140318586D01*
X83925638Y-140352694D01*
X83811512Y-140418586D01*
X83811509Y-140418588D01*
X83718328Y-140511769D01*
X83718326Y-140511772D01*
X83652434Y-140625898D01*
X83618326Y-140753194D01*
X82060359Y-140753194D01*
X82051130Y-140737209D01*
X81957944Y-140644023D01*
X81900880Y-140611077D01*
X81843817Y-140578131D01*
X81780169Y-140561077D01*
X81716522Y-140544023D01*
X81584738Y-140544023D01*
X81457442Y-140578131D01*
X81343316Y-140644023D01*
X81343313Y-140644025D01*
X81250132Y-140737206D01*
X81250130Y-140737209D01*
X81184238Y-140851335D01*
X81150130Y-140978631D01*
X65657827Y-140978631D01*
X65752504Y-140502657D01*
X65753332Y-140498820D01*
X66008790Y-139403219D01*
X66009772Y-139399302D01*
X66068901Y-139178631D01*
X106525129Y-139178631D01*
X106525129Y-139310414D01*
X106559237Y-139437710D01*
X106592183Y-139494773D01*
X106625129Y-139551837D01*
X106718315Y-139645023D01*
X106832443Y-139710915D01*
X106959737Y-139745023D01*
X106959739Y-139745023D01*
X107037221Y-139745023D01*
X107104260Y-139764708D01*
X107150015Y-139817512D01*
X107156993Y-139836923D01*
X107175127Y-139904600D01*
X107183934Y-139937468D01*
X107216880Y-139994531D01*
X107249826Y-140051595D01*
X107343012Y-140144781D01*
X107457140Y-140210673D01*
X107584434Y-140244781D01*
X107584436Y-140244781D01*
X107716216Y-140244781D01*
X107716218Y-140244781D01*
X107843512Y-140210673D01*
X107957640Y-140144781D01*
X108050826Y-140051595D01*
X108116718Y-139937467D01*
X108150826Y-139810173D01*
X108150826Y-139678389D01*
X108116718Y-139551095D01*
X108050826Y-139436967D01*
X107957640Y-139343781D01*
X107899847Y-139310414D01*
X107843513Y-139277889D01*
X107774521Y-139259403D01*
X107716218Y-139243781D01*
X107638734Y-139243781D01*
X107571695Y-139224096D01*
X107525940Y-139171292D01*
X107518961Y-139151880D01*
X107492021Y-139051337D01*
X107426129Y-138937209D01*
X107332943Y-138844023D01*
X107275879Y-138811077D01*
X107218816Y-138778131D01*
X107098048Y-138745772D01*
X107091521Y-138744023D01*
X106959737Y-138744023D01*
X106832441Y-138778131D01*
X106718315Y-138844023D01*
X106718312Y-138844025D01*
X106625131Y-138937206D01*
X106625129Y-138937209D01*
X106559237Y-139051335D01*
X106525129Y-139178631D01*
X66068901Y-139178631D01*
X66079678Y-139138410D01*
X66079678Y-139138409D01*
X66103009Y-139051337D01*
X66284885Y-138372564D01*
X82600864Y-138372564D01*
X82600864Y-138504348D01*
X82602569Y-138510710D01*
X82634972Y-138631643D01*
X82667918Y-138688706D01*
X82700864Y-138745770D01*
X82794050Y-138838956D01*
X82908178Y-138904848D01*
X83035472Y-138938956D01*
X83035474Y-138938956D01*
X83167254Y-138938956D01*
X83167256Y-138938956D01*
X83294550Y-138904848D01*
X83408678Y-138838956D01*
X83501864Y-138745770D01*
X83567756Y-138631642D01*
X83601864Y-138504348D01*
X83601864Y-138455882D01*
X84517546Y-138455882D01*
X84517546Y-138587666D01*
X84534600Y-138651313D01*
X84551654Y-138714961D01*
X84569442Y-138745770D01*
X84617546Y-138829088D01*
X84710732Y-138922274D01*
X84824860Y-138988166D01*
X84952154Y-139022274D01*
X84952156Y-139022274D01*
X85083936Y-139022274D01*
X85083938Y-139022274D01*
X85211232Y-138988166D01*
X85325360Y-138922274D01*
X85418546Y-138829088D01*
X85484438Y-138714960D01*
X85518546Y-138587666D01*
X85518546Y-138455882D01*
X85484438Y-138328588D01*
X85418546Y-138214460D01*
X85325360Y-138121274D01*
X85268296Y-138088328D01*
X85211233Y-138055382D01*
X85133728Y-138034615D01*
X85083938Y-138021274D01*
X84952154Y-138021274D01*
X84824858Y-138055382D01*
X84710732Y-138121274D01*
X84710729Y-138121276D01*
X84617548Y-138214457D01*
X84617546Y-138214460D01*
X84551654Y-138328586D01*
X84539870Y-138372566D01*
X84517546Y-138455882D01*
X83601864Y-138455882D01*
X83601864Y-138372564D01*
X83567756Y-138245270D01*
X83501864Y-138131142D01*
X83408678Y-138037956D01*
X83351614Y-138005010D01*
X83294551Y-137972064D01*
X83230903Y-137955010D01*
X83167256Y-137937956D01*
X83035472Y-137937956D01*
X82908176Y-137972064D01*
X82794050Y-138037956D01*
X82794047Y-138037958D01*
X82700866Y-138131139D01*
X82700864Y-138131142D01*
X82634972Y-138245268D01*
X82619397Y-138303396D01*
X82600864Y-138372564D01*
X66284885Y-138372564D01*
X66300927Y-138312696D01*
X66302010Y-138308902D01*
X66553870Y-137478631D01*
X90525129Y-137478631D01*
X90525129Y-137610414D01*
X90559237Y-137737710D01*
X90592183Y-137794773D01*
X90625129Y-137851837D01*
X90718315Y-137945023D01*
X90832443Y-138010915D01*
X90959737Y-138045023D01*
X90959739Y-138045023D01*
X91001129Y-138045023D01*
X91068168Y-138064708D01*
X91113923Y-138117512D01*
X91125129Y-138169023D01*
X91125129Y-138176101D01*
X91159237Y-138303397D01*
X91175950Y-138332344D01*
X91225129Y-138417524D01*
X91318315Y-138510710D01*
X91432443Y-138576602D01*
X91559737Y-138610710D01*
X91559739Y-138610710D01*
X91691519Y-138610710D01*
X91691521Y-138610710D01*
X91818815Y-138576602D01*
X91932943Y-138510710D01*
X92026129Y-138417524D01*
X92092021Y-138303396D01*
X92126129Y-138176102D01*
X92126129Y-138044318D01*
X92092021Y-137917024D01*
X92026129Y-137802896D01*
X91932943Y-137709710D01*
X91875879Y-137676764D01*
X91818816Y-137643818D01*
X91727524Y-137619357D01*
X91691521Y-137609710D01*
X91650129Y-137609710D01*
X91583090Y-137590025D01*
X91537335Y-137537221D01*
X91526129Y-137485710D01*
X91526129Y-137478633D01*
X91526129Y-137478631D01*
X91492021Y-137351337D01*
X91426129Y-137237209D01*
X91332943Y-137144023D01*
X91275879Y-137111077D01*
X91218816Y-137078131D01*
X91117231Y-137050912D01*
X91091521Y-137044023D01*
X90959737Y-137044023D01*
X90832441Y-137078131D01*
X90718315Y-137144023D01*
X90718312Y-137144025D01*
X90625131Y-137237206D01*
X90625129Y-137237209D01*
X90559237Y-137351335D01*
X90525129Y-137478631D01*
X66553870Y-137478631D01*
X66628584Y-137232334D01*
X66629795Y-137228563D01*
X66848419Y-136584520D01*
X91706018Y-136584520D01*
X91706018Y-136716303D01*
X91740126Y-136843599D01*
X91773072Y-136900662D01*
X91806018Y-136957726D01*
X91899204Y-137050912D01*
X92013332Y-137116804D01*
X92140626Y-137150912D01*
X92140628Y-137150912D01*
X92272408Y-137150912D01*
X92272410Y-137150912D01*
X92399704Y-137116804D01*
X92513832Y-137050912D01*
X92543837Y-137020907D01*
X92605160Y-136987422D01*
X92674852Y-136992406D01*
X92719199Y-137020907D01*
X92749204Y-137050912D01*
X92863332Y-137116804D01*
X92990626Y-137150912D01*
X92990628Y-137150912D01*
X93122408Y-137150912D01*
X93122410Y-137150912D01*
X93249704Y-137116804D01*
X93363832Y-137050912D01*
X93457018Y-136957726D01*
X93522910Y-136843598D01*
X93557018Y-136716304D01*
X93557018Y-136584520D01*
X93522910Y-136457226D01*
X93457018Y-136343098D01*
X93363832Y-136249912D01*
X93306768Y-136216966D01*
X93249705Y-136184020D01*
X93158260Y-136159518D01*
X93122410Y-136149912D01*
X92990626Y-136149912D01*
X92863330Y-136184020D01*
X92749204Y-136249912D01*
X92749201Y-136249914D01*
X92719199Y-136279917D01*
X92657876Y-136313402D01*
X92588184Y-136308418D01*
X92543837Y-136279917D01*
X92513834Y-136249914D01*
X92513832Y-136249912D01*
X92456768Y-136216966D01*
X92399705Y-136184020D01*
X92308260Y-136159518D01*
X92272410Y-136149912D01*
X92140626Y-136149912D01*
X92013330Y-136184020D01*
X91899204Y-136249912D01*
X91899201Y-136249914D01*
X91806020Y-136343095D01*
X91806018Y-136343098D01*
X91740126Y-136457224D01*
X91706018Y-136584520D01*
X66848419Y-136584520D01*
X66991402Y-136163305D01*
X66992746Y-136159551D01*
X67307572Y-135323077D01*
X118669575Y-135323077D01*
X118669575Y-135454860D01*
X118703683Y-135582156D01*
X118736629Y-135639219D01*
X118769575Y-135696283D01*
X118862761Y-135789469D01*
X118976889Y-135855361D01*
X119104183Y-135889469D01*
X119104185Y-135889469D01*
X119235965Y-135889469D01*
X119235967Y-135889469D01*
X119363261Y-135855361D01*
X119477389Y-135789469D01*
X119570575Y-135696283D01*
X119636467Y-135582155D01*
X119670575Y-135454861D01*
X119670575Y-135323077D01*
X119636467Y-135195783D01*
X119570575Y-135081655D01*
X119477389Y-134988469D01*
X119420325Y-134955523D01*
X119363262Y-134922577D01*
X119299614Y-134905523D01*
X119235967Y-134888469D01*
X119104183Y-134888469D01*
X118976887Y-134922577D01*
X118862761Y-134988469D01*
X118862758Y-134988471D01*
X118769577Y-135081652D01*
X118769575Y-135081655D01*
X118703683Y-135195781D01*
X118669575Y-135323077D01*
X67307572Y-135323077D01*
X67389003Y-135106719D01*
X67390473Y-135102998D01*
X67820980Y-134063664D01*
X67822559Y-134060020D01*
X67859436Y-133978631D01*
X85525129Y-133978631D01*
X85525129Y-134110414D01*
X85559237Y-134237710D01*
X85592183Y-134294773D01*
X85625129Y-134351837D01*
X85718315Y-134445023D01*
X85832443Y-134510915D01*
X85959737Y-134545023D01*
X85959739Y-134545023D01*
X86091519Y-134545023D01*
X86091521Y-134545023D01*
X86218815Y-134510915D01*
X86332943Y-134445023D01*
X86426129Y-134351837D01*
X86492021Y-134237709D01*
X86495831Y-134223491D01*
X112556670Y-134223491D01*
X112556670Y-134355274D01*
X112590778Y-134482570D01*
X112623724Y-134539633D01*
X112656670Y-134596697D01*
X112749856Y-134689883D01*
X112863984Y-134755775D01*
X112991278Y-134789883D01*
X112991280Y-134789883D01*
X113123060Y-134789883D01*
X113123062Y-134789883D01*
X113250356Y-134755775D01*
X113364484Y-134689883D01*
X113457670Y-134596697D01*
X113523562Y-134482569D01*
X113557670Y-134355275D01*
X113557670Y-134223491D01*
X113523562Y-134096197D01*
X113457670Y-133982069D01*
X113364484Y-133888883D01*
X113299449Y-133851335D01*
X113250357Y-133822991D01*
X113186709Y-133805937D01*
X113123062Y-133788883D01*
X112991278Y-133788883D01*
X112863982Y-133822991D01*
X112749856Y-133888883D01*
X112749853Y-133888885D01*
X112656672Y-133982066D01*
X112656670Y-133982069D01*
X112590778Y-134096195D01*
X112556670Y-134223491D01*
X86495831Y-134223491D01*
X86526129Y-134110415D01*
X86526129Y-133978631D01*
X86492021Y-133851337D01*
X86426129Y-133737209D01*
X86332943Y-133644023D01*
X86275879Y-133611077D01*
X86218816Y-133578131D01*
X86155168Y-133561077D01*
X86091521Y-133544023D01*
X85959737Y-133544023D01*
X85832441Y-133578131D01*
X85718315Y-133644023D01*
X85718312Y-133644025D01*
X85625131Y-133737206D01*
X85625129Y-133737209D01*
X85559237Y-133851335D01*
X85525129Y-133978631D01*
X67859436Y-133978631D01*
X68286837Y-133035335D01*
X68288561Y-133031692D01*
X68289403Y-133029986D01*
X68786096Y-132022790D01*
X68787940Y-132019203D01*
X68800864Y-131995025D01*
X68817733Y-131963466D01*
X86509964Y-131963466D01*
X86509964Y-132095250D01*
X86523505Y-132145786D01*
X86544072Y-132222545D01*
X86558902Y-132248230D01*
X86609964Y-132336672D01*
X86703150Y-132429858D01*
X86817278Y-132495750D01*
X86944572Y-132529858D01*
X86944574Y-132529858D01*
X87076354Y-132529858D01*
X87076356Y-132529858D01*
X87203650Y-132495750D01*
X87225886Y-132482912D01*
X107500129Y-132482912D01*
X107500129Y-132606133D01*
X107524164Y-132726967D01*
X107524167Y-132726977D01*
X107571316Y-132840806D01*
X107571321Y-132840815D01*
X107639770Y-132943255D01*
X107639773Y-132943259D01*
X107726892Y-133030378D01*
X107726896Y-133030381D01*
X107829336Y-133098830D01*
X107829342Y-133098833D01*
X107829343Y-133098834D01*
X107943177Y-133145986D01*
X108064018Y-133170022D01*
X108064022Y-133170023D01*
X108064023Y-133170023D01*
X108187236Y-133170023D01*
X108187237Y-133170022D01*
X108308081Y-133145986D01*
X108421915Y-133098834D01*
X108421914Y-133098834D01*
X108427543Y-133096503D01*
X108428434Y-133098655D01*
X108486703Y-133086520D01*
X108544901Y-133108817D01*
X108545922Y-133107290D01*
X108622398Y-133158390D01*
X108622399Y-133158391D01*
X108680876Y-133170022D01*
X108680879Y-133170023D01*
X108680881Y-133170023D01*
X109570379Y-133170023D01*
X109570380Y-133170022D01*
X109585197Y-133167075D01*
X109628858Y-133158391D01*
X109628858Y-133158390D01*
X109628860Y-133158390D01*
X109695181Y-133114075D01*
X109739496Y-133047754D01*
X109739496Y-133047752D01*
X109739497Y-133047752D01*
X109751128Y-132989275D01*
X109751129Y-132989273D01*
X109751129Y-132898203D01*
X116144701Y-132898203D01*
X116144701Y-133029987D01*
X116149462Y-133047754D01*
X116178809Y-133157282D01*
X116211755Y-133214345D01*
X116244701Y-133271409D01*
X116337887Y-133364595D01*
X116452015Y-133430487D01*
X116579309Y-133464595D01*
X116579311Y-133464595D01*
X116711091Y-133464595D01*
X116711093Y-133464595D01*
X116838387Y-133430487D01*
X116952515Y-133364595D01*
X117045701Y-133271409D01*
X117111593Y-133157281D01*
X117145701Y-133029987D01*
X117145701Y-132898203D01*
X117111593Y-132770909D01*
X117045701Y-132656781D01*
X116952515Y-132563595D01*
X116894079Y-132529857D01*
X116838388Y-132497703D01*
X116774740Y-132480649D01*
X116711093Y-132463595D01*
X116579309Y-132463595D01*
X116452013Y-132497703D01*
X116337887Y-132563595D01*
X116337884Y-132563597D01*
X116244703Y-132656778D01*
X116244701Y-132656781D01*
X116178809Y-132770907D01*
X116160078Y-132840815D01*
X116144701Y-132898203D01*
X109751129Y-132898203D01*
X109751129Y-132099772D01*
X109751128Y-132099770D01*
X109739497Y-132041293D01*
X109739496Y-132041292D01*
X109695181Y-131974970D01*
X109628859Y-131930655D01*
X109628858Y-131930654D01*
X109570381Y-131919023D01*
X109570377Y-131919023D01*
X108680881Y-131919023D01*
X108680876Y-131919023D01*
X108622399Y-131930654D01*
X108622398Y-131930655D01*
X108545922Y-131981756D01*
X108543466Y-131978081D01*
X108502894Y-132000139D01*
X108433212Y-131995025D01*
X108427571Y-131992474D01*
X108427543Y-131992543D01*
X108308083Y-131943061D01*
X108308084Y-131943061D01*
X108308081Y-131943060D01*
X108308077Y-131943059D01*
X108308073Y-131943058D01*
X108187239Y-131919023D01*
X108187235Y-131919023D01*
X108064023Y-131919023D01*
X108064018Y-131919023D01*
X107943184Y-131943058D01*
X107943174Y-131943061D01*
X107829345Y-131990210D01*
X107829336Y-131990215D01*
X107726896Y-132058664D01*
X107726892Y-132058667D01*
X107639773Y-132145786D01*
X107639770Y-132145790D01*
X107571321Y-132248230D01*
X107571316Y-132248239D01*
X107524167Y-132362068D01*
X107524164Y-132362078D01*
X107500129Y-132482912D01*
X87225886Y-132482912D01*
X87317778Y-132429858D01*
X87410964Y-132336672D01*
X87476856Y-132222544D01*
X87510964Y-132095250D01*
X87510964Y-131963466D01*
X87476856Y-131836172D01*
X87410964Y-131722044D01*
X87317778Y-131628858D01*
X87260714Y-131595912D01*
X87203651Y-131562966D01*
X87136681Y-131545022D01*
X87076356Y-131528858D01*
X86944572Y-131528858D01*
X86817276Y-131562966D01*
X86703150Y-131628858D01*
X86703147Y-131628860D01*
X86609966Y-131722041D01*
X86609964Y-131722044D01*
X86544072Y-131836170D01*
X86518755Y-131930656D01*
X86509964Y-131963466D01*
X68817733Y-131963466D01*
X69318229Y-131027101D01*
X69320143Y-131023656D01*
X69346138Y-130978631D01*
X104425129Y-130978631D01*
X104425129Y-131110415D01*
X104442183Y-131174062D01*
X104459237Y-131237710D01*
X104492183Y-131294773D01*
X104525129Y-131351837D01*
X104618315Y-131445023D01*
X104732443Y-131510915D01*
X104859737Y-131545023D01*
X104859739Y-131545023D01*
X104991519Y-131545023D01*
X104991521Y-131545023D01*
X105118815Y-131510915D01*
X105232943Y-131445023D01*
X105326129Y-131351837D01*
X105392021Y-131237709D01*
X105426129Y-131110415D01*
X105426129Y-130978631D01*
X105392021Y-130851337D01*
X105326129Y-130737209D01*
X105232943Y-130644023D01*
X105175879Y-130611077D01*
X105118816Y-130578131D01*
X105100894Y-130573329D01*
X113519827Y-130573329D01*
X113519827Y-130705112D01*
X113553935Y-130832408D01*
X113564863Y-130851335D01*
X113619827Y-130946535D01*
X113713013Y-131039721D01*
X113827141Y-131105613D01*
X113954435Y-131139721D01*
X113954437Y-131139721D01*
X114086217Y-131139721D01*
X114086219Y-131139721D01*
X114213513Y-131105613D01*
X114327641Y-131039721D01*
X114420827Y-130946535D01*
X114486719Y-130832407D01*
X114520827Y-130705113D01*
X114520827Y-130573329D01*
X114486719Y-130446035D01*
X114486509Y-130445672D01*
X114434917Y-130356312D01*
X114420827Y-130331907D01*
X114327641Y-130238721D01*
X114270577Y-130205775D01*
X114213514Y-130172829D01*
X114149866Y-130155775D01*
X114086219Y-130138721D01*
X113954435Y-130138721D01*
X113827139Y-130172829D01*
X113713013Y-130238721D01*
X113713010Y-130238723D01*
X113619829Y-130331904D01*
X113619827Y-130331907D01*
X113553935Y-130446033D01*
X113519827Y-130573329D01*
X105100894Y-130573329D01*
X105055168Y-130561077D01*
X104991521Y-130544023D01*
X104859737Y-130544023D01*
X104732441Y-130578131D01*
X104618315Y-130644023D01*
X104618312Y-130644025D01*
X104525131Y-130737206D01*
X104525129Y-130737209D01*
X104459237Y-130851335D01*
X104455523Y-130865197D01*
X104425129Y-130978631D01*
X69346138Y-130978631D01*
X69882644Y-130049377D01*
X69884681Y-130045978D01*
X70417979Y-129188365D01*
X74753897Y-129188365D01*
X74753897Y-129385210D01*
X74784687Y-129579614D01*
X74845514Y-129766817D01*
X74885467Y-129845228D01*
X74934873Y-129942193D01*
X75050569Y-130101434D01*
X75189751Y-130240616D01*
X75348992Y-130356312D01*
X75431852Y-130398531D01*
X75524367Y-130445670D01*
X75524369Y-130445670D01*
X75524372Y-130445672D01*
X75624714Y-130478275D01*
X75711570Y-130506497D01*
X75905975Y-130537288D01*
X75905980Y-130537288D01*
X76102819Y-130537288D01*
X76297223Y-130506497D01*
X76484422Y-130445672D01*
X76576402Y-130398806D01*
X101831052Y-130398806D01*
X101831052Y-130530590D01*
X101848106Y-130594237D01*
X101865160Y-130657885D01*
X101892427Y-130705112D01*
X101931052Y-130772012D01*
X102024238Y-130865198D01*
X102138366Y-130931090D01*
X102265660Y-130965198D01*
X102265662Y-130965198D01*
X102397442Y-130965198D01*
X102397444Y-130965198D01*
X102524738Y-130931090D01*
X102638866Y-130865198D01*
X102732052Y-130772012D01*
X102797944Y-130657884D01*
X102832052Y-130530590D01*
X102832052Y-130398806D01*
X102797944Y-130271512D01*
X102732052Y-130157384D01*
X102638866Y-130064198D01*
X102581802Y-130031252D01*
X102524739Y-129998306D01*
X102461091Y-129981252D01*
X102397444Y-129964198D01*
X102265660Y-129964198D01*
X102138364Y-129998306D01*
X102024238Y-130064198D01*
X102024235Y-130064200D01*
X101931054Y-130157381D01*
X101931052Y-130157384D01*
X101865160Y-130271510D01*
X101860109Y-130290361D01*
X101831052Y-130398806D01*
X76576402Y-130398806D01*
X76659802Y-130356312D01*
X76819043Y-130240616D01*
X76958225Y-130101434D01*
X77073921Y-129942193D01*
X77163281Y-129766813D01*
X77224106Y-129579614D01*
X77232637Y-129525751D01*
X77254897Y-129385210D01*
X77254897Y-129228631D01*
X104875129Y-129228631D01*
X104875129Y-129360415D01*
X104881773Y-129385210D01*
X104909237Y-129487710D01*
X104934003Y-129530605D01*
X104975129Y-129601837D01*
X105068315Y-129695023D01*
X105182443Y-129760915D01*
X105309737Y-129795023D01*
X105309739Y-129795023D01*
X105441519Y-129795023D01*
X105441521Y-129795023D01*
X105568815Y-129760915D01*
X105682943Y-129695023D01*
X105776129Y-129601837D01*
X105842021Y-129487709D01*
X105852403Y-129448961D01*
X105888764Y-129389306D01*
X105951610Y-129358775D01*
X106020986Y-129367069D01*
X106074865Y-129411553D01*
X106091951Y-129448964D01*
X106124924Y-129572022D01*
X106190816Y-129686150D01*
X106284002Y-129779336D01*
X106398130Y-129845228D01*
X106525424Y-129879336D01*
X106525426Y-129879336D01*
X106657206Y-129879336D01*
X106657208Y-129879336D01*
X106784502Y-129845228D01*
X106898630Y-129779336D01*
X106991816Y-129686150D01*
X107057708Y-129572022D01*
X107091816Y-129444728D01*
X107091816Y-129312944D01*
X107057708Y-129185650D01*
X106991816Y-129071522D01*
X106970926Y-129050632D01*
X119036441Y-129050632D01*
X119063360Y-129185959D01*
X119063363Y-129185969D01*
X119116163Y-129313441D01*
X119116170Y-129313454D01*
X119192827Y-129428178D01*
X119192830Y-129428182D01*
X119290396Y-129525748D01*
X119290400Y-129525751D01*
X119405124Y-129602408D01*
X119405137Y-129602415D01*
X119532609Y-129655215D01*
X119532614Y-129655217D01*
X119532618Y-129655217D01*
X119532619Y-129655218D01*
X119667946Y-129682137D01*
X119667949Y-129682137D01*
X119805937Y-129682137D01*
X119896983Y-129664026D01*
X119941270Y-129655217D01*
X120068753Y-129602412D01*
X120183484Y-129525751D01*
X120281056Y-129428179D01*
X120357717Y-129313448D01*
X120410522Y-129185965D01*
X120419331Y-129141678D01*
X120437442Y-129050632D01*
X120437442Y-128912641D01*
X120410523Y-128777314D01*
X120410522Y-128777313D01*
X120410522Y-128777309D01*
X120410520Y-128777304D01*
X120357720Y-128649832D01*
X120357713Y-128649819D01*
X120281056Y-128535095D01*
X120281053Y-128535091D01*
X120183487Y-128437525D01*
X120183483Y-128437522D01*
X120068759Y-128360865D01*
X120068746Y-128360858D01*
X119941274Y-128308058D01*
X119941264Y-128308055D01*
X119805937Y-128281137D01*
X119805935Y-128281137D01*
X119667949Y-128281137D01*
X119667947Y-128281137D01*
X119532619Y-128308055D01*
X119532609Y-128308058D01*
X119405137Y-128360858D01*
X119405124Y-128360865D01*
X119290400Y-128437522D01*
X119290396Y-128437525D01*
X119192830Y-128535091D01*
X119192827Y-128535095D01*
X119116170Y-128649819D01*
X119116163Y-128649832D01*
X119063363Y-128777304D01*
X119063360Y-128777314D01*
X119036442Y-128912641D01*
X119036442Y-128912644D01*
X119036442Y-129050630D01*
X119036442Y-129050632D01*
X119036441Y-129050632D01*
X106970926Y-129050632D01*
X106898630Y-128978336D01*
X106841566Y-128945390D01*
X106784503Y-128912444D01*
X106715753Y-128894023D01*
X106657208Y-128878336D01*
X106525424Y-128878336D01*
X106398128Y-128912444D01*
X106284002Y-128978336D01*
X106283999Y-128978338D01*
X106190818Y-129071519D01*
X106190816Y-129071522D01*
X106124924Y-129185650D01*
X106124840Y-129185965D01*
X106114543Y-129224394D01*
X106078178Y-129284054D01*
X106015330Y-129314583D01*
X105945955Y-129306288D01*
X105892077Y-129261803D01*
X105874994Y-129224395D01*
X105842021Y-129101337D01*
X105776129Y-128987209D01*
X105682943Y-128894023D01*
X105625879Y-128861077D01*
X105568816Y-128828131D01*
X105489049Y-128806758D01*
X105441521Y-128794023D01*
X105309737Y-128794023D01*
X105182441Y-128828131D01*
X105068315Y-128894023D01*
X105068312Y-128894025D01*
X104975131Y-128987206D01*
X104975129Y-128987209D01*
X104909237Y-129101335D01*
X104876265Y-129224393D01*
X104875129Y-129228631D01*
X77254897Y-129228631D01*
X77254897Y-129188365D01*
X77224106Y-128993961D01*
X77163279Y-128806758D01*
X77083318Y-128649826D01*
X77073921Y-128631383D01*
X76958225Y-128472142D01*
X76819043Y-128332960D01*
X76659802Y-128217264D01*
X76484426Y-128127905D01*
X76297223Y-128067078D01*
X76102819Y-128036288D01*
X76102814Y-128036288D01*
X75905980Y-128036288D01*
X75905975Y-128036288D01*
X75711570Y-128067078D01*
X75524367Y-128127905D01*
X75348991Y-128217264D01*
X75261079Y-128281137D01*
X75189751Y-128332960D01*
X75189749Y-128332962D01*
X75189748Y-128332962D01*
X75050571Y-128472139D01*
X75050571Y-128472140D01*
X75050569Y-128472142D01*
X75004834Y-128535091D01*
X74934873Y-128631382D01*
X74845514Y-128806758D01*
X74784687Y-128993961D01*
X74753897Y-129188365D01*
X70417979Y-129188365D01*
X70478748Y-129090640D01*
X70480889Y-129087319D01*
X71105895Y-128151934D01*
X71108159Y-128148663D01*
X71763418Y-127234249D01*
X71765798Y-127231040D01*
X72112944Y-126778631D01*
X88525129Y-126778631D01*
X88525129Y-126910414D01*
X88559237Y-127037710D01*
X88592183Y-127094773D01*
X88625129Y-127151837D01*
X88718315Y-127245023D01*
X88832443Y-127310915D01*
X88959737Y-127345023D01*
X88959739Y-127345023D01*
X89091519Y-127345023D01*
X89091521Y-127345023D01*
X89218815Y-127310915D01*
X89332943Y-127245023D01*
X89426129Y-127151837D01*
X89492021Y-127037709D01*
X89526129Y-126910415D01*
X89526129Y-126778631D01*
X89492021Y-126651337D01*
X89426129Y-126537209D01*
X89332943Y-126444023D01*
X89275879Y-126411077D01*
X89218816Y-126378131D01*
X89155168Y-126361077D01*
X89091521Y-126344023D01*
X88959737Y-126344023D01*
X88832441Y-126378131D01*
X88718315Y-126444023D01*
X88718312Y-126444025D01*
X88625131Y-126537206D01*
X88625129Y-126537209D01*
X88559237Y-126651335D01*
X88525129Y-126778631D01*
X72112944Y-126778631D01*
X72450622Y-126338561D01*
X72453108Y-126335428D01*
X72903959Y-125786065D01*
X121999030Y-125786065D01*
X121999030Y-125943758D01*
X122029791Y-126098401D01*
X122029794Y-126098413D01*
X122090132Y-126244084D01*
X122090139Y-126244097D01*
X122177740Y-126375200D01*
X122177743Y-126375204D01*
X122289237Y-126486698D01*
X122289241Y-126486701D01*
X122420344Y-126574302D01*
X122420357Y-126574309D01*
X122563254Y-126633498D01*
X122566033Y-126634649D01*
X122720683Y-126665411D01*
X122720686Y-126665412D01*
X122720688Y-126665412D01*
X122878374Y-126665412D01*
X122878375Y-126665411D01*
X123033027Y-126634649D01*
X123178709Y-126574306D01*
X123309819Y-126486701D01*
X123810227Y-125986293D01*
X123897832Y-125855183D01*
X123958175Y-125709501D01*
X123988938Y-125554846D01*
X123988938Y-125397162D01*
X123988938Y-125397159D01*
X123988937Y-125397157D01*
X123974007Y-125322098D01*
X123958175Y-125242507D01*
X123958173Y-125242502D01*
X123897835Y-125096831D01*
X123897828Y-125096818D01*
X123810227Y-124965715D01*
X123810224Y-124965711D01*
X123698730Y-124854217D01*
X123698726Y-124854214D01*
X123567623Y-124766613D01*
X123567610Y-124766606D01*
X123421939Y-124706268D01*
X123421927Y-124706265D01*
X123267283Y-124675504D01*
X123267280Y-124675504D01*
X123109596Y-124675504D01*
X123109593Y-124675504D01*
X122954948Y-124706265D01*
X122954936Y-124706268D01*
X122809265Y-124766606D01*
X122809252Y-124766613D01*
X122678149Y-124854214D01*
X122678145Y-124854217D01*
X122177743Y-125354619D01*
X122177740Y-125354623D01*
X122090139Y-125485726D01*
X122090132Y-125485739D01*
X122029794Y-125631410D01*
X122029791Y-125631422D01*
X121999030Y-125786065D01*
X72903959Y-125786065D01*
X73166786Y-125465809D01*
X73169328Y-125462812D01*
X73911083Y-124617003D01*
X73913776Y-124614032D01*
X74682774Y-123792981D01*
X74685536Y-123790127D01*
X75100085Y-123375578D01*
X77234066Y-123375578D01*
X77234066Y-123544877D01*
X77260547Y-123712075D01*
X77312862Y-123873081D01*
X77389718Y-124023916D01*
X77489214Y-124160862D01*
X77489218Y-124160867D01*
X77608926Y-124280575D01*
X77608931Y-124280579D01*
X77661032Y-124318432D01*
X77745881Y-124380078D01*
X77840702Y-124428392D01*
X77896712Y-124456931D01*
X77896714Y-124456931D01*
X77896717Y-124456933D01*
X77983016Y-124484973D01*
X78057718Y-124509246D01*
X78224917Y-124535728D01*
X78224922Y-124535728D01*
X78394215Y-124535728D01*
X78561413Y-124509246D01*
X78722415Y-124456933D01*
X78873251Y-124380078D01*
X79010207Y-124280574D01*
X79059234Y-124231547D01*
X79710716Y-124231547D01*
X79710716Y-124428392D01*
X79741506Y-124622796D01*
X79802333Y-124809999D01*
X79881673Y-124965711D01*
X79891692Y-124985375D01*
X80007388Y-125144616D01*
X80146570Y-125283798D01*
X80305811Y-125399494D01*
X80388671Y-125441713D01*
X80481186Y-125488852D01*
X80481188Y-125488852D01*
X80481191Y-125488854D01*
X80581533Y-125521457D01*
X80668389Y-125549679D01*
X80862794Y-125580470D01*
X80862799Y-125580470D01*
X81059638Y-125580470D01*
X81254042Y-125549679D01*
X81441241Y-125488854D01*
X81616621Y-125399494D01*
X81775862Y-125283798D01*
X81915044Y-125144616D01*
X82030740Y-124985375D01*
X82120100Y-124809995D01*
X82180925Y-124622796D01*
X82182316Y-124614015D01*
X82208183Y-124450698D01*
X120434752Y-124450698D01*
X120447568Y-124535728D01*
X120454993Y-124584985D01*
X120513915Y-124707340D01*
X120513916Y-124707341D01*
X120533417Y-124730878D01*
X121105136Y-125302597D01*
X121128673Y-125322098D01*
X121251028Y-125381021D01*
X121385316Y-125401262D01*
X121519603Y-125381021D01*
X121641958Y-125322098D01*
X121665495Y-125302597D01*
X122626123Y-124341969D01*
X122645624Y-124318432D01*
X122704547Y-124196077D01*
X122724788Y-124061790D01*
X122704547Y-123927502D01*
X122645624Y-123805147D01*
X122626123Y-123781610D01*
X122054404Y-123209891D01*
X122030867Y-123190390D01*
X122030866Y-123190389D01*
X121967434Y-123159842D01*
X121908512Y-123131467D01*
X121774224Y-123111226D01*
X121639937Y-123131467D01*
X121517582Y-123190389D01*
X121494040Y-123209895D01*
X120533421Y-124170514D01*
X120513915Y-124194056D01*
X120454993Y-124316411D01*
X120434752Y-124450698D01*
X82208183Y-124450698D01*
X82211715Y-124428398D01*
X82211716Y-124428386D01*
X82211716Y-124231547D01*
X82180925Y-124037143D01*
X82120098Y-123849940D01*
X82030739Y-123674564D01*
X81915044Y-123515324D01*
X81775862Y-123376142D01*
X81616621Y-123260446D01*
X81441245Y-123171087D01*
X81254042Y-123110260D01*
X81059638Y-123079470D01*
X81059633Y-123079470D01*
X80862799Y-123079470D01*
X80862794Y-123079470D01*
X80668389Y-123110260D01*
X80481186Y-123171087D01*
X80305810Y-123260446D01*
X80214957Y-123326455D01*
X80146570Y-123376142D01*
X80146568Y-123376144D01*
X80146567Y-123376144D01*
X80007390Y-123515321D01*
X80007390Y-123515322D01*
X80007388Y-123515324D01*
X79957701Y-123583711D01*
X79891692Y-123674564D01*
X79802333Y-123849940D01*
X79741506Y-124037143D01*
X79710716Y-124231547D01*
X79059234Y-124231547D01*
X79129912Y-124160869D01*
X79229416Y-124023913D01*
X79306271Y-123873077D01*
X79358584Y-123712075D01*
X79364525Y-123674564D01*
X79385066Y-123544877D01*
X79385066Y-123375578D01*
X79358584Y-123208380D01*
X79306269Y-123047374D01*
X79277981Y-122991857D01*
X79229416Y-122896543D01*
X79216703Y-122879045D01*
X79129917Y-122759593D01*
X79129913Y-122759588D01*
X79010205Y-122639880D01*
X79010200Y-122639876D01*
X78873254Y-122540380D01*
X78873253Y-122540379D01*
X78873251Y-122540378D01*
X78826148Y-122516378D01*
X78722419Y-122463524D01*
X78561413Y-122411209D01*
X78394215Y-122384728D01*
X78394210Y-122384728D01*
X78224922Y-122384728D01*
X78224917Y-122384728D01*
X78057718Y-122411209D01*
X77896712Y-122463524D01*
X77745877Y-122540380D01*
X77608931Y-122639876D01*
X77608926Y-122639880D01*
X77489218Y-122759588D01*
X77489214Y-122759593D01*
X77389718Y-122896539D01*
X77312862Y-123047374D01*
X77260547Y-123208380D01*
X77234066Y-123375578D01*
X75100085Y-123375578D01*
X75481015Y-122994648D01*
X75483869Y-122991886D01*
X76304920Y-122222888D01*
X76307891Y-122220195D01*
X77153700Y-121478440D01*
X77156697Y-121475898D01*
X78026316Y-120762220D01*
X78029449Y-120759734D01*
X78921928Y-120074910D01*
X78925137Y-120072530D01*
X79839551Y-119417271D01*
X79842822Y-119415007D01*
X80778207Y-118790001D01*
X80781544Y-118787850D01*
X81736866Y-118193793D01*
X81740265Y-118191756D01*
X82714544Y-117629255D01*
X82717989Y-117627341D01*
X83710112Y-117097040D01*
X83713678Y-117095208D01*
X84722604Y-116597661D01*
X84726223Y-116595949D01*
X85750908Y-116131671D01*
X85754552Y-116130092D01*
X86793886Y-115699585D01*
X86797607Y-115698115D01*
X87850439Y-115301858D01*
X87854193Y-115300514D01*
X88919451Y-114938907D01*
X88923222Y-114937696D01*
X89999790Y-114611122D01*
X90003584Y-114610039D01*
X90913481Y-114366233D01*
X91090191Y-114318884D01*
X91094107Y-114317902D01*
X92189708Y-114062444D01*
X92193545Y-114061616D01*
X93296876Y-113842150D01*
X93300796Y-113841436D01*
X94410755Y-113658181D01*
X94414704Y-113657595D01*
X95530034Y-113510759D01*
X95533952Y-113510308D01*
X96653480Y-113400045D01*
X96657517Y-113399715D01*
X97780009Y-113326142D01*
X97784031Y-113325943D01*
X98908353Y-113289137D01*
X98912410Y-113289071D01*
X100037272Y-113289071D01*
X100041329Y-113289137D01*
G37*
%TD.AperFunction*%
%TD*%
M02*
