M48
; DRILL file {KiCad 9.0.6-rc2} date 2026-05-07T23:39:29+0800
; FORMAT={-:-/ absolute / metric / decimal}
; #@! TF.CreationDate,2026-05-07T23:39:29+08:00
; #@! TF.GenerationSoftware,Kicad,Pcbnew,9.0.6-rc2
; #@! TF.FileFunction,Plated,1,4,PTH
FMAT,2
METRIC
; #@! TA.AperFunction,Plated,PTH,ComponentDrill
T1C0.200
; #@! TA.AperFunction,Plated,PTH,ViaDrill
T2C0.300
; #@! TA.AperFunction,Plated,PTH,ViaDrill
T3C0.350
; #@! TA.AperFunction,Plated,PTH,ViaDrill
T4C0.400
; #@! TA.AperFunction,Plated,PTH,ComponentDrill
T5C0.500
; #@! TA.AperFunction,Plated,PTH,ComponentDrill
T6C0.600
; #@! TA.AperFunction,Plated,PTH,ComponentDrill
T7C0.750
; #@! TA.AperFunction,Plated,PTH,ComponentDrill
T8C0.990
; #@! TA.AperFunction,Plated,PTH,ComponentDrill
T9C1.000
; #@! TA.AperFunction,Plated,PTH,ComponentDrill
T10C1.300
%
G90
G05
T1
X122.126Y-147.084
X122.126Y-148.484
X123.326Y-147.084
X123.326Y-148.484
X124.526Y-147.084
X124.526Y-148.484
T2
X71.307Y-154.639
X75.547Y-161.539
X76.003Y-163.958
X78.009Y-165.561
X78.752Y-164.698
X79.226Y-145.045
X79.32Y-152.739
X79.326Y-147.245
X79.363Y-149.445
X80.226Y-146.045
X80.326Y-148.345
X80.626Y-144.345
X80.915Y-140.731
X81.026Y-169.045
X81.051Y-141.756
X81.105Y-161.69
X81.345Y-139.913
X81.651Y-141.045
X81.807Y-143.489
X81.807Y-150.539
X81.807Y-151.639
X81.807Y-153.689
X81.911Y-167.902
X82.286Y-138.405
X82.715Y-137.738
X83.101Y-138.438
X83.301Y-137.32
X83.37Y-140.851
X83.558Y-140.321
X83.618Y-141.414
X83.907Y-164.491
X84.026Y-148.745
X84.119Y-140.819
X84.826Y-150.145
X85.018Y-138.522
X85.242Y-137.732
X85.256Y-133.825
X85.701Y-134.787
X85.85Y-133.19
X86.026Y-134.045
X86.112Y-148.119
X86.15Y-132.192
X86.384Y-131.532
X87.01Y-132.029
X87.048Y-131.23
X87.301Y-133.392
X89.026Y-126.845
X90.381Y-156.698
X90.526Y-138.745
X91.026Y-137.545
X91.15Y-139.212
X91.279Y-157.596
X91.626Y-138.11
X91.754Y-137.364
X92.177Y-158.494
X92.207Y-136.65
X92.288Y-137.758
X92.51Y-138.283
X92.726Y-151.008
X92.946Y-125.13
X93.057Y-136.65
X93.231Y-135.732
X93.526Y-152.345
X93.667Y-136.215
X93.79Y-136.809
X94.026Y-170.545
X94.222Y-155.35
X94.413Y-156.283
X94.426Y-131.745
X95.046Y-125.112
X95.276Y-156.995
X95.326Y-157.945
X95.375Y-175.995
X96.446Y-160.975
X96.476Y-169.522
X96.488Y-144.44
X96.506Y-166.025
X96.526Y-177.045
X96.546Y-148.165
X96.546Y-149.845
X96.606Y-154.655
X96.725Y-170.094
X96.791Y-168.959
X96.801Y-145.896
X97.026Y-174.645
X97.176Y-169.545
X97.726Y-125.245
X98.026Y-169.545
X98.126Y-174.745
X98.184Y-143.335
X98.261Y-146.692
X98.266Y-156.395
X98.276Y-148.165
X98.276Y-149.845
X98.296Y-153.125
X98.301Y-166.025
X98.526Y-146.045
X98.601Y-145.045
X98.601Y-170.545
X99.451Y-170.545
X99.726Y-174.745
X99.781Y-169.927
X99.801Y-166.025
X100.101Y-171.545
X100.357Y-125.589
X100.951Y-171.545
X101.225Y-172.196
X101.252Y-170.913
X101.486Y-148.165
X101.486Y-149.845
X101.546Y-159.495
X101.566Y-166.025
X101.65Y-171.524
X102.332Y-130.465
X103.326Y-169.545
X103.326Y-171.545
X104.926Y-131.045
X105.376Y-129.295
X105.626Y-170.845
X105.876Y-146.07
X106.276Y-147.37
X106.359Y-148.166
X106.59Y-145.061
X106.591Y-129.379
X106.65Y-169.969
X106.838Y-120.095
X107.026Y-139.245
X107.085Y-147.375
X107.326Y-146.345
X107.65Y-139.744
X108.026Y-171.307
X108.079Y-146.673
X108.301Y-175.02
X108.726Y-150.545
X108.926Y-144.395
X109.526Y-150.545
X110.12Y-146.195
X110.826Y-161.545
X110.826Y-167.845
X111.284Y-154.025
X112.019Y-151.052
X112.21Y-140.343
X113.057Y-134.289
X113.433Y-149.637
X114.02Y-130.639
X114.026Y-156.045
X114.026Y-162.345
X114.226Y-144.145
X116.126Y-142.445
X116.226Y-146.245
X116.645Y-132.964
X118.426Y-144.395
X118.426Y-149.145
X118.525Y-146.195
X118.826Y-154.745
X119.17Y-135.389
X119.526Y-151.045
X119.701Y-152.069
X119.726Y-153.345
X121.326Y-138.343
X121.326Y-141.613
X122.526Y-152.545
X123.563Y-153.545
X124.301Y-152.435
X124.878Y-137.795
X125.026Y-143.045
X125.415Y-148.455
X125.934Y-149.09
X126.225Y-148.345
X126.676Y-146.407
X126.726Y-149.245
X126.826Y-147.744
X126.996Y-146.962
X127.126Y-138.695
X127.326Y-143.045
X128.116Y-145.384
X128.116Y-150.184
X128.691Y-139.337
X130.526Y-146.045
X130.526Y-148.045
X130.826Y-152.104
X131.713Y-154.745
X131.713Y-157.045
T3
X111.926Y-133.945
X115.055Y-135.898
X117.53Y-138.373
T4
X106.726Y-116.845
X108.126Y-117.845
X109.526Y-117.845
X111.226Y-118.045
X111.926Y-116.445
X117.126Y-126.345
X118.27Y-127.514
X118.726Y-122.945
X119.737Y-128.982
X122.976Y-134.508
T5
X108.126Y-132.545
X109.126Y-132.545
T7
X121.58Y-124.256
X122.994Y-125.67
T8
X75.128Y-126.642
X78.31Y-123.46
X125.535Y-165.799
X127.785Y-161.902
T9
X74.193Y-167.656
X75.989Y-169.452
X77.785Y-171.248
X79.581Y-173.044
T10
X76.004Y-129.287
X80.961Y-124.33
X122.748Y-165.645
X126.253Y-159.574
T6
X128.166Y-143.464G85X129.266Y-143.464
G05
X128.166Y-152.104G85X129.266Y-152.104
G05
X132.516Y-143.464G85X133.316Y-143.464
G05
X132.516Y-152.104G85X133.316Y-152.104
G05
M30
