%TF.GenerationSoftware,KiCad,Pcbnew,9.0.6-rc2*%
%TF.CreationDate,2026-05-07T23:38:51+08:00*%
%TF.ProjectId,R2000_R1.1,52323030-305f-4523-912e-312e6b696361,1.0*%
%TF.SameCoordinates,Original*%
%TF.FileFunction,Copper,L1,Top*%
%TF.FilePolarity,Positive*%
%FSLAX46Y46*%
G04 Gerber Fmt 4.6, Leading zero omitted, Abs format (unit mm)*
G04 Created by KiCad (PCBNEW 9.0.6-rc2) date 2026-05-07 23:38:51*
%MOMM*%
%LPD*%
G01*
G04 APERTURE LIST*
G04 Aperture macros list*
%AMRoundRect*
0 Rectangle with rounded corners*
0 $1 Rounding radius*
0 $2 $3 $4 $5 $6 $7 $8 $9 X,Y pos of 4 corners*
0 Add a 4 corners polygon primitive as box body*
4,1,4,$2,$3,$4,$5,$6,$7,$8,$9,$2,$3,0*
0 Add four circle primitives for the rounded corners*
1,1,$1+$1,$2,$3*
1,1,$1+$1,$4,$5*
1,1,$1+$1,$6,$7*
1,1,$1+$1,$8,$9*
0 Add four rect primitives between the rounded corners*
20,1,$1+$1,$2,$3,$4,$5,0*
20,1,$1+$1,$4,$5,$6,$7,0*
20,1,$1+$1,$6,$7,$8,$9,0*
20,1,$1+$1,$8,$9,$2,$3,0*%
%AMHorizOval*
0 Thick line with rounded ends*
0 $1 width*
0 $2 $3 position (X,Y) of the first rounded end (center of the circle)*
0 $4 $5 position (X,Y) of the second rounded end (center of the circle)*
0 Add line between two ends*
20,1,$1,$2,$3,$4,$5,0*
0 Add two circle primitives to create the rounded ends*
1,1,$1,$2,$3*
1,1,$1,$4,$5*%
%AMRotRect*
0 Rectangle, with rotation*
0 The origin of the aperture is its center*
0 $1 length*
0 $2 width*
0 $3 Rotation angle, in degrees counterclockwise*
0 Add horizontal line*
21,1,$1,$2,0,0,$3*%
G04 Aperture macros list end*
%TA.AperFunction,ComponentPad*%
%ADD10RoundRect,0.250000X-0.689429X-0.194454X-0.194454X-0.689429X0.689429X0.194454X0.194454X0.689429X0*%
%TD*%
%TA.AperFunction,ComponentPad*%
%ADD11HorizOval,1.200000X-0.194454X-0.194454X0.194454X0.194454X0*%
%TD*%
%TA.AperFunction,ComponentPad*%
%ADD12R,0.850000X0.850000*%
%TD*%
%TA.AperFunction,ComponentPad*%
%ADD13C,0.850000*%
%TD*%
%TA.AperFunction,SMDPad,CuDef*%
%ADD14RoundRect,0.150000X0.256326X0.468458X-0.468458X-0.256326X-0.256326X-0.468458X0.468458X0.256326X0*%
%TD*%
%TA.AperFunction,SMDPad,CuDef*%
%ADD15RoundRect,0.250000X-0.475000X0.337500X-0.475000X-0.337500X0.475000X-0.337500X0.475000X0.337500X0*%
%TD*%
%TA.AperFunction,SMDPad,CuDef*%
%ADD16R,2.450000X5.900000*%
%TD*%
%TA.AperFunction,SMDPad,CuDef*%
%ADD17RoundRect,0.250000X-0.350000X-0.450000X0.350000X-0.450000X0.350000X0.450000X-0.350000X0.450000X0*%
%TD*%
%TA.AperFunction,SMDPad,CuDef*%
%ADD18RoundRect,0.150000X-0.512500X-0.150000X0.512500X-0.150000X0.512500X0.150000X-0.512500X0.150000X0*%
%TD*%
%TA.AperFunction,SMDPad,CuDef*%
%ADD19RoundRect,0.250000X-1.000000X-0.650000X1.000000X-0.650000X1.000000X0.650000X-1.000000X0.650000X0*%
%TD*%
%TA.AperFunction,ComponentPad*%
%ADD20C,2.100000*%
%TD*%
%TA.AperFunction,ComponentPad*%
%ADD21C,1.750000*%
%TD*%
%TA.AperFunction,SMDPad,CuDef*%
%ADD22R,1.000000X1.700000*%
%TD*%
%TA.AperFunction,SMDPad,CuDef*%
%ADD23RoundRect,0.250000X-0.097227X0.574524X-0.574524X0.097227X0.097227X-0.574524X0.574524X-0.097227X0*%
%TD*%
%TA.AperFunction,ComponentPad*%
%ADD24RotRect,1.700000X1.700000X225.000000*%
%TD*%
%TA.AperFunction,ComponentPad*%
%ADD25C,1.700000*%
%TD*%
%TA.AperFunction,SMDPad,CuDef*%
%ADD26RoundRect,0.150000X-0.150000X0.825000X-0.150000X-0.825000X0.150000X-0.825000X0.150000X0.825000X0*%
%TD*%
%TA.AperFunction,HeatsinkPad*%
%ADD27C,0.500000*%
%TD*%
%TA.AperFunction,HeatsinkPad*%
%ADD28R,3.300000X2.410000*%
%TD*%
%TA.AperFunction,SMDPad,CuDef*%
%ADD29RoundRect,0.250000X-0.450000X0.350000X-0.450000X-0.350000X0.450000X-0.350000X0.450000X0.350000X0*%
%TD*%
%TA.AperFunction,SMDPad,CuDef*%
%ADD30RoundRect,0.250000X0.350000X0.450000X-0.350000X0.450000X-0.350000X-0.450000X0.350000X-0.450000X0*%
%TD*%
%TA.AperFunction,SMDPad,CuDef*%
%ADD31RoundRect,0.250000X0.070711X-0.565685X0.565685X-0.070711X-0.070711X0.565685X-0.565685X0.070711X0*%
%TD*%
%TA.AperFunction,SMDPad,CuDef*%
%ADD32RoundRect,0.150000X-0.587500X-0.150000X0.587500X-0.150000X0.587500X0.150000X-0.587500X0.150000X0*%
%TD*%
%TA.AperFunction,SMDPad,CuDef*%
%ADD33R,1.240000X0.600000*%
%TD*%
%TA.AperFunction,SMDPad,CuDef*%
%ADD34R,1.240000X0.300000*%
%TD*%
%TA.AperFunction,HeatsinkPad*%
%ADD35O,2.100000X1.000000*%
%TD*%
%TA.AperFunction,HeatsinkPad*%
%ADD36O,1.800000X1.000000*%
%TD*%
%TA.AperFunction,SMDPad,CuDef*%
%ADD37R,0.300000X1.300000*%
%TD*%
%TA.AperFunction,SMDPad,CuDef*%
%ADD38R,1.800000X2.200000*%
%TD*%
%TA.AperFunction,SMDPad,CuDef*%
%ADD39RoundRect,0.250000X0.337500X0.475000X-0.337500X0.475000X-0.337500X-0.475000X0.337500X-0.475000X0*%
%TD*%
%TA.AperFunction,SMDPad,CuDef*%
%ADD40RoundRect,0.250000X0.574524X0.097227X0.097227X0.574524X-0.574524X-0.097227X-0.097227X-0.574524X0*%
%TD*%
%TA.AperFunction,SMDPad,CuDef*%
%ADD41RoundRect,0.250000X-0.337500X-0.475000X0.337500X-0.475000X0.337500X0.475000X-0.337500X0.475000X0*%
%TD*%
%TA.AperFunction,SMDPad,CuDef*%
%ADD42RotRect,0.750000X1.200000X225.000000*%
%TD*%
%TA.AperFunction,SMDPad,CuDef*%
%ADD43RotRect,0.750000X1.200000X135.000000*%
%TD*%
%TA.AperFunction,ViaPad*%
%ADD44C,0.600000*%
%TD*%
%TA.AperFunction,ViaPad*%
%ADD45C,0.400000*%
%TD*%
%TA.AperFunction,ViaPad*%
%ADD46C,0.500000*%
%TD*%
%TA.AperFunction,ViaPad*%
%ADD47C,0.800000*%
%TD*%
%TA.AperFunction,ViaPad*%
%ADD48C,1.000000*%
%TD*%
%TA.AperFunction,ViaPad*%
%ADD49C,0.700000*%
%TD*%
%TA.AperFunction,Conductor*%
%ADD50C,0.200000*%
%TD*%
%TA.AperFunction,Conductor*%
%ADD51C,1.000000*%
%TD*%
%TA.AperFunction,Conductor*%
%ADD52C,0.800000*%
%TD*%
%TA.AperFunction,Conductor*%
%ADD53C,0.600000*%
%TD*%
%TA.AperFunction,Conductor*%
%ADD54C,0.300000*%
%TD*%
%TA.AperFunction,Conductor*%
%ADD55C,0.400000*%
%TD*%
%TA.AperFunction,Conductor*%
%ADD56C,1.500000*%
%TD*%
%TA.AperFunction,Conductor*%
%ADD57C,2.000000*%
%TD*%
%TA.AperFunction,Conductor*%
%ADD58C,0.350000*%
%TD*%
%TA.AperFunction,Conductor*%
%ADD59C,1.750000*%
%TD*%
G04 APERTURE END LIST*
D10*
%TO.P,J1,1,Pin_1*%
%TO.N,Net-(J1-Pin_1)*%
X121579770Y-124256244D03*
D11*
%TO.P,J1,2,Pin_2*%
%TO.N,/3V7*%
X122993984Y-125670458D03*
%TD*%
D12*
%TO.P,JP1,1,A*%
%TO.N,/C6_IO9*%
X109125629Y-132544523D03*
D13*
%TO.P,JP1,2,B*%
%TO.N,Net-(JP1-B)*%
X108125629Y-132544523D03*
%TD*%
D14*
%TO.P,U7,1,V_{IN}*%
%TO.N,/3V7*%
X119607213Y-137638835D03*
%TO.P,U7,2,V_{SS}*%
%TO.N,GND*%
X118935462Y-136967084D03*
%TO.P,U7,3,CE*%
%TO.N,/3V7*%
X118263711Y-136295333D03*
%TO.P,U7,4,NC*%
%TO.N,unconnected-(U7-NC-Pad4)*%
X116655043Y-137904001D03*
%TO.P,U7,5,V_{OUT}*%
%TO.N,/1V8*%
X117998545Y-139247503D03*
%TD*%
D15*
%TO.P,C19,1*%
%TO.N,GND*%
X111175629Y-118057023D03*
%TO.P,C19,2*%
%TO.N,/3V7*%
X111175629Y-120132023D03*
%TD*%
%TO.P,C20,1*%
%TO.N,/5V*%
X100275629Y-123432022D03*
%TO.P,C20,2*%
%TO.N,GND*%
X100275629Y-125507022D03*
%TD*%
D16*
%TO.P,BIGGGG INDUCTOR,1*%
%TO.N,/3V7*%
X110750629Y-125594523D03*
%TO.P,BIGGGG INDUCTOR,2*%
%TO.N,Net-(D3-A)*%
X105200629Y-125594523D03*
%TD*%
D17*
%TO.P,R22,1*%
%TO.N,/5V*%
X100275629Y-116894523D03*
%TO.P,R22,2*%
%TO.N,Net-(U8-FB)*%
X102275629Y-116894523D03*
%TD*%
%TO.P,R23,1*%
%TO.N,Net-(U8-FB)*%
X104775629Y-116894523D03*
%TO.P,R23,2*%
%TO.N,GND*%
X106775629Y-116894523D03*
%TD*%
D18*
%TO.P,5V BOOST,1,SW*%
%TO.N,Net-(D3-A)*%
X106838129Y-119144523D03*
%TO.P,5V BOOST,2,GND*%
%TO.N,GND*%
X106838129Y-120094523D03*
%TO.P,5V BOOST,3,FB*%
%TO.N,Net-(U8-FB)*%
X106838129Y-121044523D03*
%TO.P,5V BOOST,4,EN*%
%TO.N,/3V7*%
X109113129Y-121044523D03*
%TO.P,5V BOOST,5,IN*%
X109113129Y-120094523D03*
%TO.P,5V BOOST,6,NC*%
%TO.N,unconnected-(U8-NC-Pad6)*%
X109113129Y-119144523D03*
%TD*%
D19*
%TO.P,D3,1,K*%
%TO.N,/5V*%
X100275629Y-119794523D03*
%TO.P,D3,2,A*%
%TO.N,Net-(D3-A)*%
X104275629Y-119794523D03*
%TD*%
D20*
%TO.P,SHUTTER,*%
%TO.N,*%
X76004397Y-129286788D03*
X80961216Y-124329970D03*
D21*
%TO.P,SHUTTER,1,1*%
%TO.N,GND*%
X75127585Y-126642209D03*
%TO.P,SHUTTER,2,2*%
%TO.N,/GPIO11*%
X78309566Y-123460228D03*
%TD*%
D20*
%TO.P,POWER,*%
%TO.N,*%
X126253268Y-159574338D03*
X122748268Y-165645176D03*
D21*
%TO.P,POWER,1,1*%
%TO.N,/3V3*%
X127784671Y-161901870D03*
%TO.P,POWER,2,2*%
%TO.N,/GPIO53*%
X125534671Y-165798985D03*
%TD*%
D22*
%TO.P,SW2,1,1*%
%TO.N,/BOOT*%
X117825629Y-156044523D03*
X117825629Y-162344523D03*
%TO.P,SW2,2,2*%
%TO.N,GND*%
X114025629Y-156044523D03*
X114025629Y-162344523D03*
%TD*%
%TO.P,SW1,1,1*%
%TO.N,/CHIP_PU*%
X107025629Y-167844523D03*
X107025629Y-161544523D03*
%TO.P,SW1,2,2*%
%TO.N,GND*%
X110825629Y-167844523D03*
X110825629Y-161544523D03*
%TD*%
D23*
%TO.P,C21,2*%
%TO.N,/5V*%
X82439842Y-165958736D03*
%TO.P,C21,1*%
%TO.N,GND*%
X83907088Y-164491490D03*
%TD*%
%TO.P,C23,2*%
%TO.N,/5V*%
X79584899Y-163156826D03*
%TO.P,C23,1*%
%TO.N,GND*%
X81052145Y-161689580D03*
%TD*%
%TO.P,C25,2*%
%TO.N,/5V*%
X81025629Y-164544523D03*
%TO.P,C25,1*%
%TO.N,GND*%
X82492875Y-163077277D03*
%TD*%
D24*
%TO.P,J6,1,Pin_1*%
%TO.N,/RED*%
X79580949Y-173044237D03*
D25*
%TO.P,J6,2,Pin_2*%
%TO.N,/GREEN*%
X77784898Y-171248186D03*
%TO.P,J6,3,Pin_3*%
%TO.N,/BLUE*%
X75988847Y-169452135D03*
%TO.P,J6,4,Pin_4*%
%TO.N,/5V*%
X74192795Y-167656083D03*
%TD*%
D14*
%TO.P,U5,5,V_{OUT}*%
%TO.N,/2V8*%
X115532044Y-136764257D03*
%TO.P,U5,4,NC*%
%TO.N,unconnected-(U5-NC-Pad4)*%
X114188542Y-135420755D03*
%TO.P,U5,3,CE*%
%TO.N,/3V7*%
X115797210Y-133812087D03*
%TO.P,U5,2,V_{SS}*%
%TO.N,GND*%
X116468961Y-134483838D03*
%TO.P,U5,1,V_{IN}*%
%TO.N,/3V7*%
X117140712Y-135155589D03*
%TD*%
%TO.P,U4,5,VOUT*%
%TO.N,/3V3*%
X113057170Y-134289383D03*
%TO.P,U4,4,NC*%
%TO.N,unconnected-(U4-NC-Pad4)*%
X111713668Y-132945881D03*
%TO.P,U4,3,CE*%
%TO.N,/3V7*%
X113322336Y-131337213D03*
%TO.P,U4,2,GND*%
%TO.N,GND*%
X113994087Y-132008964D03*
%TO.P,U4,1,VIN*%
%TO.N,/3V7*%
X114665838Y-132680715D03*
%TD*%
D18*
%TO.P,U3,1,OD*%
%TO.N,Net-(Q1-G)*%
X124388129Y-135094523D03*
%TO.P,U3,2,CS*%
%TO.N,Net-(U3-CS)*%
X124388129Y-136044523D03*
%TO.P,U3,3,OC*%
%TO.N,Net-(Q2-G)*%
X124388129Y-136994523D03*
%TO.P,U3,4,TD*%
%TO.N,unconnected-(U3-TD-Pad4)*%
X126663129Y-136994523D03*
%TO.P,U3,5,VCC*%
%TO.N,Net-(U3-VCC)*%
X126663129Y-136044523D03*
%TO.P,U3,6,GND*%
%TO.N,Net-(J1-Pin_1)*%
X126663129Y-135094523D03*
%TD*%
D26*
%TO.P,U2,1,TEMP*%
%TO.N,GND*%
X125230629Y-145308953D03*
%TO.P,U2,2,PROG*%
%TO.N,Net-(U2-PROG)*%
X123960629Y-145308953D03*
%TO.P,U2,3,GND*%
%TO.N,GND*%
X122690629Y-145308953D03*
%TO.P,U2,4,V_{CC}*%
%TO.N,/VIN*%
X121420629Y-145308953D03*
%TO.P,U2,5,BAT*%
%TO.N,/3V7*%
X121420629Y-150258953D03*
%TO.P,U2,6,~{STDBY}*%
%TO.N,Net-(U2-~{STDBY})*%
X122690629Y-150258953D03*
%TO.P,U2,7,~{CHRG}*%
%TO.N,Net-(U2-~{CHRG})*%
X123960629Y-150258953D03*
%TO.P,U2,8,CE*%
%TO.N,/VIN*%
X125230629Y-150258953D03*
D27*
%TO.P,U2,9,EPAD*%
%TO.N,GND*%
X124525629Y-147083953D03*
X123325629Y-147083953D03*
X122125629Y-147083953D03*
D28*
X123325629Y-147783953D03*
D27*
X124525629Y-148483953D03*
X123325629Y-148483953D03*
X122125629Y-148483953D03*
%TD*%
D29*
%TO.P,R48,1*%
%TO.N,/3V3*%
X71325629Y-151244523D03*
%TO.P,R48,2*%
%TO.N,/GPIO28*%
X71325629Y-153244523D03*
%TD*%
D30*
%TO.P,R18,1*%
%TO.N,/SD_CMD*%
X79325629Y-147244523D03*
%TO.P,R18,2*%
%TO.N,/3V3*%
X77325629Y-147244523D03*
%TD*%
%TO.P,R17,1*%
%TO.N,/SD_DATA3*%
X75425629Y-146044523D03*
%TO.P,R17,2*%
%TO.N,/3V3*%
X73425629Y-146044523D03*
%TD*%
D29*
%TO.P,R16,1*%
%TO.N,/DIM*%
X95025629Y-167144523D03*
%TO.P,R16,2*%
%TO.N,Net-(Q3-G)*%
X95025629Y-169144523D03*
%TD*%
D30*
%TO.P,R15,1*%
%TO.N,/SD_DATA2*%
X79225629Y-145044523D03*
%TO.P,R15,2*%
%TO.N,/3V3*%
X77225629Y-145044523D03*
%TD*%
%TO.P,R14,1*%
%TO.N,/SD_DATA1*%
X79325629Y-152744523D03*
%TO.P,R14,2*%
%TO.N,/3V3*%
X77325629Y-152744523D03*
%TD*%
%TO.P,R13,1*%
%TO.N,/SD_DATA0*%
X75325629Y-151644523D03*
%TO.P,R13,2*%
%TO.N,/3V3*%
X73325629Y-151644523D03*
%TD*%
D31*
%TO.P,R11,1*%
%TO.N,/BOOT*%
X115018522Y-152951630D03*
%TO.P,R11,2*%
%TO.N,/3V3*%
X116432736Y-151537416D03*
%TD*%
D29*
%TO.P,R6,1*%
%TO.N,/3V3*%
X90025629Y-169244523D03*
%TO.P,R6,2*%
%TO.N,Net-(J3-Pin_3)*%
X90025629Y-171244523D03*
%TD*%
D17*
%TO.P,R3,2*%
%TO.N,GND*%
X125025629Y-143044523D03*
%TO.P,R3,1*%
%TO.N,Net-(U2-PROG)*%
X123025629Y-143044523D03*
%TD*%
%TO.P,R1,2*%
%TO.N,Net-(U3-VCC)*%
X127425629Y-129044523D03*
%TO.P,R1,1*%
%TO.N,/3V7*%
X125425629Y-129044523D03*
%TD*%
D32*
%TO.P,Q3,1,G*%
%TO.N,Net-(Q3-G)*%
X92188129Y-169594523D03*
%TO.P,Q3,2,S*%
%TO.N,/LED*%
X92188129Y-171494523D03*
%TO.P,Q3,3,D*%
%TO.N,GND*%
X94063129Y-170544523D03*
%TD*%
D18*
%TO.P,Q2,1,D*%
%TO.N,Net-(Q1-D-Pad1)*%
X120163129Y-131594523D03*
%TO.P,Q2,2,D*%
X120163129Y-132544523D03*
%TO.P,Q2,3,G*%
%TO.N,Net-(Q2-G)*%
X120163129Y-133494523D03*
%TO.P,Q2,4,S*%
%TO.N,GND*%
X122438129Y-133494523D03*
%TO.P,Q2,5,D*%
%TO.N,Net-(Q1-D-Pad1)*%
X122438129Y-132544523D03*
%TO.P,Q2,6,D*%
X122438129Y-131594523D03*
%TD*%
%TO.P,Q1,1,D*%
%TO.N,Net-(Q1-D-Pad1)*%
X124388129Y-131594523D03*
%TO.P,Q1,2,D*%
X124388129Y-132544523D03*
%TO.P,Q1,3,G*%
%TO.N,Net-(Q1-G)*%
X124388129Y-133494523D03*
%TO.P,Q1,4,S*%
%TO.N,Net-(J1-Pin_1)*%
X126663129Y-133494523D03*
%TO.P,Q1,5,D*%
%TO.N,Net-(Q1-D-Pad1)*%
X126663129Y-132544523D03*
%TO.P,Q1,6,D*%
X126663129Y-131594523D03*
%TD*%
D33*
%TO.P,J5,A1,GND*%
%TO.N,GND*%
X128115782Y-150983953D03*
%TO.P,J5,A4,VBUS*%
%TO.N,/VIN*%
X128115782Y-150183953D03*
D34*
%TO.P,J5,A5,CC1*%
%TO.N,Net-(J5-CC1)*%
X128115782Y-149033953D03*
%TO.P,J5,A6,D+*%
%TO.N,/DATA+*%
X128115782Y-148033953D03*
%TO.P,J5,A7,D-*%
%TO.N,unconnected-(J5-D--PadA7)*%
X128115782Y-147533953D03*
%TO.P,J5,A8,SBU1*%
%TO.N,unconnected-(J5-SBU1-PadA8)*%
X128115782Y-146533953D03*
D33*
%TO.P,J5,A9,VBUS*%
%TO.N,/VIN*%
X128115782Y-145383953D03*
%TO.P,J5,A12,GND*%
%TO.N,GND*%
X128115782Y-144583953D03*
%TO.P,J5,B1,GND*%
X128115782Y-144583953D03*
%TO.P,J5,B4,VBUS*%
%TO.N,/VIN*%
X128115782Y-145383953D03*
D34*
%TO.P,J5,B5,CC2*%
%TO.N,Net-(J5-CC2)*%
X128115782Y-146033953D03*
%TO.P,J5,B6,D+*%
%TO.N,unconnected-(J5-D+-PadB6)*%
X128115782Y-147033953D03*
%TO.P,J5,B7,D-*%
%TO.N,/DATA-*%
X128115782Y-148533953D03*
%TO.P,J5,B8,SBU2*%
%TO.N,unconnected-(J5-SBU2-PadB8)*%
X128115782Y-149533953D03*
D33*
%TO.P,J5,B9,VBUS*%
%TO.N,/VIN*%
X128115782Y-150183953D03*
%TO.P,J5,B12,GND*%
%TO.N,GND*%
X128115782Y-150983953D03*
D35*
%TO.P,J5,S1,SHIELD*%
X128715782Y-152103953D03*
D36*
X132915782Y-152103953D03*
D35*
X128715782Y-143463953D03*
D36*
X132915782Y-143463953D03*
%TD*%
D37*
%TO.P,J3,1,Pin_1*%
%TO.N,/LED*%
X92224841Y-173463998D03*
%TO.P,J3,2,Pin_2*%
X92724841Y-173463998D03*
%TO.P,J3,3,Pin_3*%
%TO.N,Net-(J3-Pin_3)*%
X93224841Y-173463998D03*
%TO.P,J3,4,Pin_4*%
%TO.N,GND*%
X93724841Y-173463998D03*
%TO.P,J3,5,Pin_5*%
%TO.N,/RST*%
X94224841Y-173463998D03*
%TO.P,J3,6,Pin_6*%
%TO.N,GND*%
X94724841Y-173463998D03*
%TO.P,J3,7,Pin_7*%
%TO.N,/2V8*%
X95224841Y-173463998D03*
%TO.P,J3,8,Pin_8*%
%TO.N,GND*%
X95724841Y-173463998D03*
%TO.P,J3,9,Pin_9*%
%TO.N,/1V8*%
X96224841Y-173463998D03*
%TO.P,J3,10,Pin_10*%
%TO.N,GND*%
X96724841Y-173463998D03*
%TO.P,J3,11,Pin_11*%
%TO.N,/DSI_D0P*%
X97224841Y-173463998D03*
%TO.P,J3,12,Pin_12*%
%TO.N,/DSI_D0N*%
X97724841Y-173463998D03*
%TO.P,J3,13,Pin_13*%
%TO.N,GND*%
X98224841Y-173463998D03*
%TO.P,J3,14,Pin_14*%
%TO.N,/DSI_D1P*%
X98724841Y-173463998D03*
%TO.P,J3,15,Pin_15*%
%TO.N,/DSI_D1N*%
X99224841Y-173463998D03*
%TO.P,J3,16,Pin_16*%
%TO.N,GND*%
X99724841Y-173463998D03*
%TO.P,J3,17,Pin_17*%
%TO.N,/DSI_DCLP*%
X100224841Y-173463998D03*
%TO.P,J3,18,Pin_18*%
%TO.N,/DSI_DCLN*%
X100724841Y-173463998D03*
%TO.P,J3,19,Pin_19*%
%TO.N,GND*%
X101224841Y-173463998D03*
%TO.P,J3,20,Pin_20*%
X101724841Y-173463998D03*
%TO.P,J3,21,Pin_21*%
X102224841Y-173463998D03*
%TO.P,J3,22,Pin_22*%
X102724841Y-173463998D03*
%TO.P,J3,23,Pin_23*%
X103224841Y-173463998D03*
%TO.P,J3,24,Pin_24*%
X103724841Y-173463998D03*
%TO.P,J3,25,Pin_25*%
%TO.N,/T_INT*%
X104224841Y-173463998D03*
%TO.P,J3,26,Pin_26*%
%TO.N,/SDA*%
X104724841Y-173463998D03*
%TO.P,J3,27,Pin_27*%
%TO.N,/SCL*%
X105224841Y-173463998D03*
%TO.P,J3,28,Pin_28*%
%TO.N,/T_RST*%
X105724841Y-173463998D03*
%TO.P,J3,29,Pin_29*%
%TO.N,/3V3*%
X106224841Y-173463998D03*
%TO.P,J3,30,Pin_30*%
%TO.N,GND*%
X106724841Y-173463998D03*
D38*
%TO.P,J3,MP*%
%TO.N,N/C*%
X90324841Y-176713998D03*
X108624841Y-176713998D03*
%TD*%
D39*
%TO.P,C16,1*%
%TO.N,/CHIP_PU*%
X105063129Y-165844523D03*
%TO.P,C16,2*%
%TO.N,GND*%
X102988129Y-165844523D03*
%TD*%
%TO.P,C15,1*%
%TO.N,Net-(J7-VDD)*%
X75525629Y-148344523D03*
%TO.P,C15,2*%
%TO.N,/3V3*%
X73450629Y-148344523D03*
%TD*%
%TO.P,C11,1*%
%TO.N,Net-(J7-VDD)*%
X79363129Y-149444523D03*
%TO.P,C11,2*%
%TO.N,/3V3*%
X77288129Y-149444523D03*
%TD*%
D40*
%TO.P,C4,1*%
%TO.N,/3V7*%
X119736942Y-128981637D03*
%TO.P,C4,2*%
%TO.N,GND*%
X118269696Y-127514391D03*
%TD*%
D15*
%TO.P,C3,1*%
%TO.N,/VIN*%
X125525629Y-152507023D03*
%TO.P,C3,2*%
%TO.N,GND*%
X125525629Y-154582023D03*
%TD*%
D41*
%TO.P,C2,1*%
%TO.N,/3V7*%
X121488129Y-153544523D03*
%TO.P,C2,2*%
%TO.N,GND*%
X123563129Y-153544523D03*
%TD*%
D15*
%TO.P,C1,1*%
%TO.N,Net-(U3-VCC)*%
X129025629Y-132507023D03*
%TO.P,C1,2*%
%TO.N,Net-(J1-Pin_1)*%
X129025629Y-134582023D03*
%TD*%
D29*
%TO.P,R2,1*%
%TO.N,Net-(U3-CS)*%
X128691093Y-137337370D03*
%TO.P,R2,2*%
%TO.N,GND*%
X128691093Y-139337370D03*
%TD*%
D42*
%TO.P,U1,80,GND*%
%TO.N,GND*%
X117569703Y-147739316D03*
%TO.P,U1,79,GND*%
X116671678Y-148637342D03*
%TO.P,U1,78,ESP_3V3*%
%TO.N,/3V3*%
X115773652Y-149535368D03*
%TO.P,U1,77,ESP_3V3*%
X114875626Y-150433393D03*
%TO.P,U1,76,GPIO0*%
%TO.N,/BOOT*%
X113977601Y-151331419D03*
%TO.P,U1,75,CHIP_PU*%
%TO.N,/CHIP_PU*%
X113079575Y-152229444D03*
%TO.P,U1,74,GPIO54*%
%TO.N,unconnected-(U1-GPIO54-Pad74)*%
X112181550Y-153127470D03*
%TO.P,U1,73,GPIO53*%
%TO.N,/GPIO53*%
X111283524Y-154025496D03*
%TO.P,U1,72,GPIO52*%
%TO.N,unconnected-(U1-GPIO52-Pad72)*%
X110385498Y-154923521D03*
%TO.P,U1,71,GPIO51*%
%TO.N,unconnected-(U1-GPIO51-Pad71)*%
X109487473Y-155821547D03*
%TO.P,U1,70,GPIO50*%
%TO.N,unconnected-(U1-GPIO50-Pad70)*%
X108589447Y-156719573D03*
%TO.P,U1,69,GPIO49*%
%TO.N,unconnected-(U1-GPIO49-Pad69)*%
X107691422Y-157617598D03*
%TO.P,U1,68,GPIO48*%
%TO.N,unconnected-(U1-GPIO48-Pad68)*%
X106793396Y-158515624D03*
%TO.P,U1,67,GPIO47*%
%TO.N,unconnected-(U1-GPIO47-Pad67)*%
X105895370Y-159413649D03*
%TO.P,U1,66,GPIO46*%
%TO.N,unconnected-(U1-GPIO46-Pad66)*%
X104997345Y-160311675D03*
%TO.P,U1,65,GPIO45*%
%TO.N,unconnected-(U1-GPIO45-Pad65)*%
X104099319Y-161209701D03*
%TO.P,U1,64,GPIO44*%
%TO.N,/SD_CLK*%
X103201294Y-162107726D03*
%TO.P,U1,63,GPIO43*%
%TO.N,/SD_CMD*%
X102303268Y-163005752D03*
%TO.P,U1,62,GPIO42*%
%TO.N,/SD_DATA3*%
X101405242Y-163903777D03*
%TO.P,U1,61,GPIO41*%
%TO.N,/SD_DATA2*%
X100507217Y-164801803D03*
D43*
%TO.P,U1,60,GPIO40*%
%TO.N,/SD_DATA1*%
X98463678Y-164780590D03*
%TO.P,U1,59,GPIO39*%
%TO.N,/SD_DATA0*%
X97565652Y-163882564D03*
%TO.P,U1,58,ESP_LDO_VO4*%
%TO.N,unconnected-(U1-ESP_LDO_VO4-Pad58)*%
X96667627Y-162984539D03*
%TO.P,U1,57,GPIO38*%
%TO.N,/DIM*%
X95769601Y-162086513D03*
%TO.P,U1,56,GPIO37*%
%TO.N,unconnected-(U1-GPIO37-Pad56)*%
X94871576Y-161188487D03*
%TO.P,U1,55,GPIO36*%
%TO.N,unconnected-(U1-GPIO36-Pad55)*%
X93973550Y-160290462D03*
%TO.P,U1,54,GPIO35*%
%TO.N,unconnected-(U1-GPIO35-Pad54)*%
X93075524Y-159392436D03*
%TO.P,U1,53,GPIO34*%
%TO.N,/RED_PWM*%
X92177499Y-158494411D03*
%TO.P,U1,52,GPIO33*%
%TO.N,/BLUE_PWM*%
X91279473Y-157596385D03*
%TO.P,U1,51,GPIO32*%
%TO.N,/GREEN_PWM*%
X90381448Y-156698359D03*
%TO.P,U1,50,GPIO31*%
%TO.N,unconnected-(U1-GPIO31-Pad50)*%
X89483422Y-155800334D03*
%TO.P,U1,49,GPIO30*%
%TO.N,unconnected-(U1-GPIO30-Pad49)*%
X88585396Y-154902308D03*
%TO.P,U1,48,GPIO29*%
%TO.N,unconnected-(U1-GPIO29-Pad48)*%
X87687371Y-154004283D03*
%TO.P,U1,47,GPIO28*%
%TO.N,/GPIO28*%
X86789345Y-153106257D03*
%TO.P,U1,46,GPIO27*%
%TO.N,unconnected-(U1-GPIO27-Pad46)*%
X85891320Y-152208231D03*
%TO.P,U1,45,GPIO26*%
%TO.N,unconnected-(U1-GPIO26-Pad45)*%
X84993294Y-151310206D03*
%TO.P,U1,44,GND*%
%TO.N,GND*%
X84095268Y-150412180D03*
%TO.P,U1,43,USB1_P1_P*%
%TO.N,unconnected-(U1-USB1_P1_P-Pad43)*%
X83197243Y-149514154D03*
%TO.P,U1,42,USB1_P1_N*%
%TO.N,unconnected-(U1-USB1_P1_N-Pad42)*%
X82299217Y-148616129D03*
%TO.P,U1,41,GND*%
%TO.N,GND*%
X81401191Y-147718103D03*
D42*
%TO.P,U1,40,ESP_USB_P*%
%TO.N,/DATA+*%
X81436547Y-145688707D03*
%TO.P,U1,39,ESP_USB_N*%
%TO.N,/DATA-*%
X82334572Y-144790681D03*
%TO.P,U1,38,CSI_DATAP1*%
%TO.N,/CSI_D1P*%
X83232598Y-143892656D03*
%TO.P,U1,37,CSI_DATAN1*%
%TO.N,/CSI_D1N*%
X84130624Y-142994630D03*
%TO.P,U1,36,CSI_CLKN*%
%TO.N,/CSI_DCLN*%
X85028649Y-142096604D03*
%TO.P,U1,35,CSI_CLKP*%
%TO.N,/CSI_DCLP*%
X85926675Y-141198579D03*
%TO.P,U1,34,CSI_DATAP0*%
%TO.N,/CSI_D0P*%
X86824700Y-140300553D03*
%TO.P,U1,33,CSI_DATAN0*%
%TO.N,/CSI_D0N*%
X87722726Y-139402527D03*
%TO.P,U1,32,GND*%
%TO.N,GND*%
X88620752Y-138504502D03*
%TO.P,U1,31,DSI_DATAN0*%
%TO.N,/DSI_D0N*%
X89518777Y-137606476D03*
%TO.P,U1,30,DSI_DATAP0*%
%TO.N,/DSI_D0P*%
X90416803Y-136708451D03*
%TO.P,U1,29,DSI_CLKP*%
%TO.N,/DSI_DCLP*%
X91314829Y-135810425D03*
%TO.P,U1,28,DSI_CLKN*%
%TO.N,/DSI_DCLN*%
X92212854Y-134912399D03*
%TO.P,U1,27,DSI_DATAN1*%
%TO.N,/DSI_D1N*%
X93110880Y-134014374D03*
%TO.P,U1,26,DSI_DATAP1*%
%TO.N,/DSI_D1P*%
X94008905Y-133116348D03*
%TO.P,U1,25,GND*%
%TO.N,GND*%
X94906931Y-132218323D03*
%TO.P,U1,24,GPIO23*%
%TO.N,unconnected-(U1-GPIO23-Pad24)*%
X95804957Y-131320297D03*
%TO.P,U1,23,GPIO22*%
%TO.N,unconnected-(U1-GPIO22-Pad23)*%
X96702982Y-130422271D03*
%TO.P,U1,22,GPIO21*%
%TO.N,unconnected-(U1-GPIO21-Pad22)*%
X97601008Y-129524246D03*
%TO.P,U1,21,GPIO20*%
%TO.N,unconnected-(U1-GPIO20-Pad21)*%
X98499033Y-128626220D03*
D43*
%TO.P,U1,20,GPIO13*%
%TO.N,unconnected-(U1-GPIO13-Pad20)*%
X100535501Y-128668647D03*
%TO.P,U1,19,GPIO12*%
%TO.N,unconnected-(U1-GPIO12-Pad19)*%
X101433527Y-129566672D03*
%TO.P,U1,18,C6_IO9*%
%TO.N,Net-(JP1-B)*%
X102331552Y-130464698D03*
%TO.P,U1,17,C6_UOTXD*%
%TO.N,unconnected-(U1-C6_UOTXD-Pad17)*%
X103229578Y-131362723D03*
%TO.P,U1,16,C6_U0RXD*%
%TO.N,unconnected-(U1-C6_U0RXD-Pad16)*%
X104127603Y-132260749D03*
%TO.P,U1,15,GPIO11*%
%TO.N,/GPIO11*%
X105025629Y-133158775D03*
%TO.P,U1,14,GPIO10*%
%TO.N,unconnected-(U1-GPIO10-Pad14)*%
X105923655Y-134056800D03*
%TO.P,U1,13,GPIO9*%
%TO.N,unconnected-(U1-GPIO9-Pad13)*%
X106821680Y-134954826D03*
%TO.P,U1,12,GPIO8*%
%TO.N,/SCL*%
X107719706Y-135852851D03*
%TO.P,U1,11,GPIO7*%
%TO.N,/SDA*%
X108617731Y-136750877D03*
%TO.P,U1,10,GPIO6*%
%TO.N,unconnected-(U1-GPIO6-Pad10)*%
X109515757Y-137648903D03*
%TO.P,U1,9,GPIO5*%
%TO.N,unconnected-(U1-GPIO5-Pad9)*%
X110413783Y-138546928D03*
%TO.P,U1,8,GPIO4*%
%TO.N,unconnected-(U1-GPIO4-Pad8)*%
X111311808Y-139444954D03*
%TO.P,U1,7,GND*%
%TO.N,GND*%
X112209834Y-140342979D03*
%TO.P,U1,6,GPIO3*%
%TO.N,/CSI_IO0*%
X113107860Y-141241005D03*
%TO.P,U1,5,GPIO2*%
%TO.N,/CSI_IO1*%
X114005885Y-142139031D03*
%TO.P,U1,4,GPIO1*%
%TO.N,unconnected-(U1-GPIO1-Pad4)*%
X114903911Y-143037056D03*
%TO.P,U1,3,GND*%
%TO.N,GND*%
X115801936Y-143935082D03*
%TO.P,U1,2,LAN_OUT*%
%TO.N,unconnected-(U1-LAN_OUT-Pad2)*%
X116699962Y-144833108D03*
%TO.P,U1,1,GND*%
%TO.N,GND*%
X117597988Y-145731133D03*
%TD*%
D44*
%TO.N,/VIN*%
X128115782Y-145383953D03*
X128115782Y-150183953D03*
%TO.N,GND*%
X130825629Y-152103953D03*
X123563129Y-153544523D03*
X127325629Y-143044523D03*
X127125629Y-138694523D03*
X124878307Y-137794523D03*
X121325628Y-141613153D03*
X121325530Y-138343110D03*
X128691093Y-139337370D03*
X125025629Y-143044523D03*
X112209834Y-140342979D03*
X114025629Y-156044523D03*
X114025629Y-162344523D03*
X110825629Y-161544523D03*
X110825629Y-167844523D03*
X106838129Y-120094523D03*
X108025629Y-171307023D03*
X99725629Y-174744523D03*
X97025629Y-174644523D03*
X98125629Y-174744523D03*
X100357357Y-125588750D03*
X94025629Y-170544523D03*
%TO.N,/GPIO53*%
X111283524Y-154025496D03*
%TO.N,GND*%
X126675629Y-146406626D03*
X126725629Y-149244523D03*
X125415488Y-148454664D03*
X125934483Y-149090391D03*
X126995780Y-146962192D03*
X118425629Y-144394523D03*
X118524629Y-146194523D03*
X108925629Y-144394523D03*
X110119875Y-146194523D03*
X81806830Y-143488953D03*
X80625629Y-144344523D03*
X86112083Y-148118523D03*
X84025629Y-148744523D03*
X84825629Y-150144523D03*
X106359472Y-148165670D03*
X107085074Y-147375464D03*
X105875629Y-146070073D03*
X108079119Y-146672634D03*
X114225629Y-144144523D03*
X116125629Y-142444523D03*
X116225629Y-146244523D03*
X118425629Y-149144523D03*
X81806830Y-153688953D03*
X83907088Y-164491490D03*
X81105178Y-161689580D03*
X81806830Y-150538953D03*
D45*
X96545629Y-149844523D03*
X96545629Y-148164523D03*
X101485629Y-148164523D03*
X101485629Y-149844523D03*
X96800628Y-145896085D03*
X96488217Y-144440230D03*
X101650334Y-171524094D03*
X101224841Y-172195883D03*
X101251584Y-170912519D03*
X99781186Y-169927485D03*
X96475990Y-169521954D03*
X96791470Y-168959353D03*
X96724841Y-170093635D03*
X96505629Y-166024523D03*
X98300628Y-166024523D03*
X99800628Y-166024523D03*
X101565629Y-166024523D03*
X101545629Y-159494523D03*
X96605629Y-154654523D03*
X96445629Y-160974523D03*
X98295629Y-153124523D03*
X98265629Y-156394523D03*
X98275629Y-149844523D03*
X98275629Y-148164523D03*
X98260584Y-146692408D03*
X98183542Y-143334543D03*
D46*
X93789551Y-136809051D03*
X93667134Y-136214922D03*
X93230771Y-135732325D03*
X91149653Y-139212166D03*
X92509741Y-138283493D03*
X92287934Y-137758278D03*
X91753684Y-137364414D03*
X90525629Y-138744523D03*
X94425629Y-131744523D03*
X97725629Y-125244523D03*
X92946054Y-125129863D03*
X95046054Y-125111921D03*
X87300629Y-133391706D03*
X83618051Y-141414214D03*
X83369512Y-140851217D03*
X83557995Y-140321117D03*
X85242499Y-137731637D03*
D44*
X86150256Y-132191867D03*
X86383860Y-131531994D03*
X87048495Y-131230260D03*
X85849876Y-133189945D03*
X85256407Y-133824745D03*
X85700629Y-134787307D03*
X82715106Y-137737878D03*
X82286198Y-138405092D03*
X81051159Y-141756062D03*
X80914574Y-140731113D03*
X81344809Y-139913208D03*
%TO.N,/GPIO11*%
X104925629Y-131044523D03*
%TO.N,/3V7*%
X119170075Y-135388969D03*
X116645201Y-132964095D03*
X114020327Y-130639221D03*
%TO.N,/SDA*%
X106649894Y-169968788D03*
%TO.N,/SCL*%
X105625629Y-170844523D03*
%TO.N,/SDA*%
X109525629Y-150544523D03*
%TO.N,/SCL*%
X108725629Y-150544523D03*
%TO.N,/CSI_IO0*%
X107650326Y-139744281D03*
%TO.N,/CSI_IO1*%
X107025629Y-139244523D03*
%TO.N,/SDA*%
X106591316Y-129378836D03*
%TO.N,/SCL*%
X105375629Y-129294523D03*
%TO.N,/GPIO11*%
X89025629Y-126844523D03*
%TO.N,/3V3*%
X103325629Y-169544523D03*
%TO.N,/T_INT*%
X103325629Y-171544523D03*
%TO.N,/GPIO28*%
X71306830Y-154638953D03*
%TO.N,Net-(J7-VDD)*%
X80325629Y-148344523D03*
%TO.N,/SD_DATA2*%
X79225629Y-145044523D03*
%TO.N,/SD_DATA3*%
X80225629Y-146044523D03*
%TO.N,/SD_CMD*%
X79325629Y-147244523D03*
%TO.N,Net-(J7-VDD)*%
X79363129Y-149444523D03*
%TO.N,/SD_DATA0*%
X81806830Y-151638953D03*
%TO.N,/SD_DATA1*%
X79320059Y-152738953D03*
%TO.N,/SD_CLK*%
X93525629Y-152344523D03*
%TO.N,/SD_DATA0*%
X94412678Y-156283045D03*
%TO.N,/SD_DATA1*%
X95325629Y-157944523D03*
%TO.N,/SD_DATA2*%
X95275629Y-156994523D03*
%TO.N,/SD_DATA3*%
X94221760Y-155349904D03*
%TO.N,/SD_CMD*%
X92725629Y-151007523D03*
%TO.N,/3V3*%
X119725629Y-153344523D03*
X108301364Y-175020258D03*
%TO.N,/VIN*%
X131713129Y-157044523D03*
X131713129Y-154744523D03*
%TO.N,/2V8*%
X95375235Y-175994917D03*
X119701364Y-152068788D03*
%TO.N,/3V3*%
X113057170Y-134289383D03*
%TO.N,Net-(JP1-B)*%
X102331552Y-130464698D03*
%TO.N,/CHIP_PU*%
X112018522Y-151051630D03*
%TO.N,/3V3*%
X113432736Y-149637416D03*
%TO.N,/1V8*%
X119525629Y-151044523D03*
D47*
%TO.N,GND*%
X117125629Y-126344523D03*
X109525629Y-117844523D03*
X108125629Y-117844523D03*
X111925629Y-116444523D03*
X106725629Y-116844523D03*
X111225629Y-118044523D03*
X118725629Y-122944523D03*
D48*
%TO.N,/3V7*%
X119736942Y-128981637D03*
D47*
%TO.N,GND*%
X118269696Y-127514391D03*
D44*
%TO.N,/RED_PWM*%
X92177499Y-158494411D03*
%TO.N,/BLUE_PWM*%
X91279473Y-157596385D03*
%TO.N,/GREEN_PWM*%
X90381448Y-156698359D03*
%TO.N,/GPIO53*%
X118825629Y-154744523D03*
%TO.N,GND*%
X76003094Y-163957616D03*
X78009313Y-165560839D03*
X81025629Y-169044523D03*
%TO.N,/5V*%
X81910572Y-167902220D03*
X78751926Y-164698319D03*
X75547319Y-161538966D03*
%TO.N,/1V8*%
X96525629Y-177044523D03*
D49*
%TO.N,GND*%
X115054747Y-135898051D03*
X111925629Y-133944523D03*
D44*
%TO.N,Net-(U2-~{STDBY})*%
X122525629Y-152544523D03*
%TO.N,Net-(U2-~{CHRG})*%
X124300630Y-152434777D03*
%TO.N,/DATA-*%
X107326150Y-146345044D03*
%TO.N,/DATA+*%
X106275629Y-147370073D03*
%TO.N,/DATA-*%
X126225108Y-148345044D03*
%TO.N,/DATA+*%
X126826150Y-147744002D03*
%TO.N,Net-(J5-CC1)*%
X130525629Y-148044523D03*
%TO.N,Net-(J5-CC2)*%
X130525629Y-146044523D03*
D47*
%TO.N,GND*%
X122976276Y-134508122D03*
D44*
%TO.N,/CSI_DCLN*%
X84118826Y-140819086D03*
%TO.N,/CSI_D0N*%
X87010464Y-132029358D03*
%TO.N,/CSI_D0P*%
X86025629Y-134044523D03*
%TO.N,/CSI_D1P*%
X81650630Y-141044523D03*
%TO.N,/CSI_D1N*%
X83101364Y-138438456D03*
%TO.N,/DSI_D1N*%
X99450629Y-170544523D03*
%TO.N,/DSI_D1P*%
X98600629Y-170544523D03*
X98525629Y-146044523D03*
%TO.N,/DSI_D1N*%
X98600629Y-145044523D03*
%TO.N,/DSI_DCLP*%
X100100629Y-171544523D03*
%TO.N,/DSI_DCLN*%
X100950629Y-171544523D03*
X93056518Y-136650412D03*
%TO.N,/DSI_DCLP*%
X92206518Y-136650412D03*
%TO.N,/DSI_D0N*%
X98025629Y-169544523D03*
%TO.N,/DSI_D0P*%
X97175629Y-169544523D03*
%TO.N,/DSI_D0N*%
X91625629Y-138110210D03*
%TO.N,/DSI_D0P*%
X91025629Y-137544523D03*
D49*
%TO.N,GND*%
X117529621Y-138372925D03*
D44*
%TO.N,/CSI_DCLP*%
X85018046Y-138521774D03*
%TO.N,GND*%
X83301364Y-137320258D03*
X106589772Y-145061140D03*
%TD*%
D50*
%TO.N,/3V3*%
X119925629Y-153544523D02*
X119725629Y-153344523D01*
D51*
%TO.N,GND*%
X130825629Y-152103953D02*
X128715782Y-152103953D01*
X132915782Y-152103953D02*
X130825629Y-152103953D01*
X132915782Y-143463953D02*
X128715782Y-143463953D01*
D52*
X123563129Y-153544523D02*
X124488129Y-153544523D01*
X124488129Y-153544523D02*
X125525629Y-154582023D01*
D53*
X125230629Y-143249523D02*
X125025629Y-143044523D01*
X125230629Y-145308953D02*
X125230629Y-143249523D01*
D50*
X106724841Y-172607811D02*
X108025629Y-171307023D01*
X106724841Y-173463998D02*
X106724841Y-172607811D01*
X101724841Y-173463998D02*
X101224841Y-173463998D01*
X102224841Y-173463998D02*
X101724841Y-173463998D01*
X99724841Y-174443735D02*
X99724841Y-173463998D01*
X99725629Y-174444523D02*
X99724841Y-174443735D01*
X99725629Y-174744523D02*
X99725629Y-174444523D01*
X98125629Y-174542947D02*
X98224841Y-174443735D01*
X98125629Y-174744523D02*
X98125629Y-174542947D01*
X98224841Y-174443735D02*
X98224841Y-173463998D01*
X96724841Y-174443735D02*
X96724841Y-173463998D01*
X96925629Y-174644523D02*
X96724841Y-174443735D01*
X97025629Y-174644523D02*
X96925629Y-174644523D01*
D54*
X95724841Y-172545311D02*
X96325629Y-171944523D01*
X95724841Y-173463998D02*
X95724841Y-172545311D01*
X94594379Y-171075773D02*
X94063129Y-170544523D01*
X94724841Y-171206235D02*
X94594379Y-171075773D01*
X94724841Y-173463998D02*
X94724841Y-171206235D01*
X93724841Y-173463998D02*
X93724841Y-170882811D01*
X93724841Y-170882811D02*
X94063129Y-170544523D01*
D53*
%TO.N,Net-(U3-VCC)*%
X127525629Y-129344523D02*
X127525629Y-129044523D01*
X128825629Y-132307023D02*
X128825629Y-130644523D01*
X128825629Y-130644523D02*
X127525629Y-129344523D01*
X129025629Y-132507023D02*
X128825629Y-132307023D01*
D54*
%TO.N,/SD_DATA0*%
X94412678Y-158031572D02*
X94412678Y-156283045D01*
X97891329Y-163556887D02*
X97891329Y-161510223D01*
X97891329Y-161510223D02*
X94412678Y-158031572D01*
X97565652Y-163882564D02*
X97891329Y-163556887D01*
D50*
%TO.N,/3V3*%
X119725629Y-153380683D02*
X119725629Y-153344523D01*
X127925629Y-158844523D02*
X124525629Y-155444523D01*
X127925629Y-161760912D02*
X127925629Y-158844523D01*
X124525629Y-155444523D02*
X121789469Y-155444523D01*
X121789469Y-155444523D02*
X119725629Y-153380683D01*
X127784671Y-161901870D02*
X127925629Y-161760912D01*
D54*
%TO.N,/SD_CMD*%
X101825629Y-161744523D02*
X101825629Y-162528113D01*
X92725629Y-151007523D02*
X92725629Y-152644523D01*
X92725629Y-152644523D02*
X101825629Y-161744523D01*
X101825629Y-162528113D02*
X102303268Y-163005752D01*
D50*
%TO.N,/GPIO53*%
X125534671Y-161456406D02*
X125534671Y-165798985D01*
X118825629Y-154744523D02*
X119425629Y-155344523D01*
X119425629Y-155344523D02*
X119425629Y-155347364D01*
X119425629Y-155347364D02*
X125534671Y-161456406D01*
D54*
%TO.N,/SD_DATA3*%
X100992079Y-163490614D02*
X101405242Y-163903777D01*
X100992079Y-161810973D02*
X100992079Y-163490614D01*
X100526629Y-161337003D02*
X100526629Y-161345523D01*
X100124629Y-160943523D02*
X100133150Y-160943523D01*
X95926629Y-156745523D02*
X100124629Y-160943523D01*
X100133150Y-160943523D02*
X100526629Y-161337003D01*
X95524629Y-156343523D02*
X95545283Y-156343523D01*
X94531010Y-155349904D02*
X95524629Y-156343523D01*
X94221760Y-155349904D02*
X94531010Y-155349904D01*
X95545283Y-156343523D02*
X95926629Y-156724869D01*
X100526629Y-161345523D02*
X100992079Y-161810973D01*
X95926629Y-156724869D02*
X95926629Y-156745523D01*
%TO.N,/SD_CLK*%
X93525629Y-152432061D02*
X103201294Y-162107726D01*
X93525629Y-152344523D02*
X93525629Y-152432061D01*
D55*
%TO.N,GND*%
X117991826Y-137710720D02*
X118191826Y-137710720D01*
X115716953Y-135435847D02*
X117991826Y-137710720D01*
X115716953Y-135235846D02*
X115716953Y-135435847D01*
X113525629Y-133044523D02*
X115716953Y-135235846D01*
D53*
%TO.N,/VIN*%
X127065059Y-145383953D02*
X128115782Y-145383953D01*
X126525629Y-144844523D02*
X127065059Y-145383953D01*
X126525629Y-142044523D02*
X126525629Y-144844523D01*
X122525629Y-141544523D02*
X126025629Y-141544523D01*
X126025629Y-141544523D02*
X126525629Y-142044523D01*
X121420629Y-142649523D02*
X122525629Y-141544523D01*
X121420629Y-145308953D02*
X121420629Y-142649523D01*
D54*
%TO.N,/CHIP_PU*%
X107025629Y-160544523D02*
X107025629Y-161544523D01*
X113525629Y-152675498D02*
X113525629Y-154044523D01*
X113079575Y-152229444D02*
X113525629Y-152675498D01*
X113525629Y-154044523D02*
X107025629Y-160544523D01*
%TO.N,/2V8*%
X95224841Y-175844523D02*
X95224841Y-173463998D01*
X95375235Y-175994917D02*
X95224841Y-175844523D01*
%TO.N,/SD_DATA2*%
X100025629Y-164320215D02*
X100507217Y-164801803D01*
X100025629Y-161544523D02*
X100025629Y-164320215D01*
X99925629Y-161444523D02*
X100025629Y-161544523D01*
X99725629Y-161444523D02*
X99925629Y-161444523D01*
X95976629Y-157695523D02*
X99725629Y-161444523D01*
X95976629Y-157674869D02*
X95976629Y-157695523D01*
X95595283Y-157293523D02*
X95976629Y-157674869D01*
X95574629Y-157293523D02*
X95595283Y-157293523D01*
X95275629Y-156994523D02*
X95574629Y-157293523D01*
%TO.N,/3V3*%
X101925629Y-168144523D02*
X103325629Y-169544523D01*
X93525629Y-168944523D02*
X94325629Y-168144523D01*
X94325629Y-168144523D02*
X101925629Y-168144523D01*
X90325629Y-168944523D02*
X93525629Y-168944523D01*
X90025629Y-169244523D02*
X90325629Y-168944523D01*
D53*
%TO.N,GND*%
X124186199Y-147783953D02*
X123325629Y-147783953D01*
X125230629Y-146739523D02*
X124186199Y-147783953D01*
X125230629Y-145308953D02*
X125230629Y-146739523D01*
X122690629Y-147148953D02*
X123325629Y-147783953D01*
X122690629Y-145308953D02*
X122690629Y-147148953D01*
D56*
X81105178Y-161689580D02*
X81052145Y-161689580D01*
X83907088Y-164491490D02*
X81105178Y-161689580D01*
D50*
X80976927Y-149709050D02*
X81806830Y-150538953D01*
X80976927Y-148142367D02*
X80976927Y-149709050D01*
X81401191Y-147718103D02*
X80976927Y-148142367D01*
X83968495Y-150538953D02*
X81806830Y-150538953D01*
X84095268Y-150412180D02*
X83968495Y-150538953D01*
D53*
%TO.N,/DIM*%
X95025629Y-162830485D02*
X95769601Y-162086513D01*
X95025629Y-167144523D02*
X95025629Y-162830485D01*
D50*
%TO.N,/GPIO28*%
X85251079Y-154644523D02*
X71325629Y-154644523D01*
X86789345Y-153106257D02*
X85251079Y-154644523D01*
D51*
%TO.N,GND*%
X101745629Y-165844523D02*
X101565629Y-166024523D01*
X102988129Y-165844523D02*
X101745629Y-165844523D01*
%TO.N,/5V*%
X100275629Y-123432022D02*
X100275629Y-119794523D01*
D53*
%TO.N,/GPIO11*%
X104925629Y-131044523D02*
X100925629Y-127044523D01*
D50*
%TO.N,/SCL*%
X106525629Y-133344523D02*
X108143970Y-134962864D01*
X106525629Y-130444523D02*
X106525629Y-133344523D01*
X105375629Y-129294523D02*
X106525629Y-130444523D01*
X108143970Y-134962864D02*
X108143970Y-135428587D01*
X108143970Y-135428587D02*
X107719706Y-135852851D01*
%TO.N,/CHIP_PU*%
X105063129Y-165844523D02*
X107025629Y-165844523D01*
D54*
X107025629Y-165844523D02*
X107025629Y-167844523D01*
D53*
%TO.N,/3V7*%
X119170075Y-135388969D02*
X119650941Y-134908102D01*
X116645201Y-132964095D02*
X117176068Y-132433228D01*
X114020327Y-130639221D02*
X114418351Y-130241197D01*
X113520327Y-131139221D02*
X114020327Y-130639221D01*
D55*
%TO.N,GND*%
X112825629Y-133044523D02*
X111925629Y-133944523D01*
X113525629Y-133044523D02*
X112825629Y-133044523D01*
D52*
%TO.N,/3V3*%
X80525629Y-157344523D02*
X90025629Y-166844523D01*
X71925629Y-157344523D02*
X80525629Y-157344523D01*
X90025629Y-166844523D02*
X90025629Y-169244523D01*
X69725629Y-152144523D02*
X69725629Y-155144523D01*
X69725629Y-155144523D02*
X71925629Y-157344523D01*
X70625629Y-151244523D02*
X69725629Y-152144523D01*
X71325629Y-151244523D02*
X70625629Y-151244523D01*
D57*
%TO.N,/5V*%
X67825629Y-157344523D02*
X74325629Y-163844523D01*
X67825629Y-144144523D02*
X67825629Y-157344523D01*
X92175629Y-119794523D02*
X67825629Y-144144523D01*
X100275629Y-119794523D02*
X92175629Y-119794523D01*
D50*
%TO.N,/SDA*%
X104724841Y-170895368D02*
X104724841Y-173463998D01*
X105401421Y-170218788D02*
X104724841Y-170895368D01*
X106399894Y-170218788D02*
X105401421Y-170218788D01*
X106649894Y-169968788D02*
X106399894Y-170218788D01*
%TO.N,/SCL*%
X105224841Y-171245311D02*
X105224841Y-173463998D01*
X105625629Y-170844523D02*
X105224841Y-171245311D01*
%TO.N,/SDA*%
X109525629Y-146277423D02*
X109525629Y-150544523D01*
X105726629Y-142478423D02*
X108059179Y-144810973D01*
X105726629Y-140944523D02*
X105726629Y-142478423D01*
X105726629Y-139641979D02*
X105726629Y-140944523D01*
X108059179Y-144810973D02*
X109525629Y-146277423D01*
X108617731Y-136750877D02*
X105726629Y-139641979D01*
%TO.N,/SCL*%
X108725629Y-147344523D02*
X108725629Y-150544523D01*
X108725629Y-146044523D02*
X108725629Y-147344523D01*
X105325629Y-142644523D02*
X108425629Y-145744523D01*
X105325629Y-140144523D02*
X105325629Y-142644523D01*
X105325629Y-138246928D02*
X105325629Y-140144523D01*
X108425629Y-145744523D02*
X108725629Y-146044523D01*
X107719706Y-135852851D02*
X105325629Y-138246928D01*
D54*
%TO.N,/DATA+*%
X81945663Y-145688707D02*
X81436547Y-145688707D01*
X85526479Y-149269523D02*
X81945663Y-145688707D01*
X106200079Y-147370073D02*
X104300629Y-149269523D01*
X106275629Y-147370073D02*
X106200079Y-147370073D01*
X104300629Y-149269523D02*
X85526479Y-149269523D01*
D50*
%TO.N,/CSI_IO1*%
X109619397Y-142563295D02*
X107025629Y-139969527D01*
X113581621Y-142563295D02*
X109619397Y-142563295D01*
X107025629Y-139969527D02*
X107025629Y-139244523D01*
X114005885Y-142139031D02*
X113581621Y-142563295D01*
%TO.N,/CSI_IO0*%
X109571314Y-141665269D02*
X107650326Y-139744281D01*
X110425629Y-141665269D02*
X109571314Y-141665269D01*
X110425629Y-141665269D02*
X112683596Y-141665269D01*
X109925629Y-141665269D02*
X110425629Y-141665269D01*
%TO.N,/SDA*%
X108624085Y-136744523D02*
X109041995Y-136326613D01*
X106926629Y-133178423D02*
X106926629Y-129714149D01*
X109041995Y-135293789D02*
X106926629Y-133178423D01*
X109041995Y-136326613D02*
X109041995Y-135293789D01*
X106926629Y-129714149D02*
X106591316Y-129378836D01*
X108617731Y-136750877D02*
X108624085Y-136744523D01*
D53*
%TO.N,/GPIO11*%
X100725629Y-126844523D02*
X89025629Y-126844523D01*
X100925629Y-127044523D02*
X100725629Y-126844523D01*
D50*
%TO.N,/CSI_D1N*%
X82250630Y-141694464D02*
X82819545Y-142263379D01*
X83399373Y-142263379D02*
X84130624Y-142994630D01*
X82250630Y-141219961D02*
X82250630Y-141694464D01*
X82250630Y-141001342D02*
X82250630Y-141219961D01*
X82250630Y-140684450D02*
X82250630Y-141001342D01*
X82250630Y-139289190D02*
X82250630Y-139801342D01*
X82533738Y-140084450D02*
X82533738Y-140401342D01*
X83101364Y-138438456D02*
X82250630Y-139289190D01*
X82819545Y-142263379D02*
X83399373Y-142263379D01*
X82392184Y-139942896D02*
G75*
G02*
X82533704Y-140084450I16J-141504D01*
G01*
X82392184Y-140542896D02*
G75*
G03*
X82250696Y-140684450I16J-141504D01*
G01*
X82250630Y-139801342D02*
G75*
G03*
X82392184Y-139942870I141570J42D01*
G01*
X82533738Y-140401342D02*
G75*
G02*
X82392184Y-140542838I-141538J42D01*
G01*
%TO.N,/CSI_D0N*%
X86750629Y-135229130D02*
X86750629Y-134946935D01*
X87142899Y-139402527D02*
X86750629Y-139010257D01*
X87722726Y-139402527D02*
X87142899Y-139402527D01*
X86990629Y-136189130D02*
X87255062Y-136189130D01*
X86750629Y-134946935D02*
X86750629Y-132289193D01*
X87495062Y-135949130D02*
X87495062Y-135829130D01*
X87255062Y-135589130D02*
X86990629Y-135589130D01*
X86750629Y-139010257D02*
X86750629Y-136429130D01*
X86750629Y-132289193D02*
X87010464Y-132029358D01*
X86750629Y-135349130D02*
X86750629Y-135229130D01*
X87255062Y-136189130D02*
G75*
G03*
X87495130Y-135949130I38J240030D01*
G01*
X86750629Y-136429130D02*
G75*
G02*
X86990629Y-136189129I239971J30D01*
G01*
X86990629Y-135589130D02*
G75*
G02*
X86750570Y-135349130I-29J240030D01*
G01*
X87495062Y-135829130D02*
G75*
G03*
X87255062Y-135589138I-239962J30D01*
G01*
%TO.N,/CSI_DCLP*%
X85018046Y-140112358D02*
X85018046Y-140289950D01*
X85018046Y-139992358D02*
X85018046Y-140112358D01*
X84271182Y-139752358D02*
X84778046Y-139752358D01*
X85018046Y-140289950D02*
X85926675Y-141198579D01*
X84031182Y-139392358D02*
X84031182Y-139512358D01*
X84778046Y-139152358D02*
X84271182Y-139152358D01*
X85018046Y-138521774D02*
X85018046Y-138912358D01*
X85018046Y-138912358D02*
G75*
G02*
X84778046Y-139152446I-240046J-42D01*
G01*
X84778046Y-139752358D02*
G75*
G02*
X85018042Y-139992358I-46J-240042D01*
G01*
X84031182Y-139512358D02*
G75*
G03*
X84271182Y-139752418I240018J-42D01*
G01*
X84271182Y-139152358D02*
G75*
G03*
X84031158Y-139392358I18J-240042D01*
G01*
D53*
%TO.N,/3V3*%
X116825629Y-151144523D02*
X116432736Y-151537416D01*
X117025629Y-151144523D02*
X116825629Y-151144523D01*
X116754218Y-150873112D02*
X117025629Y-151144523D01*
X116754218Y-150515934D02*
X116754218Y-150873112D01*
X116897040Y-150515934D02*
X116754218Y-150515934D01*
X119725629Y-153344523D02*
X116897040Y-150515934D01*
D50*
%TO.N,Net-(J3-Pin_3)*%
X93224841Y-174345311D02*
X93224841Y-173463998D01*
X91425629Y-172644523D02*
X91425629Y-174344523D01*
X91425629Y-174344523D02*
X91725629Y-174644523D01*
X91725629Y-174644523D02*
X92925629Y-174644523D01*
X92925629Y-174644523D02*
X93224841Y-174345311D01*
X90025629Y-171244523D02*
X91425629Y-172644523D01*
%TO.N,/T_INT*%
X104224841Y-172443735D02*
X103325629Y-171544523D01*
X104224841Y-173463998D02*
X104224841Y-172443735D01*
%TO.N,/GPIO28*%
X71325629Y-153244523D02*
X71325629Y-154620154D01*
X71325629Y-154620154D02*
X71306830Y-154638953D01*
%TO.N,Net-(J7-VDD)*%
X80325629Y-148344523D02*
X75525629Y-148344523D01*
%TO.N,/SD_DATA3*%
X75425629Y-146044523D02*
X80225629Y-146044523D01*
%TO.N,/SD_DATA0*%
X75325629Y-151644523D02*
X81801260Y-151644523D01*
X81801260Y-151644523D02*
X81806830Y-151638953D01*
%TO.N,/CSI_DCLP*%
X85699124Y-140971028D02*
X85685281Y-140957185D01*
D54*
%TO.N,/SD_DATA1*%
X98887942Y-161506836D02*
X98887942Y-164356326D01*
X98887942Y-164356326D02*
X98463678Y-164780590D01*
X95325629Y-157944523D02*
X98887942Y-161506836D01*
D53*
%TO.N,/GPIO11*%
X78309566Y-123928460D02*
X78309566Y-123460228D01*
X105525629Y-131644523D02*
X104925629Y-131044523D01*
X105525629Y-132658775D02*
X105525629Y-131644523D01*
X105025629Y-133158775D02*
X105525629Y-132658775D01*
%TO.N,Net-(Q3-G)*%
X92188129Y-169594523D02*
X94575629Y-169594523D01*
X94575629Y-169594523D02*
X95025629Y-169144523D01*
D50*
%TO.N,/2V8*%
X115532044Y-138143598D02*
X115532044Y-136764257D01*
X119124629Y-141736183D02*
X115532044Y-138143598D01*
X119124629Y-150595580D02*
X119124629Y-141736183D01*
X118924629Y-150795580D02*
X119124629Y-150595580D01*
X118924629Y-151293466D02*
X118924629Y-150795580D01*
X119699951Y-152068788D02*
X118924629Y-151293466D01*
X119701364Y-152068788D02*
X119699951Y-152068788D01*
D54*
%TO.N,/3V3*%
X106879101Y-175020258D02*
X108301364Y-175020258D01*
X106224841Y-174365998D02*
X106879101Y-175020258D01*
X106224841Y-173463998D02*
X106224841Y-174365998D01*
D53*
%TO.N,/VIN*%
X131713129Y-154744523D02*
X131713129Y-157044523D01*
X125988129Y-152507023D02*
X128225629Y-154744523D01*
X128225629Y-154744523D02*
X131713129Y-154744523D01*
X125525629Y-152507023D02*
X125988129Y-152507023D01*
%TO.N,/CHIP_PU*%
X113079575Y-152229444D02*
X113079575Y-152112683D01*
X113079575Y-152112683D02*
X112018522Y-151051630D01*
%TO.N,/3V3*%
X114079649Y-149637416D02*
X113432736Y-149637416D01*
X114875626Y-150433393D02*
X114079649Y-149637416D01*
D52*
X115773652Y-149535368D02*
X116754218Y-150515934D01*
D53*
X115979649Y-151537416D02*
X116432736Y-151537416D01*
X114875626Y-150433393D02*
X115979649Y-151537416D01*
D54*
%TO.N,/BOOT*%
X115018522Y-152372340D02*
X115018522Y-152951630D01*
X113977601Y-151331419D02*
X115018522Y-152372340D01*
X115597812Y-152951630D02*
X115018522Y-152951630D01*
X117825629Y-155179447D02*
X115597812Y-152951630D01*
X117825629Y-156044523D02*
X117825629Y-155179447D01*
D50*
%TO.N,/1V8*%
X119525629Y-140774587D02*
X119525629Y-151044523D01*
D51*
%TO.N,/3V7*%
X120325629Y-138357251D02*
X119643276Y-137674898D01*
X120325629Y-149163953D02*
X120325629Y-138357251D01*
X121420629Y-150258953D02*
X120325629Y-149163953D01*
D50*
%TO.N,/1V8*%
X119525629Y-140774587D02*
X117998545Y-139247503D01*
D53*
%TO.N,/3V7*%
X120525629Y-135712079D02*
X120525629Y-136720419D01*
X120525629Y-136720419D02*
X119607213Y-137638835D01*
X119650941Y-134837391D02*
X120525629Y-135712079D01*
%TO.N,Net-(Q2-G)*%
X123175629Y-136994523D02*
X124388129Y-136994523D01*
X120163129Y-133982023D02*
X123175629Y-136994523D01*
X120163129Y-133494523D02*
X120163129Y-133982023D01*
D58*
%TO.N,Net-(J1-Pin_1)*%
X127925629Y-133543523D02*
X127191955Y-134277197D01*
X127925629Y-131045523D02*
X127925629Y-133543523D01*
X127224629Y-130344523D02*
X127925629Y-131045523D01*
X121025629Y-126244523D02*
X121025629Y-128044523D01*
X121025629Y-128044523D02*
X123325629Y-130344523D01*
X123325629Y-130344523D02*
X127224629Y-130344523D01*
X127191955Y-134277197D02*
X126663129Y-134277197D01*
D56*
%TO.N,/3V7*%
X124625629Y-129044523D02*
X125525629Y-129044523D01*
X122993984Y-127412878D02*
X124625629Y-129044523D01*
X122993984Y-125670458D02*
X122993984Y-127412878D01*
D54*
%TO.N,Net-(J1-Pin_1)*%
X121025629Y-126244523D02*
X121025629Y-126344523D01*
D59*
%TO.N,Net-(U8-FB)*%
X102275629Y-116894523D02*
X104775629Y-116894523D01*
D50*
X107475629Y-118394523D02*
X106275629Y-118394523D01*
X106275629Y-118394523D02*
X104775629Y-116894523D01*
X106838129Y-121044523D02*
X107500628Y-121044523D01*
X107975629Y-120569522D02*
X107975629Y-118894523D01*
X107500628Y-121044523D02*
X107975629Y-120569522D01*
X107975629Y-118894523D02*
X107475629Y-118394523D01*
D56*
%TO.N,/3V7*%
X116840278Y-131878301D02*
X119736942Y-128981637D01*
D54*
%TO.N,/CHIP_PU*%
X107025629Y-161544523D02*
X107025629Y-165844523D01*
%TO.N,/BOOT*%
X117825629Y-156044523D02*
X117825629Y-162344523D01*
D51*
%TO.N,/5V*%
X80345038Y-165225114D02*
X80345038Y-165225113D01*
X77914069Y-167656083D02*
X80345038Y-165225114D01*
X74192795Y-167656083D02*
X77914069Y-167656083D01*
D53*
X82439842Y-165958737D02*
X81910572Y-166488006D01*
X81910572Y-166488006D02*
X81910572Y-167902220D01*
X77967038Y-161538966D02*
X75547319Y-161538966D01*
X79584898Y-163156826D02*
X77967038Y-161538966D01*
D51*
X81025628Y-164544523D02*
X80345038Y-165225113D01*
D53*
X80345038Y-165225113D02*
X79278721Y-165225113D01*
X79278721Y-165225113D02*
X78751926Y-164698319D01*
D54*
%TO.N,/1V8*%
X96224841Y-176743735D02*
X96224841Y-173463998D01*
X96525629Y-177044523D02*
X96224841Y-176743735D01*
D50*
%TO.N,Net-(Q2-G)*%
X123725630Y-136994523D02*
X124388129Y-136994523D01*
D53*
%TO.N,/3V7*%
X116691851Y-131878301D02*
X117176068Y-132362517D01*
D55*
%TO.N,GND*%
X115054747Y-135898051D02*
X116468961Y-134483838D01*
D53*
%TO.N,/3V7*%
X115054747Y-130241197D02*
X116115407Y-131301857D01*
X115797209Y-133812086D02*
X116645201Y-132964095D01*
X116115407Y-131301857D02*
X116691851Y-131878301D01*
D50*
X117176068Y-132433228D02*
X117176068Y-132362517D01*
X116044697Y-131301857D02*
X116115407Y-131301857D01*
D53*
X114665838Y-132680716D02*
X116044697Y-131301857D01*
X117176068Y-132362517D02*
X118590281Y-133776731D01*
D50*
X118519570Y-133776731D02*
X118590281Y-133776731D01*
D53*
X118272083Y-136286960D02*
X119170075Y-135388969D01*
X118590281Y-133776731D02*
X119650941Y-134837391D01*
X117140712Y-135155589D02*
X118519570Y-133776731D01*
D50*
X119650941Y-134908102D02*
X119650941Y-134837391D01*
D53*
X114418351Y-130241197D02*
X115054747Y-130241197D01*
X113322336Y-131337213D02*
X113520327Y-131139221D01*
D55*
%TO.N,GND*%
X113994087Y-132008964D02*
X113525629Y-132477422D01*
X113525629Y-132477422D02*
X113525629Y-133044523D01*
D53*
%TO.N,Net-(U2-~{CHRG})*%
X124300630Y-152434777D02*
X123960629Y-152094776D01*
X123960629Y-152094776D02*
X123960629Y-150258953D01*
%TO.N,Net-(U2-~{STDBY})*%
X122690629Y-152379523D02*
X122525629Y-152544523D01*
X122690629Y-150258953D02*
X122690629Y-152379523D01*
%TO.N,/3V7*%
X121420629Y-153477023D02*
X121488129Y-153544523D01*
X121420629Y-150258953D02*
X121420629Y-153477023D01*
D54*
%TO.N,/DATA-*%
X126414017Y-148533953D02*
X128115782Y-148533953D01*
X126225108Y-148345044D02*
X126414017Y-148533953D01*
%TO.N,/DATA+*%
X127116101Y-148033953D02*
X126826150Y-147744002D01*
X128115782Y-148033953D02*
X127116101Y-148033953D01*
%TO.N,/DATA-*%
X85803297Y-148768523D02*
X82334572Y-145299798D01*
X103801629Y-148768523D02*
X85803297Y-148768523D01*
X105850079Y-146720073D02*
X103801629Y-148768523D01*
X82334572Y-145299798D02*
X82334572Y-144790681D01*
X106951121Y-146720073D02*
X105850079Y-146720073D01*
X107326150Y-146345044D02*
X106951121Y-146720073D01*
D50*
%TO.N,Net-(J5-CC1)*%
X129536199Y-149033953D02*
X130525629Y-148044523D01*
X128115782Y-149033953D02*
X129536199Y-149033953D01*
%TO.N,Net-(J5-CC2)*%
X130515059Y-146033953D02*
X130525629Y-146044523D01*
X128115782Y-146033953D02*
X130515059Y-146033953D01*
D54*
%TO.N,Net-(U3-CS)*%
X127983940Y-138044523D02*
X128691093Y-137337370D01*
X125525629Y-137544523D02*
X126025629Y-138044523D01*
X126025629Y-138044523D02*
X127983940Y-138044523D01*
X125025629Y-136044523D02*
X125525629Y-136544523D01*
X125525629Y-136544523D02*
X125525629Y-137544523D01*
X124388129Y-136044523D02*
X125025629Y-136044523D01*
D53*
%TO.N,/VIN*%
X125230629Y-150258953D02*
X125230629Y-152212023D01*
X125230629Y-152212023D02*
X125525629Y-152507023D01*
%TO.N,Net-(U2-PROG)*%
X123960629Y-143979523D02*
X123960629Y-145308953D01*
X123025629Y-143044523D02*
X123960629Y-143979523D01*
%TO.N,/VIN*%
X125305629Y-150183953D02*
X125230629Y-150258953D01*
X128115782Y-150183953D02*
X125305629Y-150183953D01*
D50*
X128040782Y-150258953D02*
X128115782Y-150183953D01*
D53*
%TO.N,Net-(U3-VCC)*%
X130525629Y-135044523D02*
X130525629Y-134007023D01*
X129525629Y-136044523D02*
X130525629Y-135044523D01*
X126663129Y-136044523D02*
X129525629Y-136044523D01*
X130525629Y-134007023D02*
X129025629Y-132507023D01*
D54*
%TO.N,Net-(J1-Pin_1)*%
X126663129Y-134277197D02*
X126663129Y-135094523D01*
X126663129Y-133494523D02*
X126663129Y-134277197D01*
D50*
%TO.N,/CSI_DCLN*%
X84118826Y-141186781D02*
X85028649Y-142096604D01*
X84118826Y-140819086D02*
X84118826Y-141186781D01*
%TO.N,/CSI_D0P*%
X86300629Y-139196655D02*
X86300629Y-134319523D01*
X86300629Y-134319523D02*
X86025629Y-134044523D01*
X86824700Y-139720726D02*
X86300629Y-139196655D01*
X86824700Y-140300553D02*
X86824700Y-139720726D01*
%TO.N,/CSI_D1P*%
X81650630Y-141730860D02*
X81650630Y-141044523D01*
X82501347Y-142581577D02*
X81650630Y-141730860D01*
X82501347Y-143161405D02*
X82501347Y-142581577D01*
X83232598Y-143892656D02*
X82501347Y-143161405D01*
X81800628Y-141194521D02*
X81650630Y-141044523D01*
%TO.N,/DSI_D1N*%
X93690706Y-134014374D02*
X93110880Y-134014374D01*
X98456480Y-144094050D02*
X98456480Y-143838198D01*
X98800628Y-144844524D02*
X98800628Y-144438198D01*
X98800628Y-142737008D02*
X98800628Y-139124296D01*
X98800628Y-143494050D02*
X98800628Y-143238198D01*
X98600629Y-145044523D02*
X98800628Y-144844524D01*
X98800628Y-139124296D02*
X93690706Y-134014374D01*
X98800628Y-143238198D02*
X98800628Y-142737008D01*
X98628554Y-144266124D02*
G75*
G02*
X98456576Y-144094050I46J172024D01*
G01*
X98800628Y-144438198D02*
G75*
G03*
X98628554Y-144266172I-172028J-2D01*
G01*
X98456480Y-143838198D02*
G75*
G02*
X98628554Y-143666080I172120J-2D01*
G01*
X98628554Y-143666124D02*
G75*
G03*
X98800624Y-143494050I46J172024D01*
G01*
%TO.N,/DSI_D0N*%
X97724841Y-169845311D02*
X97724841Y-173463998D01*
X98025629Y-169544523D02*
X97724841Y-169845311D01*
%TO.N,/DSI_D0P*%
X97224841Y-169593735D02*
X97224841Y-173463998D01*
X97175629Y-169544523D02*
X97224841Y-169593735D01*
%TO.N,/DSI_DCLP*%
X100224841Y-171668735D02*
X100224841Y-173463998D01*
X100100629Y-171544523D02*
X100224841Y-171668735D01*
%TO.N,/DSI_DCLN*%
X100724841Y-171770311D02*
X100724841Y-173463998D01*
X100950629Y-171544523D02*
X100724841Y-171770311D01*
%TO.N,/DSI_D1P*%
X98724841Y-170668735D02*
X98600629Y-170544523D01*
X98724841Y-173463998D02*
X98724841Y-170668735D01*
%TO.N,/DSI_D1N*%
X99224841Y-170770311D02*
X99450629Y-170544523D01*
X99224841Y-173463998D02*
X99224841Y-170770311D01*
%TO.N,/DSI_D1P*%
X99250630Y-145319522D02*
X98525629Y-146044523D01*
X99250630Y-144844524D02*
X99250630Y-145319522D01*
X99250630Y-138937900D02*
X99250630Y-144844524D01*
X94008905Y-133696175D02*
X99250630Y-138937900D01*
X94008905Y-133116348D02*
X94008905Y-133696175D01*
%TO.N,/DSI_DCLN*%
X92856519Y-136450413D02*
X93056518Y-136650412D01*
X92856519Y-136135891D02*
X92856519Y-136450413D01*
X92212854Y-135492226D02*
X92856519Y-136135891D01*
X92212854Y-134912399D02*
X92212854Y-135492226D01*
%TO.N,/DSI_DCLP*%
X91314829Y-135810425D02*
X91894655Y-135810425D01*
X91894655Y-135810425D02*
X92406517Y-136322287D01*
X92406517Y-136450413D02*
X92206518Y-136650412D01*
X92406517Y-136322287D02*
X92406517Y-136450413D01*
%TO.N,/DSI_D0N*%
X91590316Y-138145523D02*
X91625629Y-138110210D01*
X90057824Y-138145523D02*
X91590316Y-138145523D01*
X89518777Y-137606476D02*
X90057824Y-138145523D01*
%TO.N,/DSI_D0P*%
X90416803Y-136935697D02*
X91025629Y-137544523D01*
X90416803Y-136708451D02*
X90416803Y-136935697D01*
D54*
%TO.N,Net-(J1-Pin_1)*%
X121025629Y-124810385D02*
X121025629Y-126244523D01*
X121579770Y-124256244D02*
X121025629Y-124810385D01*
D56*
%TO.N,/3V7*%
X122993984Y-125670458D02*
X122993984Y-125670828D01*
D55*
%TO.N,GND*%
X117529621Y-138372925D02*
X118943834Y-136958712D01*
D50*
%TO.N,/CSI_IO0*%
X112683596Y-141665269D02*
X113107860Y-141241005D01*
X109746375Y-141665269D02*
X109925629Y-141665269D01*
%TD*%
%TA.AperFunction,Conductor*%
%TO.N,GND*%
G36*
X98198841Y-127364708D02*
G01*
X98244596Y-127417512D01*
X98254540Y-127486670D01*
X98225515Y-127550226D01*
X98218081Y-127558085D01*
X94825628Y-130844524D01*
X94725629Y-131344523D01*
X94725629Y-131344524D01*
X95344572Y-131963466D01*
X95725629Y-132344523D01*
X94886290Y-133195852D01*
X94868485Y-133169206D01*
X94854073Y-133147636D01*
X94854071Y-133147634D01*
X94854068Y-133147630D01*
X93977622Y-132271184D01*
X93977618Y-132271181D01*
X93928036Y-132238051D01*
X93849808Y-132222491D01*
X93849804Y-132222491D01*
X93771575Y-132238051D01*
X93771574Y-132238051D01*
X93721993Y-132271181D01*
X93721989Y-132271184D01*
X93163741Y-132829432D01*
X93163738Y-132829436D01*
X93130608Y-132879017D01*
X93130608Y-132879018D01*
X93115048Y-132957246D01*
X93115048Y-132957249D01*
X93119383Y-132979045D01*
X93113154Y-133048637D01*
X93070290Y-133103813D01*
X93004400Y-133127056D01*
X92973575Y-133124852D01*
X92968235Y-133123790D01*
X92951781Y-133120517D01*
X92951780Y-133120517D01*
X92951779Y-133120517D01*
X92873550Y-133136077D01*
X92873549Y-133136077D01*
X92823968Y-133169207D01*
X92823964Y-133169210D01*
X92265716Y-133727458D01*
X92265713Y-133727462D01*
X92232583Y-133777043D01*
X92232583Y-133777044D01*
X92217023Y-133855272D01*
X92217023Y-133855273D01*
X92221358Y-133877069D01*
X92215129Y-133946661D01*
X92172265Y-134001838D01*
X92106375Y-134025081D01*
X92075551Y-134022877D01*
X92053755Y-134018542D01*
X92053753Y-134018542D01*
X91975524Y-134034102D01*
X91975523Y-134034102D01*
X91925942Y-134067232D01*
X91925938Y-134067235D01*
X91367690Y-134625483D01*
X91367687Y-134625487D01*
X91334557Y-134675068D01*
X91334557Y-134675069D01*
X91318997Y-134753297D01*
X91318997Y-134753300D01*
X91323332Y-134775096D01*
X91317103Y-134844688D01*
X91274239Y-134899864D01*
X91208349Y-134923107D01*
X91177524Y-134920903D01*
X91172184Y-134919841D01*
X91155730Y-134916568D01*
X91155729Y-134916568D01*
X91155728Y-134916568D01*
X91077499Y-134932128D01*
X91077498Y-134932128D01*
X91027917Y-134965258D01*
X91027913Y-134965261D01*
X90469665Y-135523509D01*
X90469662Y-135523513D01*
X90436532Y-135573094D01*
X90436532Y-135573095D01*
X90420972Y-135651323D01*
X90420972Y-135651326D01*
X90425307Y-135673122D01*
X90419078Y-135742714D01*
X90376214Y-135797890D01*
X90310324Y-135821133D01*
X90279500Y-135818929D01*
X90257704Y-135814594D01*
X90257702Y-135814594D01*
X90179473Y-135830154D01*
X90179472Y-135830154D01*
X90129891Y-135863284D01*
X90129887Y-135863287D01*
X89571639Y-136421535D01*
X89571636Y-136421539D01*
X89538506Y-136471120D01*
X89538506Y-136471121D01*
X89522946Y-136549349D01*
X89522946Y-136549350D01*
X89527281Y-136571146D01*
X89521052Y-136640738D01*
X89478188Y-136695915D01*
X89412298Y-136719158D01*
X89381474Y-136716954D01*
X89359678Y-136712619D01*
X89359676Y-136712619D01*
X89281447Y-136728179D01*
X89281446Y-136728179D01*
X89231865Y-136761309D01*
X89231861Y-136761312D01*
X88673613Y-137319560D01*
X88673610Y-137319564D01*
X88640480Y-137369145D01*
X88640480Y-137369146D01*
X88624920Y-137447374D01*
X88624920Y-137447379D01*
X88640480Y-137525607D01*
X88640480Y-137525608D01*
X88673610Y-137575189D01*
X88673613Y-137575193D01*
X89550059Y-138451639D01*
X89550063Y-138451642D01*
X89550065Y-138451644D01*
X89599645Y-138484772D01*
X89660022Y-138496781D01*
X88725629Y-139444523D01*
X88615246Y-139554905D01*
X88601022Y-139483395D01*
X88601022Y-139483394D01*
X88580313Y-139452402D01*
X88567894Y-139433815D01*
X88567892Y-139433813D01*
X88567889Y-139433809D01*
X87691443Y-138557363D01*
X87691439Y-138557360D01*
X87641857Y-138524230D01*
X87563629Y-138508670D01*
X87563625Y-138508670D01*
X87485396Y-138524230D01*
X87485395Y-138524230D01*
X87435814Y-138557360D01*
X87435810Y-138557363D01*
X87262810Y-138730364D01*
X87201487Y-138763849D01*
X87131795Y-138758865D01*
X87075862Y-138716993D01*
X87051445Y-138651529D01*
X87051129Y-138642683D01*
X87051129Y-136613630D01*
X87053671Y-136604971D01*
X87052383Y-136596041D01*
X87063361Y-136571970D01*
X87070814Y-136546591D01*
X87077631Y-136540683D01*
X87081377Y-136532472D01*
X87103627Y-136518157D01*
X87123618Y-136500836D01*
X87134103Y-136498552D01*
X87140138Y-136494670D01*
X87174954Y-136489655D01*
X87175070Y-136489630D01*
X87255014Y-136489630D01*
X87294624Y-136489630D01*
X87294834Y-136489572D01*
X87302340Y-136489569D01*
X87303229Y-136489569D01*
X87303242Y-136489573D01*
X87303300Y-136489569D01*
X87315911Y-136489572D01*
X87315915Y-136489571D01*
X87315929Y-136489568D01*
X87332396Y-136485811D01*
X87434653Y-136462489D01*
X87434655Y-136462488D01*
X87544395Y-136409660D01*
X87639628Y-136333737D01*
X87715578Y-136238526D01*
X87768437Y-136128801D01*
X87795554Y-136010064D01*
X87795556Y-135988711D01*
X87795562Y-135988692D01*
X87795562Y-135948670D01*
X87795568Y-135901573D01*
X87795566Y-135901569D01*
X87795568Y-135892130D01*
X87795562Y-135892038D01*
X87795562Y-135880542D01*
X87795566Y-135880526D01*
X87795564Y-135880526D01*
X87795577Y-135768263D01*
X87795576Y-135768262D01*
X87795577Y-135768260D01*
X87768480Y-135649498D01*
X87715632Y-135539744D01*
X87715631Y-135539743D01*
X87715631Y-135539742D01*
X87715629Y-135539740D01*
X87639683Y-135444505D01*
X87544443Y-135368560D01*
X87544438Y-135368557D01*
X87434687Y-135315714D01*
X87434688Y-135315714D01*
X87315922Y-135288621D01*
X87255014Y-135288630D01*
X87175129Y-135288630D01*
X87108090Y-135268945D01*
X87062335Y-135216141D01*
X87051129Y-135164630D01*
X87051129Y-132631765D01*
X87070814Y-132564726D01*
X87123618Y-132518971D01*
X87143025Y-132511994D01*
X87203650Y-132495750D01*
X87317778Y-132429858D01*
X87410964Y-132336672D01*
X87476856Y-132222544D01*
X87510964Y-132095250D01*
X87510964Y-131963466D01*
X87476856Y-131836172D01*
X87410964Y-131722044D01*
X87317778Y-131628858D01*
X87260714Y-131595912D01*
X87203651Y-131562966D01*
X87136685Y-131545023D01*
X87076356Y-131528858D01*
X86944572Y-131528858D01*
X86817276Y-131562966D01*
X86703150Y-131628858D01*
X86703147Y-131628860D01*
X86609966Y-131722041D01*
X86609964Y-131722044D01*
X86544072Y-131836170D01*
X86509964Y-131963466D01*
X86509964Y-132071811D01*
X86493352Y-132133810D01*
X86470608Y-132173203D01*
X86450129Y-132249632D01*
X86450129Y-133496905D01*
X86430444Y-133563944D01*
X86377640Y-133609699D01*
X86308482Y-133619643D01*
X86264130Y-133604293D01*
X86218816Y-133578131D01*
X86155168Y-133561077D01*
X86091521Y-133544023D01*
X85959737Y-133544023D01*
X85832441Y-133578131D01*
X85718315Y-133644023D01*
X85718312Y-133644025D01*
X85625131Y-133737206D01*
X85625129Y-133737209D01*
X85559237Y-133851335D01*
X85525129Y-133978631D01*
X85525129Y-134110414D01*
X85559237Y-134237710D01*
X85592183Y-134294773D01*
X85625129Y-134351837D01*
X85718315Y-134445023D01*
X85832443Y-134510915D01*
X85908224Y-134531220D01*
X85967882Y-134567584D01*
X85998412Y-134630430D01*
X86000129Y-134650994D01*
X86000129Y-139236217D01*
X86003492Y-139248767D01*
X86020608Y-139312645D01*
X86043788Y-139352792D01*
X86043789Y-139352796D01*
X86043790Y-139352796D01*
X86060168Y-139381164D01*
X86060170Y-139381167D01*
X86248407Y-139569404D01*
X86281892Y-139630727D01*
X86276908Y-139700419D01*
X86248407Y-139744766D01*
X85979536Y-140013637D01*
X85979533Y-140013641D01*
X85946403Y-140063222D01*
X85946403Y-140063223D01*
X85930843Y-140141451D01*
X85930843Y-140141454D01*
X85935178Y-140163250D01*
X85928949Y-140232842D01*
X85886085Y-140288018D01*
X85843742Y-140307710D01*
X85816706Y-140314494D01*
X85767576Y-140304722D01*
X85689345Y-140320283D01*
X85639765Y-140353411D01*
X85632438Y-140360737D01*
X85605770Y-140367430D01*
X85591463Y-140366861D01*
X85577802Y-140371139D01*
X85557251Y-140365501D01*
X85535956Y-140364655D01*
X85524229Y-140356442D01*
X85510421Y-140352655D01*
X85487907Y-140334840D01*
X85354865Y-140201798D01*
X85321380Y-140140475D01*
X85318546Y-140114117D01*
X85318546Y-140049945D01*
X85318556Y-140049810D01*
X85318554Y-140039902D01*
X85318555Y-140039900D01*
X85318546Y-139992305D01*
X85318546Y-139952796D01*
X85318536Y-139952759D01*
X85318533Y-139931415D01*
X85291419Y-139812691D01*
X85286123Y-139801696D01*
X85238574Y-139702976D01*
X85238573Y-139702975D01*
X85238573Y-139702974D01*
X85162642Y-139607764D01*
X85162640Y-139607762D01*
X85162639Y-139607761D01*
X85092870Y-139552119D01*
X85089397Y-139549349D01*
X85049259Y-139492161D01*
X85046411Y-139422349D01*
X85081758Y-139362080D01*
X85089384Y-139355471D01*
X85092742Y-139352792D01*
X85162713Y-139296972D01*
X85238642Y-139201724D01*
X85291473Y-139091969D01*
X85318556Y-138973210D01*
X85318555Y-138973203D01*
X85319297Y-138966617D01*
X85346350Y-138902198D01*
X85354820Y-138892813D01*
X85418546Y-138829088D01*
X85484438Y-138714960D01*
X85518546Y-138587666D01*
X85518546Y-138455882D01*
X85484438Y-138328588D01*
X85418546Y-138214460D01*
X85325360Y-138121274D01*
X85268296Y-138088328D01*
X85211233Y-138055382D01*
X85133728Y-138034615D01*
X85083938Y-138021274D01*
X84952154Y-138021274D01*
X84824858Y-138055382D01*
X84710732Y-138121274D01*
X84710729Y-138121276D01*
X84617548Y-138214457D01*
X84617546Y-138214460D01*
X84551654Y-138328586D01*
X84536275Y-138385983D01*
X84517546Y-138455882D01*
X84517546Y-138587666D01*
X84532288Y-138642683D01*
X84546511Y-138695765D01*
X84545915Y-138720759D01*
X84549474Y-138745505D01*
X84545098Y-138755085D01*
X84544848Y-138765615D01*
X84530835Y-138786318D01*
X84520449Y-138809061D01*
X84511587Y-138814755D01*
X84505685Y-138823477D01*
X84482704Y-138833318D01*
X84461671Y-138846835D01*
X84445815Y-138849114D01*
X84441457Y-138850981D01*
X84426736Y-138851858D01*
X84328773Y-138851858D01*
X84328710Y-138851853D01*
X84271189Y-138851857D01*
X84271159Y-138851858D01*
X84223953Y-138851858D01*
X84223532Y-138851884D01*
X84210268Y-138851885D01*
X84091535Y-138878990D01*
X83981816Y-138931828D01*
X83981814Y-138931829D01*
X83886600Y-139007756D01*
X83886598Y-139007757D01*
X83886363Y-139008052D01*
X83810659Y-139102968D01*
X83810658Y-139102969D01*
X83810658Y-139102970D01*
X83757807Y-139212688D01*
X83757806Y-139212691D01*
X83730691Y-139331414D01*
X83730689Y-139345448D01*
X83730688Y-139352771D01*
X83730682Y-139352796D01*
X83730682Y-139389563D01*
X83730682Y-139392329D01*
X83730671Y-139449810D01*
X83730682Y-139449945D01*
X83730682Y-139559614D01*
X83730733Y-139560408D01*
X83730731Y-139573197D01*
X83730732Y-139573204D01*
X83757815Y-139691953D01*
X83810645Y-139801696D01*
X83886572Y-139896932D01*
X83981788Y-139972883D01*
X84091519Y-140025740D01*
X84210261Y-140052853D01*
X84231607Y-140052854D01*
X84231620Y-140052858D01*
X84271159Y-140052858D01*
X84318754Y-140052862D01*
X84318756Y-140052861D01*
X84328710Y-140052862D01*
X84328773Y-140052858D01*
X84593546Y-140052858D01*
X84660585Y-140072543D01*
X84706340Y-140125347D01*
X84717546Y-140176858D01*
X84717546Y-140329512D01*
X84733261Y-140388163D01*
X84733262Y-140388165D01*
X84738025Y-140405939D01*
X84742020Y-140412858D01*
X84777586Y-140474461D01*
X84792812Y-140489687D01*
X85062936Y-140759811D01*
X85068217Y-140769482D01*
X85076826Y-140776363D01*
X85084666Y-140799606D01*
X85096421Y-140821134D01*
X85095634Y-140832126D01*
X85099157Y-140842568D01*
X85095526Y-140877674D01*
X85088833Y-140904342D01*
X85081507Y-140911669D01*
X85048379Y-140961249D01*
X85032818Y-141039480D01*
X85042590Y-141088610D01*
X85035806Y-141115646D01*
X85000395Y-141175878D01*
X84938042Y-141207404D01*
X84891346Y-141207082D01*
X84869550Y-141202747D01*
X84869548Y-141202747D01*
X84791319Y-141218307D01*
X84791318Y-141218307D01*
X84746453Y-141248286D01*
X84716153Y-141257773D01*
X84686408Y-141268868D01*
X84683052Y-141268138D01*
X84679776Y-141269164D01*
X84649155Y-141260764D01*
X84618135Y-141254016D01*
X84614421Y-141251235D01*
X84612395Y-141250680D01*
X84589881Y-141232865D01*
X84573462Y-141216446D01*
X84539977Y-141155123D01*
X84544961Y-141085431D01*
X84553757Y-141066764D01*
X84585215Y-141012277D01*
X84585214Y-141012277D01*
X84585218Y-141012272D01*
X84619326Y-140884978D01*
X84619326Y-140753194D01*
X84585218Y-140625900D01*
X84519326Y-140511772D01*
X84426140Y-140418586D01*
X84369076Y-140385640D01*
X84312013Y-140352694D01*
X84234187Y-140331841D01*
X84184718Y-140318586D01*
X84052934Y-140318586D01*
X83925638Y-140352694D01*
X83811512Y-140418586D01*
X83811509Y-140418588D01*
X83718328Y-140511769D01*
X83718326Y-140511772D01*
X83652434Y-140625898D01*
X83639868Y-140672797D01*
X83618326Y-140753194D01*
X83618326Y-140884978D01*
X83625478Y-140911669D01*
X83652434Y-141012273D01*
X83683895Y-141066764D01*
X83718326Y-141126400D01*
X83718328Y-141126402D01*
X83794852Y-141202926D01*
X83799097Y-141209207D01*
X83802895Y-141211785D01*
X83809459Y-141224539D01*
X83821224Y-141241946D01*
X83824673Y-141250030D01*
X83838805Y-141302770D01*
X83867134Y-141351837D01*
X83870866Y-141358302D01*
X83870867Y-141358303D01*
X83878366Y-141371292D01*
X84164910Y-141657836D01*
X84198395Y-141719159D01*
X84197500Y-141775699D01*
X84190807Y-141802367D01*
X84183481Y-141809694D01*
X84150353Y-141859274D01*
X84134792Y-141937505D01*
X84144564Y-141986636D01*
X84137780Y-142013672D01*
X84133628Y-142020733D01*
X84132898Y-142028893D01*
X84116178Y-142050415D01*
X84102369Y-142073904D01*
X84095059Y-142077599D01*
X84090034Y-142084069D01*
X84064333Y-142093135D01*
X84040016Y-142105430D01*
X84031868Y-142104587D01*
X84024144Y-142107312D01*
X83993319Y-142105108D01*
X83987979Y-142104046D01*
X83971525Y-142100773D01*
X83971524Y-142100773D01*
X83971523Y-142100773D01*
X83893294Y-142116333D01*
X83893293Y-142116333D01*
X83848428Y-142146312D01*
X83781751Y-142167190D01*
X83714370Y-142148706D01*
X83691856Y-142130891D01*
X83583885Y-142022920D01*
X83583877Y-142022914D01*
X83515368Y-141983361D01*
X83515363Y-141983358D01*
X83489886Y-141976531D01*
X83438935Y-141962879D01*
X83438933Y-141962879D01*
X82995378Y-141962879D01*
X82928339Y-141943194D01*
X82907697Y-141926560D01*
X82587449Y-141606312D01*
X82553964Y-141544989D01*
X82551130Y-141518631D01*
X82551130Y-140891555D01*
X82570815Y-140824516D01*
X82613150Y-140784157D01*
X82626655Y-140776363D01*
X82663550Y-140755070D01*
X82745858Y-140672795D01*
X82804071Y-140572023D01*
X82811582Y-140544023D01*
X82834220Y-140459623D01*
X82834221Y-140459620D01*
X82834226Y-140440947D01*
X82834238Y-140440904D01*
X82834238Y-140401253D01*
X82834252Y-140353837D01*
X82834251Y-140353834D01*
X82834254Y-140344406D01*
X82834238Y-140344186D01*
X82834238Y-140036852D01*
X82834218Y-140036567D01*
X82834222Y-140026348D01*
X82804122Y-139913890D01*
X82745934Y-139813059D01*
X82745931Y-139813056D01*
X82745931Y-139813055D01*
X82663627Y-139730731D01*
X82613125Y-139701571D01*
X82604844Y-139692885D01*
X82593927Y-139687900D01*
X82581179Y-139668064D01*
X82564912Y-139651002D01*
X82561697Y-139637748D01*
X82556153Y-139629122D01*
X82551130Y-139594187D01*
X82551130Y-139465022D01*
X82570815Y-139397983D01*
X82587445Y-139377345D01*
X82989515Y-138975274D01*
X83050838Y-138941790D01*
X83077196Y-138938956D01*
X83167254Y-138938956D01*
X83167256Y-138938956D01*
X83294550Y-138904848D01*
X83408678Y-138838956D01*
X83501864Y-138745770D01*
X83567756Y-138631642D01*
X83601864Y-138504348D01*
X83601864Y-138372564D01*
X83567756Y-138245270D01*
X83501864Y-138131142D01*
X83408678Y-138037956D01*
X83351614Y-138005010D01*
X83294551Y-137972064D01*
X83230903Y-137955010D01*
X83167256Y-137937956D01*
X83035472Y-137937956D01*
X82908176Y-137972064D01*
X82794050Y-138037956D01*
X82794047Y-138037958D01*
X82700866Y-138131139D01*
X82700864Y-138131142D01*
X82634972Y-138245268D01*
X82600864Y-138372564D01*
X82600864Y-138462622D01*
X82581179Y-138529661D01*
X82564545Y-138550303D01*
X82066119Y-139048730D01*
X82010171Y-139104677D01*
X82010165Y-139104685D01*
X81970612Y-139173194D01*
X81970609Y-139173199D01*
X81950130Y-139249629D01*
X81950130Y-139744523D01*
X81950114Y-139750404D01*
X81950091Y-139750481D01*
X81950118Y-139859617D01*
X81950120Y-139859626D01*
X81980262Y-139972015D01*
X81980264Y-139972022D01*
X81991979Y-139992305D01*
X82038469Y-140072798D01*
X82038470Y-140072799D01*
X82038471Y-140072800D01*
X82120854Y-140155168D01*
X82154345Y-140216488D01*
X82149367Y-140286180D01*
X82120883Y-140330518D01*
X82038386Y-140413052D01*
X81977404Y-140518744D01*
X81926850Y-140566973D01*
X81858247Y-140580215D01*
X81837910Y-140576548D01*
X81716522Y-140544023D01*
X81584738Y-140544023D01*
X81457442Y-140578131D01*
X81343316Y-140644023D01*
X81343313Y-140644025D01*
X81250132Y-140737206D01*
X81250130Y-140737209D01*
X81184238Y-140851335D01*
X81150130Y-140978631D01*
X81150130Y-141110414D01*
X81184238Y-141237710D01*
X81250129Y-141351835D01*
X81250132Y-141351839D01*
X81313811Y-141415518D01*
X81347296Y-141476841D01*
X81350130Y-141503199D01*
X81350130Y-141770422D01*
X81351544Y-141775699D01*
X81370609Y-141846851D01*
X81377783Y-141859275D01*
X81377784Y-141859277D01*
X81410167Y-141915367D01*
X81410171Y-141915372D01*
X82164528Y-142669729D01*
X82198013Y-142731052D01*
X82200847Y-142757410D01*
X82200847Y-143200967D01*
X82207719Y-143226613D01*
X81625629Y-142644523D01*
X80987697Y-143282454D01*
X80284199Y-142669729D01*
X80068188Y-142481590D01*
X80030563Y-142422716D01*
X80025629Y-142388084D01*
X80025629Y-139096667D01*
X80045314Y-139029628D01*
X80062892Y-139008052D01*
X84725629Y-134444523D01*
X85020352Y-132086737D01*
X85048198Y-132022660D01*
X85055701Y-132014450D01*
X86325629Y-130744523D01*
X89688810Y-127381342D01*
X89750133Y-127347857D01*
X89776491Y-127345023D01*
X98131802Y-127345023D01*
X98198841Y-127364708D01*
G37*
%TD.AperFunction*%
%TA.AperFunction,Conductor*%
G36*
X99518168Y-122464208D02*
G01*
X99563923Y-122517012D01*
X99575129Y-122568523D01*
X99575129Y-122638442D01*
X99555444Y-122705481D01*
X99524763Y-122738212D01*
X99478482Y-122772369D01*
X99478479Y-122772372D01*
X99397836Y-122881639D01*
X99397835Y-122881641D01*
X99352982Y-123009820D01*
X99352982Y-123009822D01*
X99350129Y-123040252D01*
X99350129Y-123823791D01*
X99352982Y-123854221D01*
X99352982Y-123854223D01*
X99397835Y-123982402D01*
X99397836Y-123982404D01*
X99478479Y-124091672D01*
X99587747Y-124172315D01*
X99630474Y-124187266D01*
X99715928Y-124217168D01*
X99746359Y-124220022D01*
X99746363Y-124220022D01*
X100804899Y-124220022D01*
X100835328Y-124217168D01*
X100835330Y-124217168D01*
X100899419Y-124194741D01*
X100963511Y-124172315D01*
X101033773Y-124120459D01*
X101099397Y-124096490D01*
X101167568Y-124111805D01*
X101216636Y-124161545D01*
X101231391Y-124221922D01*
X101226331Y-124593001D01*
X101205735Y-124659766D01*
X101188622Y-124680372D01*
X99507371Y-126309085D01*
X99445524Y-126341592D01*
X99421092Y-126344023D01*
X91025491Y-126344023D01*
X90958452Y-126324338D01*
X90912697Y-126271534D01*
X90902753Y-126202376D01*
X90931778Y-126138820D01*
X90937810Y-126132342D01*
X91825629Y-125244523D01*
X91825629Y-122568523D01*
X91845314Y-122501484D01*
X91898118Y-122455729D01*
X91949629Y-122444523D01*
X99451129Y-122444523D01*
X99518168Y-122464208D01*
G37*
%TD.AperFunction*%
%TD*%
%TA.AperFunction,Conductor*%
%TO.N,/3V3*%
G36*
X92641306Y-166764208D02*
G01*
X92661948Y-166780842D01*
X94025629Y-168144523D01*
X94026267Y-168144523D01*
X94093306Y-168164208D01*
X94139061Y-168217012D01*
X94149005Y-168286170D01*
X94119980Y-168349726D01*
X94113948Y-168356204D01*
X93552177Y-168917975D01*
X93490854Y-168951460D01*
X93488814Y-168951886D01*
X93035695Y-169042509D01*
X93015375Y-169044853D01*
X90059078Y-169140218D01*
X89991439Y-169122705D01*
X89944005Y-169071403D01*
X89931187Y-169011120D01*
X89933656Y-168951886D01*
X90020677Y-166863359D01*
X90043136Y-166797199D01*
X90097799Y-166753682D01*
X90144570Y-166744523D01*
X92574267Y-166744523D01*
X92641306Y-166764208D01*
G37*
%TD.AperFunction*%
%TD*%
%TA.AperFunction,Conductor*%
%TO.N,/3V3*%
G36*
X77524043Y-143964208D02*
G01*
X77561618Y-144001950D01*
X78206155Y-145014794D01*
X78225531Y-145079757D01*
X78232527Y-145618413D01*
X78213714Y-145685702D01*
X78161509Y-145732139D01*
X78108537Y-145744023D01*
X76350129Y-145744023D01*
X76283090Y-145724338D01*
X76237335Y-145671534D01*
X76226129Y-145620023D01*
X76226129Y-145540253D01*
X76223275Y-145509823D01*
X76223275Y-145509821D01*
X76178422Y-145381642D01*
X76178421Y-145381640D01*
X76097779Y-145272373D01*
X75988511Y-145191730D01*
X75988509Y-145191729D01*
X75860329Y-145146876D01*
X75829899Y-145144023D01*
X75829895Y-145144023D01*
X75021363Y-145144023D01*
X75021359Y-145144023D01*
X74990929Y-145146876D01*
X74990927Y-145146876D01*
X74862748Y-145191729D01*
X74862746Y-145191730D01*
X74753479Y-145272373D01*
X74672836Y-145381640D01*
X74672835Y-145381642D01*
X74627982Y-145509821D01*
X74627982Y-145509823D01*
X74625129Y-145540253D01*
X74625129Y-146548792D01*
X74627982Y-146579222D01*
X74627982Y-146579224D01*
X74672835Y-146707403D01*
X74672836Y-146707405D01*
X74753479Y-146816673D01*
X74862747Y-146897316D01*
X74905474Y-146912267D01*
X74990928Y-146942169D01*
X75021359Y-146945023D01*
X75021363Y-146945023D01*
X75829899Y-146945023D01*
X75860328Y-146942169D01*
X75860330Y-146942169D01*
X75924419Y-146919742D01*
X75988511Y-146897316D01*
X76097779Y-146816673D01*
X76178422Y-146707405D01*
X76222429Y-146581641D01*
X76223275Y-146579224D01*
X76223275Y-146579222D01*
X76226129Y-146548792D01*
X76226129Y-146469023D01*
X76245814Y-146401984D01*
X76298618Y-146356229D01*
X76350129Y-146345023D01*
X78119563Y-146345023D01*
X78186602Y-146364708D01*
X78232357Y-146417512D01*
X78243553Y-146467413D01*
X78262397Y-147918415D01*
X78243585Y-147985702D01*
X78191380Y-148032139D01*
X78138408Y-148044023D01*
X76437629Y-148044023D01*
X76370590Y-148024338D01*
X76324835Y-147971534D01*
X76313629Y-147920023D01*
X76313629Y-147815253D01*
X76310775Y-147784823D01*
X76310775Y-147784821D01*
X76265922Y-147656642D01*
X76265921Y-147656640D01*
X76185279Y-147547373D01*
X76076011Y-147466730D01*
X76076009Y-147466729D01*
X75947829Y-147421876D01*
X75917399Y-147419023D01*
X75917395Y-147419023D01*
X75133863Y-147419023D01*
X75133859Y-147419023D01*
X75103429Y-147421876D01*
X75103427Y-147421876D01*
X74975248Y-147466729D01*
X74975246Y-147466730D01*
X74865979Y-147547373D01*
X74785336Y-147656640D01*
X74785335Y-147656642D01*
X74740482Y-147784821D01*
X74740482Y-147784823D01*
X74737629Y-147815253D01*
X74737629Y-148873792D01*
X74740482Y-148904222D01*
X74740482Y-148904224D01*
X74785335Y-149032403D01*
X74785336Y-149032405D01*
X74865979Y-149141673D01*
X74975247Y-149222316D01*
X75017974Y-149237267D01*
X75103428Y-149267169D01*
X75133859Y-149270023D01*
X75133863Y-149270023D01*
X75917399Y-149270023D01*
X75947828Y-149267169D01*
X75947830Y-149267169D01*
X76011919Y-149244742D01*
X76076011Y-149222316D01*
X76185279Y-149141673D01*
X76265922Y-149032405D01*
X76306914Y-148915257D01*
X76310775Y-148904224D01*
X76310775Y-148904222D01*
X76313629Y-148873792D01*
X76313629Y-148769023D01*
X76333314Y-148701984D01*
X76386118Y-148656229D01*
X76437629Y-148645023D01*
X78149433Y-148645023D01*
X78216472Y-148664708D01*
X78262227Y-148717512D01*
X78273423Y-148767413D01*
X78305254Y-151218415D01*
X78286442Y-151285702D01*
X78234237Y-151332139D01*
X78181265Y-151344023D01*
X76250129Y-151344023D01*
X76183090Y-151324338D01*
X76137335Y-151271534D01*
X76126129Y-151220023D01*
X76126129Y-151140253D01*
X76123275Y-151109823D01*
X76123275Y-151109821D01*
X76078422Y-150981642D01*
X76078421Y-150981640D01*
X75997779Y-150872373D01*
X75888511Y-150791730D01*
X75888509Y-150791729D01*
X75760329Y-150746876D01*
X75729899Y-150744023D01*
X75729895Y-150744023D01*
X74921363Y-150744023D01*
X74921359Y-150744023D01*
X74890929Y-150746876D01*
X74890927Y-150746876D01*
X74762748Y-150791729D01*
X74762746Y-150791730D01*
X74653479Y-150872373D01*
X74572836Y-150981640D01*
X74572835Y-150981642D01*
X74527982Y-151109821D01*
X74527982Y-151109823D01*
X74525129Y-151140253D01*
X74525129Y-152148792D01*
X74527982Y-152179222D01*
X74527982Y-152179224D01*
X74572835Y-152307403D01*
X74572836Y-152307405D01*
X74653479Y-152416673D01*
X74762747Y-152497316D01*
X74805474Y-152512267D01*
X74890928Y-152542169D01*
X74921359Y-152545023D01*
X74921363Y-152545023D01*
X75729899Y-152545023D01*
X75760328Y-152542169D01*
X75760330Y-152542169D01*
X75824419Y-152519742D01*
X75888511Y-152497316D01*
X75997779Y-152416673D01*
X76078422Y-152307405D01*
X76101918Y-152240257D01*
X76123275Y-152179224D01*
X76123275Y-152179222D01*
X76126129Y-152148792D01*
X76126129Y-152069023D01*
X76145814Y-152001984D01*
X76198618Y-151956229D01*
X76250129Y-151945023D01*
X78192290Y-151945023D01*
X78259329Y-151964708D01*
X78305084Y-152017512D01*
X78316280Y-152067413D01*
X78325064Y-152743752D01*
X78325074Y-152745362D01*
X78325074Y-153593161D01*
X78316429Y-153622601D01*
X78309906Y-153652588D01*
X78306151Y-153657603D01*
X78305389Y-153660200D01*
X78288755Y-153680842D01*
X78161393Y-153808204D01*
X78100070Y-153841689D01*
X78073712Y-153844523D01*
X76776436Y-153844523D01*
X76709397Y-153824838D01*
X76688755Y-153808204D01*
X76361393Y-153480842D01*
X76327908Y-153419519D01*
X76325074Y-153393161D01*
X76325074Y-153244523D01*
X76025074Y-152944523D01*
X72882106Y-152944523D01*
X72815067Y-152924838D01*
X72787958Y-152901221D01*
X72225074Y-152244523D01*
X72225073Y-152244523D01*
X70601710Y-152244523D01*
X70534671Y-152224838D01*
X70490801Y-152175977D01*
X70238165Y-151670705D01*
X70225074Y-151615251D01*
X70225074Y-150802601D01*
X70244759Y-150735562D01*
X70269691Y-150707342D01*
X70790585Y-150273264D01*
X70854688Y-150245468D01*
X70869968Y-150244523D01*
X71616274Y-150244523D01*
X71616275Y-150244523D01*
X72425074Y-149444523D01*
X72425074Y-145418586D01*
X72444759Y-145351547D01*
X72490283Y-145309410D01*
X74997547Y-143959344D01*
X75056335Y-143944523D01*
X77457004Y-143944523D01*
X77524043Y-143964208D01*
G37*
%TD.AperFunction*%
%TD*%
%TA.AperFunction,Conductor*%
%TO.N,/5V*%
G36*
X77548501Y-160164208D02*
G01*
X77559848Y-160172442D01*
X77714847Y-160298903D01*
X80314119Y-162419611D01*
X80322585Y-162427191D01*
X83173447Y-165225096D01*
X83173459Y-165225107D01*
X83173465Y-165225113D01*
X83585957Y-165607724D01*
X83621720Y-165667745D01*
X83625629Y-165698635D01*
X83625629Y-166689080D01*
X83605944Y-166756119D01*
X83584312Y-166781490D01*
X81815583Y-168364037D01*
X81752496Y-168394069D01*
X81683189Y-168385226D01*
X81642750Y-168356768D01*
X80025629Y-166644523D01*
X79125629Y-166644523D01*
X79125628Y-166644523D01*
X78162310Y-167661271D01*
X78101913Y-167696398D01*
X78072296Y-167699987D01*
X74169940Y-167699987D01*
X74102901Y-167680302D01*
X74091353Y-167671904D01*
X74078375Y-167661271D01*
X73371042Y-167081731D01*
X73331661Y-167024017D01*
X73325629Y-166985814D01*
X73325629Y-165494947D01*
X77508813Y-165494947D01*
X77508813Y-165626730D01*
X77542921Y-165754026D01*
X77575867Y-165811089D01*
X77608813Y-165868153D01*
X77701999Y-165961339D01*
X77816127Y-166027231D01*
X77943421Y-166061339D01*
X77943423Y-166061339D01*
X78075203Y-166061339D01*
X78075205Y-166061339D01*
X78202499Y-166027231D01*
X78316627Y-165961339D01*
X78409813Y-165868153D01*
X78475705Y-165754025D01*
X78509813Y-165626731D01*
X78509813Y-165494947D01*
X78475705Y-165367653D01*
X78409813Y-165253525D01*
X78316627Y-165160339D01*
X78259563Y-165127393D01*
X78202500Y-165094447D01*
X78138852Y-165077393D01*
X78075205Y-165060339D01*
X77943421Y-165060339D01*
X77816125Y-165094447D01*
X77701999Y-165160339D01*
X77701996Y-165160341D01*
X77608815Y-165253522D01*
X77608813Y-165253525D01*
X77542921Y-165367651D01*
X77508813Y-165494947D01*
X73325629Y-165494947D01*
X73325629Y-163891724D01*
X75502594Y-163891724D01*
X75502594Y-164023508D01*
X75519648Y-164087155D01*
X75536702Y-164150803D01*
X75569648Y-164207866D01*
X75602594Y-164264930D01*
X75695780Y-164358116D01*
X75809908Y-164424008D01*
X75937202Y-164458116D01*
X75937204Y-164458116D01*
X76068984Y-164458116D01*
X76068986Y-164458116D01*
X76196280Y-164424008D01*
X76310408Y-164358116D01*
X76403594Y-164264930D01*
X76469486Y-164150802D01*
X76503594Y-164023508D01*
X76503594Y-163891724D01*
X76469486Y-163764430D01*
X76403594Y-163650302D01*
X76310408Y-163557116D01*
X76253344Y-163524170D01*
X76196281Y-163491224D01*
X76132633Y-163474170D01*
X76068986Y-163457116D01*
X75937202Y-163457116D01*
X75809906Y-163491224D01*
X75695780Y-163557116D01*
X75695777Y-163557118D01*
X75602596Y-163650299D01*
X75602594Y-163650302D01*
X75536702Y-163764428D01*
X75504240Y-163885581D01*
X75502594Y-163891724D01*
X73325629Y-163891724D01*
X73325629Y-163044522D01*
X70454980Y-160359077D01*
X70419470Y-160298903D01*
X70422130Y-160229084D01*
X70462115Y-160171787D01*
X70526729Y-160145202D01*
X70539691Y-160144523D01*
X77481462Y-160144523D01*
X77548501Y-160164208D01*
G37*
%TD.AperFunction*%
%TD*%
%TA.AperFunction,Conductor*%
%TO.N,/3V3*%
G36*
X115668963Y-148703703D02*
G01*
X115713310Y-148732204D01*
X117937948Y-150956842D01*
X117971433Y-151018165D01*
X117966449Y-151087857D01*
X117937948Y-151132204D01*
X116609732Y-152460419D01*
X116548409Y-152493904D01*
X116478717Y-152488920D01*
X116438096Y-152463993D01*
X116434211Y-152460419D01*
X114120765Y-150332048D01*
X114084756Y-150272172D01*
X114086835Y-150202334D01*
X114117037Y-150153114D01*
X115537948Y-148732204D01*
X115599271Y-148698719D01*
X115668963Y-148703703D01*
G37*
%TD.AperFunction*%
%TD*%
%TA.AperFunction,Conductor*%
%TO.N,/LED*%
G36*
X92868668Y-171164208D02*
G01*
X92914423Y-171217012D01*
X92925629Y-171268523D01*
X92925629Y-172638804D01*
X92905944Y-172705843D01*
X92904731Y-172707695D01*
X92885973Y-172735767D01*
X92885972Y-172735768D01*
X92874341Y-172794245D01*
X92874341Y-174020523D01*
X92854656Y-174087562D01*
X92801852Y-174133317D01*
X92750341Y-174144523D01*
X92149629Y-174144523D01*
X92082590Y-174124838D01*
X92036835Y-174072034D01*
X92025629Y-174020523D01*
X92025629Y-171844523D01*
X91549629Y-171844523D01*
X91482590Y-171824838D01*
X91436835Y-171772034D01*
X91425629Y-171720523D01*
X91425629Y-171268523D01*
X91445314Y-171201484D01*
X91498118Y-171155729D01*
X91549629Y-171144523D01*
X92801629Y-171144523D01*
X92868668Y-171164208D01*
G37*
%TD.AperFunction*%
%TD*%
%TA.AperFunction,Conductor*%
%TO.N,/3V7*%
G36*
X116793888Y-127698252D02*
G01*
X116793904Y-127698279D01*
X116809143Y-127721391D01*
X116809155Y-127721408D01*
X116829357Y-127747958D01*
X116847593Y-127768837D01*
X118077318Y-128998563D01*
X118077342Y-128998585D01*
X118104783Y-129020695D01*
X118111572Y-129026165D01*
X118155959Y-129054680D01*
X118164947Y-129060134D01*
X118252440Y-129086764D01*
X118322119Y-129091724D01*
X118322133Y-129091725D01*
X118347267Y-129091973D01*
X118435269Y-129067075D01*
X118496581Y-129033570D01*
X118496583Y-129033568D01*
X118500467Y-129031446D01*
X118500960Y-129032348D01*
X118563418Y-129013973D01*
X118630468Y-129033623D01*
X118644386Y-129044002D01*
X119128705Y-129461059D01*
X119166659Y-129519720D01*
X119166874Y-129589589D01*
X119139198Y-129638810D01*
X119097105Y-129684730D01*
X119097105Y-129684731D01*
X117025629Y-131944523D01*
X119097105Y-134246163D01*
X120567615Y-135880063D01*
X120597831Y-135943062D01*
X120589191Y-136012395D01*
X120584985Y-136021130D01*
X119639714Y-137802817D01*
X119590906Y-137852813D01*
X119522816Y-137868483D01*
X119457063Y-137844855D01*
X119442041Y-137831927D01*
X119198730Y-137586080D01*
X119165564Y-137524585D01*
X119170909Y-137454920D01*
X119199180Y-137411179D01*
X119675280Y-136935080D01*
X119716437Y-136879884D01*
X119754420Y-136769246D01*
X119754420Y-136652269D01*
X119716437Y-136541632D01*
X119675280Y-136486435D01*
X119416111Y-136227266D01*
X119416109Y-136227264D01*
X119360916Y-136186110D01*
X119360917Y-136186110D01*
X119356294Y-136184523D01*
X119250277Y-136148126D01*
X119133300Y-136148126D01*
X119057336Y-136174205D01*
X119022664Y-136186108D01*
X119022658Y-136186111D01*
X118967467Y-136227264D01*
X118967465Y-136227266D01*
X118495948Y-136698782D01*
X118434625Y-136732267D01*
X118364933Y-136727283D01*
X118320132Y-136698327D01*
X116736685Y-135098379D01*
X116703519Y-135036883D01*
X116708864Y-134967218D01*
X116737135Y-134923477D01*
X117208779Y-134451834D01*
X117249936Y-134396638D01*
X117287919Y-134286000D01*
X117287919Y-134169023D01*
X117249936Y-134058386D01*
X117249934Y-134058383D01*
X117208780Y-134003190D01*
X116949608Y-133744018D01*
X116894415Y-133702864D01*
X116894416Y-133702864D01*
X116889793Y-133701277D01*
X116783776Y-133664880D01*
X116666799Y-133664880D01*
X116606157Y-133685699D01*
X116556163Y-133702862D01*
X116556157Y-133702865D01*
X116500966Y-133744018D01*
X116500964Y-133744020D01*
X116033903Y-134211080D01*
X115972580Y-134244565D01*
X115902888Y-134239581D01*
X115858087Y-134210625D01*
X114274639Y-132610677D01*
X114241473Y-132549181D01*
X114246818Y-132479516D01*
X114275089Y-132435775D01*
X114733905Y-131976960D01*
X114775062Y-131921764D01*
X114813045Y-131811126D01*
X114813045Y-131694149D01*
X114775062Y-131583512D01*
X114733905Y-131528315D01*
X114474736Y-131269146D01*
X114474734Y-131269144D01*
X114419541Y-131227990D01*
X114419542Y-131227990D01*
X114414919Y-131226403D01*
X114308902Y-131190006D01*
X114191925Y-131190006D01*
X114115961Y-131216085D01*
X114081289Y-131227988D01*
X114081283Y-131227991D01*
X114026092Y-131269144D01*
X114026090Y-131269146D01*
X113571857Y-131723378D01*
X113510534Y-131756863D01*
X113440842Y-131751879D01*
X113396042Y-131722923D01*
X112655967Y-130975137D01*
X112622800Y-130913641D01*
X112622338Y-130911359D01*
X112225629Y-128844523D01*
X111975629Y-128694523D01*
X112412146Y-119964180D01*
X116793888Y-127698252D01*
G37*
%TD.AperFunction*%
%TD*%
%TA.AperFunction,Conductor*%
%TO.N,GND*%
G36*
X112173000Y-115964208D02*
G01*
X112191563Y-115978811D01*
X119366610Y-122825108D01*
X119401523Y-122885629D01*
X119398174Y-122955418D01*
X119368689Y-123002501D01*
X117513906Y-124857284D01*
X117513906Y-124857285D01*
X119865772Y-127209151D01*
X119899257Y-127270474D01*
X119894273Y-127340166D01*
X119865802Y-127384484D01*
X118398036Y-128853239D01*
X118336724Y-128886744D01*
X118267031Y-128881783D01*
X118222644Y-128853268D01*
X116992901Y-127623525D01*
X116972694Y-127596968D01*
X112155630Y-119094523D01*
X112155629Y-119094523D01*
X110229891Y-119094523D01*
X110213799Y-119090076D01*
X110198785Y-119090558D01*
X110166227Y-119076932D01*
X110026985Y-118993624D01*
X109979562Y-118942313D01*
X109967945Y-118905095D01*
X109966202Y-118893130D01*
X109914827Y-118788040D01*
X109914825Y-118788038D01*
X109914825Y-118788037D01*
X109832114Y-118705326D01*
X109727020Y-118653949D01*
X109658890Y-118644023D01*
X109658889Y-118644023D01*
X109476912Y-118644023D01*
X109413248Y-118626432D01*
X109109200Y-118444523D01*
X109025629Y-118394523D01*
X109025628Y-118394523D01*
X107970121Y-118410760D01*
X107902787Y-118392109D01*
X107880533Y-118374456D01*
X107660141Y-118154064D01*
X107660133Y-118154058D01*
X107591624Y-118114505D01*
X107591619Y-118114502D01*
X107566142Y-118107675D01*
X107515191Y-118094023D01*
X107515189Y-118094023D01*
X106451462Y-118094023D01*
X106384423Y-118074338D01*
X106363781Y-118057704D01*
X105811948Y-117505871D01*
X105797244Y-117478943D01*
X105780652Y-117453125D01*
X105779760Y-117446924D01*
X105778463Y-117444548D01*
X105775629Y-117418190D01*
X105775629Y-117316870D01*
X105781697Y-117278554D01*
X105824647Y-117146370D01*
X105832610Y-117096093D01*
X105851129Y-116979172D01*
X105851129Y-116809873D01*
X105835722Y-116712606D01*
X105824647Y-116642676D01*
X105824646Y-116642672D01*
X105824646Y-116642671D01*
X105781698Y-116510492D01*
X105775629Y-116472174D01*
X105775629Y-116068523D01*
X105795314Y-116001484D01*
X105848118Y-115955729D01*
X105899629Y-115944523D01*
X112105961Y-115944523D01*
X112173000Y-115964208D01*
G37*
%TD.AperFunction*%
%TD*%
%TA.AperFunction,Conductor*%
%TO.N,/3V7*%
G36*
X112030641Y-119319708D02*
G01*
X112071490Y-119362899D01*
X112412146Y-119964181D01*
X111975629Y-128694523D01*
X112225629Y-128844523D01*
X109659859Y-128844523D01*
X109592820Y-128824838D01*
X109547065Y-128772034D01*
X109544731Y-128766584D01*
X108284501Y-125616698D01*
X108275629Y-125570637D01*
X108275629Y-120621011D01*
X108276129Y-120613385D01*
X108276129Y-119818523D01*
X108295814Y-119751484D01*
X108348618Y-119705729D01*
X108400129Y-119694523D01*
X110325628Y-119694523D01*
X110325629Y-119694523D01*
X110411848Y-119390219D01*
X110449062Y-119331086D01*
X110512339Y-119301458D01*
X110531152Y-119300023D01*
X111963602Y-119300023D01*
X112030641Y-119319708D01*
G37*
%TD.AperFunction*%
%TD*%
%TA.AperFunction,Conductor*%
%TO.N,Net-(D3-A)*%
G36*
X105516335Y-118064208D02*
G01*
X105536977Y-118080842D01*
X106035169Y-118579034D01*
X106091118Y-118634983D01*
X106091120Y-118634984D01*
X106091124Y-118634987D01*
X106159633Y-118674540D01*
X106159640Y-118674544D01*
X106236067Y-118695023D01*
X106315191Y-118695023D01*
X107299796Y-118695023D01*
X107366835Y-118714708D01*
X107387477Y-118731342D01*
X107606236Y-118950101D01*
X107639721Y-119011424D01*
X107642537Y-119035687D01*
X107650385Y-119500192D01*
X107631836Y-119567555D01*
X107579813Y-119614195D01*
X107510832Y-119625305D01*
X107471946Y-119613689D01*
X107452023Y-119603950D01*
X107452021Y-119603949D01*
X107383890Y-119594023D01*
X107383889Y-119594023D01*
X106292369Y-119594023D01*
X106292368Y-119594023D01*
X106224237Y-119603949D01*
X106119143Y-119655326D01*
X106036432Y-119738037D01*
X105985055Y-119843131D01*
X105975129Y-119911262D01*
X105975129Y-120277783D01*
X105985055Y-120345914D01*
X106036432Y-120451008D01*
X106067266Y-120481842D01*
X106100751Y-120543165D01*
X106095767Y-120612857D01*
X106067266Y-120657204D01*
X106036432Y-120688037D01*
X105985055Y-120793131D01*
X105975129Y-120861262D01*
X105975129Y-121227783D01*
X105985055Y-121295914D01*
X106036432Y-121401008D01*
X106119143Y-121483719D01*
X106119144Y-121483719D01*
X106119146Y-121483721D01*
X106224236Y-121535096D01*
X106258302Y-121540059D01*
X106292368Y-121545023D01*
X106292369Y-121545023D01*
X107383890Y-121545023D01*
X107406600Y-121541714D01*
X107452022Y-121535096D01*
X107497170Y-121513024D01*
X107566040Y-121501265D01*
X107630338Y-121528608D01*
X107669646Y-121586372D01*
X107675629Y-121624425D01*
X107675629Y-125570819D01*
X107666886Y-125616555D01*
X106435177Y-128720523D01*
X106417028Y-128766259D01*
X106374005Y-128821311D01*
X106308048Y-128844364D01*
X106301771Y-128844523D01*
X105630432Y-128844523D01*
X105576778Y-128830146D01*
X105576325Y-128831242D01*
X105568817Y-128828132D01*
X105568815Y-128828131D01*
X105441521Y-128794023D01*
X105309737Y-128794023D01*
X105182443Y-128828131D01*
X105174933Y-128831242D01*
X105174479Y-128830146D01*
X105120826Y-128844523D01*
X103849629Y-128844523D01*
X103782590Y-128824838D01*
X103736835Y-128772034D01*
X103725629Y-128720523D01*
X103725629Y-122344523D01*
X103725628Y-122344521D01*
X102819756Y-121581682D01*
X102781156Y-121523443D01*
X102775629Y-121486833D01*
X102775629Y-118168523D01*
X102795314Y-118101484D01*
X102848118Y-118055729D01*
X102899629Y-118044523D01*
X105449296Y-118044523D01*
X105516335Y-118064208D01*
G37*
%TD.AperFunction*%
%TD*%
%TA.AperFunction,Conductor*%
%TO.N,/5V*%
G36*
X101218668Y-115964208D02*
G01*
X101264423Y-116017012D01*
X101275629Y-116068523D01*
X101275629Y-116472174D01*
X101269560Y-116510492D01*
X101226611Y-116642671D01*
X101226611Y-116642674D01*
X101200129Y-116809873D01*
X101200129Y-116979172D01*
X101226610Y-117146370D01*
X101254132Y-117231073D01*
X101269560Y-117278554D01*
X101275629Y-117316870D01*
X101275629Y-117844523D01*
X102175948Y-118024586D01*
X102237824Y-118057036D01*
X102272335Y-118117788D01*
X102275629Y-118146178D01*
X102275629Y-121516833D01*
X102263850Y-121569582D01*
X101255629Y-123714520D01*
X101255629Y-123768322D01*
X101235944Y-123835361D01*
X101183140Y-123881116D01*
X101128545Y-123888966D01*
X101128491Y-123892139D01*
X101119628Y-123891988D01*
X101119627Y-123891988D01*
X101119626Y-123891988D01*
X101028891Y-123903463D01*
X100963276Y-123927428D01*
X100963269Y-123927431D01*
X100911748Y-123955110D01*
X100894979Y-123967486D01*
X100881441Y-123977478D01*
X100881438Y-123977480D01*
X100880434Y-123978010D01*
X100880075Y-123978471D01*
X100848879Y-123994686D01*
X100848762Y-123994748D01*
X100832409Y-124000471D01*
X100832408Y-124000471D01*
X100812142Y-124007563D01*
X100771186Y-124014522D01*
X99780070Y-124014522D01*
X99739115Y-124007563D01*
X99702490Y-123994747D01*
X99701492Y-123994219D01*
X99700909Y-123994182D01*
X99669817Y-123977478D01*
X99640469Y-123955819D01*
X99614333Y-123929684D01*
X99592665Y-123900324D01*
X99575399Y-123867654D01*
X99562587Y-123831038D01*
X99555629Y-123790085D01*
X99555629Y-123073959D01*
X99556323Y-123069871D01*
X99555790Y-123067639D01*
X99562587Y-123033006D01*
X99575401Y-122996387D01*
X99592668Y-122963714D01*
X99614335Y-122934356D01*
X99640470Y-122908222D01*
X99646795Y-122903555D01*
X99674693Y-122878751D01*
X99705374Y-122846020D01*
X99707972Y-122843196D01*
X99752619Y-122763379D01*
X99772304Y-122696340D01*
X99780629Y-122638442D01*
X99780629Y-122568523D01*
X99775932Y-122524839D01*
X99772026Y-122506887D01*
X99764731Y-122473348D01*
X99764477Y-122472312D01*
X99762239Y-122463150D01*
X99719229Y-122382438D01*
X99673474Y-122329634D01*
X99673468Y-122329627D01*
X99655886Y-122311683D01*
X99655885Y-122311682D01*
X99655883Y-122311680D01*
X99655881Y-122311679D01*
X99655879Y-122311677D01*
X99576069Y-122267034D01*
X99576064Y-122267032D01*
X99509032Y-122247349D01*
X99509028Y-122247348D01*
X99509027Y-122247348D01*
X99451129Y-122239023D01*
X99039849Y-122239023D01*
X98972810Y-122219338D01*
X98927055Y-122166534D01*
X98919263Y-122143919D01*
X98779043Y-121558769D01*
X98775629Y-121529873D01*
X98775629Y-116068523D01*
X98795314Y-116001484D01*
X98848118Y-115955729D01*
X98899629Y-115944523D01*
X101151629Y-115944523D01*
X101218668Y-115964208D01*
G37*
%TD.AperFunction*%
%TD*%
%TA.AperFunction,Conductor*%
%TO.N,GND*%
G36*
X121889955Y-133044848D02*
G01*
X121892368Y-133045023D01*
X121892369Y-133045023D01*
X122983890Y-133045023D01*
X122986303Y-133044848D01*
X122995271Y-133044523D01*
X123350070Y-133044523D01*
X123417109Y-133064208D01*
X123462864Y-133117012D01*
X123474059Y-133170071D01*
X123472295Y-133311262D01*
X123435574Y-136248852D01*
X123415053Y-136315640D01*
X123361682Y-136360731D01*
X123292404Y-136369810D01*
X123229216Y-136339993D01*
X123223903Y-136334983D01*
X120940058Y-134051138D01*
X120906573Y-133989815D01*
X120911557Y-133920123D01*
X120940058Y-133875776D01*
X120964825Y-133851008D01*
X120964827Y-133851006D01*
X121016202Y-133745916D01*
X121026129Y-133677783D01*
X121026129Y-133311263D01*
X121016202Y-133243130D01*
X121016202Y-133243129D01*
X121006353Y-133222982D01*
X120994595Y-133154109D01*
X121021939Y-133089812D01*
X121079703Y-133050505D01*
X121117754Y-133044523D01*
X121880987Y-133044523D01*
X121889955Y-133044848D01*
G37*
%TD.AperFunction*%
%TD*%
%TA.AperFunction,Conductor*%
%TO.N,/3V7*%
G36*
X119097105Y-134246163D02*
G01*
X117025629Y-131944523D01*
X119097105Y-129684731D01*
X119097105Y-134246163D01*
G37*
%TD.AperFunction*%
%TD*%
%TA.AperFunction,Conductor*%
%TO.N,Net-(Q1-D-Pad1)*%
G36*
X127350978Y-131053137D02*
G01*
X127380348Y-131061794D01*
X127410270Y-131068304D01*
X127415363Y-131072116D01*
X127417993Y-131072892D01*
X127438524Y-131089455D01*
X127513810Y-131164741D01*
X127547295Y-131226064D01*
X127550129Y-131252422D01*
X127550129Y-132879469D01*
X127530444Y-132946508D01*
X127477640Y-132992263D01*
X127426129Y-133003469D01*
X127282704Y-133003469D01*
X127264826Y-133002173D01*
X127208890Y-132994023D01*
X127208889Y-132994023D01*
X126117369Y-132994023D01*
X126117368Y-132994023D01*
X126061432Y-133002173D01*
X126043554Y-133003469D01*
X125007704Y-133003469D01*
X124989826Y-133002173D01*
X124933890Y-132994023D01*
X124933889Y-132994023D01*
X123842369Y-132994023D01*
X123842368Y-132994023D01*
X123786432Y-133002173D01*
X123768554Y-133003469D01*
X123693022Y-133003469D01*
X123625983Y-132983784D01*
X123599309Y-132960671D01*
X123572418Y-132929637D01*
X123572414Y-132929633D01*
X123554827Y-132911683D01*
X123554826Y-132911682D01*
X123554824Y-132911680D01*
X123554822Y-132911679D01*
X123554820Y-132911677D01*
X123475010Y-132867034D01*
X123475005Y-132867032D01*
X123407973Y-132847349D01*
X123407969Y-132847348D01*
X123407968Y-132847348D01*
X123350070Y-132839023D01*
X122995271Y-132839023D01*
X122988991Y-132839136D01*
X122987824Y-132839158D01*
X122986019Y-132839223D01*
X122979975Y-132839442D01*
X122975518Y-132839523D01*
X121900743Y-132839523D01*
X121896277Y-132839442D01*
X121891844Y-132839281D01*
X121888438Y-132839158D01*
X121886568Y-132839124D01*
X121880987Y-132839023D01*
X121117754Y-132839023D01*
X121117746Y-132839023D01*
X121085838Y-132841515D01*
X121047789Y-132847497D01*
X120985579Y-132872108D01*
X120964093Y-132880609D01*
X120964092Y-132880609D01*
X120964091Y-132880610D01*
X120906313Y-132919927D01*
X120906309Y-132919930D01*
X120886454Y-132935298D01*
X120875089Y-132951000D01*
X120819835Y-132993765D01*
X120756763Y-133000998D01*
X120708890Y-132994023D01*
X120708889Y-132994023D01*
X119617369Y-132994023D01*
X119617368Y-132994023D01*
X119561432Y-133002173D01*
X119543554Y-133003469D01*
X119426605Y-133003469D01*
X119359566Y-132983784D01*
X119313811Y-132930980D01*
X119302605Y-132879469D01*
X119302605Y-131168709D01*
X119322290Y-131101670D01*
X119375094Y-131055915D01*
X119426731Y-131044710D01*
X127350978Y-131053137D01*
G37*
%TD.AperFunction*%
%TD*%
%TA.AperFunction,Conductor*%
%TO.N,Net-(J1-Pin_1)*%
G36*
X127977723Y-132508597D02*
G01*
X128044501Y-132529139D01*
X128089575Y-132582526D01*
X128100129Y-132632586D01*
X128100129Y-132898792D01*
X128102982Y-132929222D01*
X128102982Y-132929224D01*
X128144777Y-133048664D01*
X128147836Y-133057405D01*
X128228479Y-133166673D01*
X128337747Y-133247316D01*
X128380474Y-133262267D01*
X128465928Y-133292169D01*
X128496359Y-133295023D01*
X128496363Y-133295023D01*
X129054453Y-133295023D01*
X129121492Y-133314708D01*
X129142134Y-133331342D01*
X129988810Y-134178018D01*
X130022295Y-134239341D01*
X130025129Y-134265699D01*
X130025129Y-134785847D01*
X130005444Y-134852886D01*
X129988810Y-134873528D01*
X129354634Y-135507704D01*
X129293311Y-135541189D01*
X129266953Y-135544023D01*
X126117368Y-135544023D01*
X126114955Y-135544198D01*
X126105987Y-135544523D01*
X125649629Y-135544523D01*
X125582590Y-135524838D01*
X125536835Y-135472034D01*
X125525629Y-135420523D01*
X125525629Y-133332969D01*
X125545314Y-133265930D01*
X125598118Y-133220175D01*
X125649629Y-133208969D01*
X126043551Y-133208969D01*
X126043554Y-133208969D01*
X126058412Y-133208431D01*
X126076290Y-133207135D01*
X126091061Y-133205526D01*
X126119037Y-133201449D01*
X126123367Y-133200819D01*
X126141246Y-133199523D01*
X127185013Y-133199523D01*
X127202890Y-133200818D01*
X127213884Y-133202420D01*
X127235196Y-133205526D01*
X127237838Y-133205813D01*
X127249968Y-133207135D01*
X127267846Y-133208431D01*
X127282704Y-133208969D01*
X127282707Y-133208969D01*
X127426120Y-133208969D01*
X127426129Y-133208969D01*
X127469813Y-133204272D01*
X127499004Y-133197921D01*
X127521303Y-133193071D01*
X127521319Y-133193067D01*
X127521324Y-133193066D01*
X127531502Y-133190579D01*
X127612214Y-133147569D01*
X127665018Y-133101814D01*
X127682972Y-133084223D01*
X127727619Y-133004406D01*
X127747304Y-132937367D01*
X127755629Y-132879469D01*
X127755629Y-132631348D01*
X127775314Y-132564309D01*
X127828118Y-132518554D01*
X127881217Y-132507358D01*
X127977723Y-132508597D01*
G37*
%TD.AperFunction*%
%TD*%
%TA.AperFunction,Conductor*%
%TO.N,Net-(Q1-G)*%
G36*
X124927890Y-133200818D02*
G01*
X124938884Y-133202420D01*
X124960196Y-133205526D01*
X124962838Y-133205813D01*
X124974968Y-133207135D01*
X124992846Y-133208431D01*
X125007704Y-133208969D01*
X125196129Y-133208969D01*
X125263168Y-133228654D01*
X125308923Y-133281458D01*
X125320129Y-133332969D01*
X125320129Y-135420523D01*
X125300444Y-135487562D01*
X125247640Y-135533317D01*
X125196129Y-135544523D01*
X124945271Y-135544523D01*
X124936303Y-135544198D01*
X124933890Y-135544023D01*
X124933889Y-135544023D01*
X123842369Y-135544023D01*
X123842368Y-135544023D01*
X123839955Y-135544198D01*
X123830987Y-135544523D01*
X123775453Y-135544523D01*
X123708414Y-135524838D01*
X123662659Y-135472034D01*
X123651463Y-135418976D01*
X123677578Y-133329889D01*
X123698099Y-133263102D01*
X123751470Y-133218011D01*
X123792600Y-133207765D01*
X123792965Y-133207738D01*
X123801290Y-133207135D01*
X123816061Y-133205526D01*
X123844037Y-133201449D01*
X123848367Y-133200819D01*
X123866246Y-133199523D01*
X124910013Y-133199523D01*
X124927890Y-133200818D01*
G37*
%TD.AperFunction*%
%TD*%
%TA.AperFunction,Conductor*%
%TO.N,GND*%
G36*
X116068962Y-142103702D02*
G01*
X116113309Y-142132203D01*
X118787810Y-144806704D01*
X118821295Y-144868027D01*
X118824129Y-144894385D01*
X118824129Y-149420523D01*
X118804444Y-149487562D01*
X118751640Y-149533317D01*
X118700129Y-149544523D01*
X117176991Y-149544523D01*
X117109952Y-149524838D01*
X117089310Y-149508204D01*
X115761948Y-148180842D01*
X115728463Y-148119519D01*
X115725629Y-148093161D01*
X115725629Y-146044523D01*
X115725627Y-146044520D01*
X114889042Y-145060302D01*
X114831159Y-144992204D01*
X115806105Y-144992204D01*
X115806105Y-144992209D01*
X115821665Y-145070437D01*
X115821665Y-145070438D01*
X115854795Y-145120019D01*
X115854798Y-145120023D01*
X116413046Y-145678271D01*
X116413050Y-145678274D01*
X116413052Y-145678276D01*
X116462632Y-145711404D01*
X116540861Y-145726965D01*
X116540863Y-145726965D01*
X116540865Y-145726965D01*
X116593017Y-145716591D01*
X116619094Y-145711404D01*
X116668674Y-145678276D01*
X117545130Y-144801820D01*
X117578258Y-144752240D01*
X117593819Y-144674009D01*
X117593819Y-144674006D01*
X117578258Y-144595778D01*
X117578258Y-144595777D01*
X117561636Y-144570902D01*
X117545130Y-144546198D01*
X117545128Y-144546196D01*
X117545125Y-144546192D01*
X116986877Y-143987944D01*
X116986873Y-143987941D01*
X116937291Y-143954811D01*
X116859063Y-143939251D01*
X116859059Y-143939251D01*
X116780830Y-143954811D01*
X116780829Y-143954811D01*
X116731248Y-143987941D01*
X116731244Y-143987944D01*
X115854798Y-144864390D01*
X115854795Y-144864394D01*
X115821665Y-144913975D01*
X115821665Y-144913976D01*
X115806105Y-144992204D01*
X114831159Y-144992204D01*
X114099689Y-144131652D01*
X114071269Y-144067824D01*
X114081869Y-143998763D01*
X114106485Y-143963666D01*
X114314786Y-143755365D01*
X114376105Y-143721883D01*
X114445796Y-143726867D01*
X114490144Y-143755368D01*
X114616995Y-143882219D01*
X114616999Y-143882222D01*
X114617001Y-143882224D01*
X114666581Y-143915352D01*
X114744810Y-143930913D01*
X114744812Y-143930913D01*
X114744814Y-143930913D01*
X114796966Y-143920539D01*
X114823043Y-143915352D01*
X114872623Y-143882224D01*
X115749079Y-143005768D01*
X115782207Y-142956188D01*
X115797768Y-142877957D01*
X115797768Y-142877954D01*
X115782207Y-142799726D01*
X115782207Y-142799725D01*
X115765585Y-142774850D01*
X115749079Y-142750146D01*
X115749077Y-142750144D01*
X115749074Y-142750140D01*
X115622223Y-142623289D01*
X115588738Y-142561966D01*
X115593722Y-142492274D01*
X115622219Y-142447932D01*
X115937951Y-142132200D01*
X115999270Y-142098718D01*
X116068962Y-142103702D01*
G37*
%TD.AperFunction*%
%TD*%
%TA.AperFunction,Conductor*%
%TO.N,GND*%
G36*
X127172893Y-146544996D02*
G01*
X127174517Y-146544565D01*
X127206305Y-146554807D01*
X127238321Y-146564208D01*
X127239420Y-146565476D01*
X127241020Y-146565992D01*
X127262228Y-146591799D01*
X127284076Y-146617012D01*
X127284481Y-146618876D01*
X127285382Y-146619972D01*
X127294438Y-146654084D01*
X127295282Y-146661282D01*
X127295282Y-146703701D01*
X127306915Y-146762184D01*
X127307153Y-146762540D01*
X127307971Y-146769514D01*
X127306433Y-146808143D01*
X127295282Y-146864205D01*
X127295282Y-147203703D01*
X127295879Y-147209766D01*
X127293308Y-147210019D01*
X127288045Y-147268433D01*
X127245148Y-147323584D01*
X127179244Y-147346788D01*
X127111257Y-147330679D01*
X127110683Y-147330349D01*
X127019339Y-147277611D01*
X127019336Y-147277610D01*
X126892042Y-147243502D01*
X126760258Y-147243502D01*
X126632962Y-147277610D01*
X126518836Y-147343502D01*
X126518833Y-147343504D01*
X126425652Y-147436685D01*
X126425650Y-147436688D01*
X126359758Y-147550814D01*
X126325650Y-147678110D01*
X126325650Y-147720544D01*
X126305965Y-147787583D01*
X126253161Y-147833338D01*
X126201650Y-147844544D01*
X126159216Y-147844544D01*
X126031920Y-147878652D01*
X125917794Y-147944544D01*
X125917791Y-147944546D01*
X125824610Y-148037727D01*
X125824608Y-148037730D01*
X125758716Y-148151856D01*
X125724608Y-148279152D01*
X125724608Y-148410935D01*
X125758716Y-148538231D01*
X125791662Y-148595294D01*
X125824608Y-148652358D01*
X125917794Y-148745544D01*
X126031922Y-148811436D01*
X126159216Y-148845544D01*
X126219482Y-148845544D01*
X126270487Y-148859210D01*
X126271215Y-148857455D01*
X126278724Y-148860564D01*
X126278729Y-148860567D01*
X126367873Y-148884453D01*
X126367874Y-148884453D01*
X126460161Y-148884453D01*
X127171282Y-148884453D01*
X127238321Y-148904138D01*
X127284076Y-148956942D01*
X127295282Y-149008453D01*
X127295282Y-149203700D01*
X127306433Y-149259763D01*
X127308613Y-149291035D01*
X127307853Y-149304317D01*
X127306915Y-149305722D01*
X127295282Y-149364205D01*
X127295282Y-149524073D01*
X127295080Y-149527605D01*
X127284479Y-149557311D01*
X127275597Y-149587562D01*
X127272829Y-149589960D01*
X127271598Y-149593411D01*
X127246616Y-149612673D01*
X127222793Y-149633317D01*
X127218686Y-149634210D01*
X127216268Y-149636075D01*
X127206102Y-149636947D01*
X127171282Y-149644523D01*
X125855129Y-149644523D01*
X125788090Y-149624838D01*
X125742335Y-149572034D01*
X125731129Y-149520523D01*
X125731129Y-149400692D01*
X125721202Y-149332561D01*
X125721202Y-149332560D01*
X125669827Y-149227470D01*
X125669825Y-149227468D01*
X125669825Y-149227467D01*
X125587114Y-149144756D01*
X125482020Y-149093379D01*
X125413890Y-149083453D01*
X125413889Y-149083453D01*
X125049629Y-149083453D01*
X124982590Y-149063768D01*
X124936835Y-149010964D01*
X124925629Y-148959453D01*
X124925629Y-147004120D01*
X124945314Y-146937081D01*
X124972165Y-146907294D01*
X125391664Y-146571695D01*
X125456310Y-146545187D01*
X125469126Y-146544523D01*
X127171282Y-146544523D01*
X127172893Y-146544996D01*
G37*
%TD.AperFunction*%
%TD*%
%TA.AperFunction,Conductor*%
%TO.N,GND*%
G36*
X107944110Y-145981551D02*
G01*
X107992630Y-146011524D01*
X108388810Y-146407704D01*
X108422295Y-146469027D01*
X108425129Y-146495385D01*
X108425129Y-146787064D01*
X108405444Y-146854103D01*
X108387567Y-146875971D01*
X105061725Y-150109430D01*
X104999936Y-150142048D01*
X104975287Y-150144523D01*
X85080658Y-150144523D01*
X85013619Y-150124838D01*
X84988708Y-150103716D01*
X84528467Y-149595029D01*
X83125629Y-148044523D01*
X81775483Y-146654667D01*
X81771682Y-146647460D01*
X81765160Y-146642577D01*
X81755622Y-146617005D01*
X81742892Y-146592866D01*
X81743590Y-146584748D01*
X81740743Y-146577113D01*
X81746543Y-146550446D01*
X81748885Y-146523254D01*
X81754245Y-146515045D01*
X81755595Y-146508840D01*
X81776746Y-146480586D01*
X81921622Y-146335710D01*
X81982945Y-146302225D01*
X82052637Y-146307209D01*
X82096984Y-146335710D01*
X85311267Y-149549993D01*
X85389255Y-149595019D01*
X85389258Y-149595022D01*
X85389259Y-149595022D01*
X85391187Y-149596135D01*
X85391188Y-149596135D01*
X85391191Y-149596137D01*
X85480335Y-149620023D01*
X85480336Y-149620023D01*
X85480337Y-149620023D01*
X104346771Y-149620023D01*
X104346773Y-149620023D01*
X104435917Y-149596137D01*
X104437848Y-149595022D01*
X104515841Y-149549993D01*
X106158941Y-147906891D01*
X106220264Y-147873407D01*
X106246622Y-147870573D01*
X106341519Y-147870573D01*
X106341521Y-147870573D01*
X106468815Y-147836465D01*
X106582943Y-147770573D01*
X106676129Y-147677387D01*
X106742021Y-147563259D01*
X106776129Y-147435965D01*
X106776129Y-147304181D01*
X106755359Y-147226665D01*
X106757022Y-147156816D01*
X106796185Y-147098954D01*
X106860413Y-147071450D01*
X106875134Y-147070573D01*
X106997263Y-147070573D01*
X106997265Y-147070573D01*
X107086409Y-147046687D01*
X107091997Y-147043460D01*
X107092001Y-147043459D01*
X107166326Y-147000547D01*
X107166325Y-147000547D01*
X107166333Y-147000543D01*
X107285013Y-146881863D01*
X107346336Y-146848378D01*
X107372694Y-146845544D01*
X107392040Y-146845544D01*
X107392042Y-146845544D01*
X107519336Y-146811436D01*
X107633464Y-146745544D01*
X107726650Y-146652358D01*
X107792542Y-146538230D01*
X107826650Y-146410936D01*
X107826650Y-146279152D01*
X107792542Y-146151858D01*
X107792538Y-146151851D01*
X107790387Y-146146656D01*
X107782920Y-146077186D01*
X107814195Y-146014708D01*
X107874285Y-145979056D01*
X107944110Y-145981551D01*
G37*
%TD.AperFunction*%
%TA.AperFunction,Conductor*%
G36*
X83667840Y-144691997D02*
G01*
X83709574Y-144717958D01*
X85752902Y-146644523D01*
X87025629Y-147844523D01*
X96025629Y-147844523D01*
X103025629Y-147844523D01*
X106538242Y-144722199D01*
X106601426Y-144692374D01*
X106670704Y-144701442D01*
X106708304Y-144727198D01*
X107659669Y-145678563D01*
X107693154Y-145739886D01*
X107688170Y-145809578D01*
X107646298Y-145865511D01*
X107580834Y-145889928D01*
X107524542Y-145880808D01*
X107519338Y-145878653D01*
X107519337Y-145878652D01*
X107519336Y-145878652D01*
X107392042Y-145844544D01*
X107260258Y-145844544D01*
X107132962Y-145878652D01*
X107018836Y-145944544D01*
X107018833Y-145944546D01*
X106925652Y-146037727D01*
X106925650Y-146037730D01*
X106859758Y-146151856D01*
X106855166Y-146168994D01*
X106826047Y-146277668D01*
X106789684Y-146337326D01*
X106726838Y-146367856D01*
X106706274Y-146369573D01*
X105803935Y-146369573D01*
X105714791Y-146393459D01*
X105714788Y-146393460D01*
X105634870Y-146439600D01*
X105634865Y-146439604D01*
X103692766Y-148381704D01*
X103631443Y-148415189D01*
X103605085Y-148418023D01*
X85999841Y-148418023D01*
X85932802Y-148398338D01*
X85912160Y-148381704D01*
X82981574Y-145451118D01*
X82948089Y-145389795D01*
X82953073Y-145320103D01*
X82981571Y-145275758D01*
X83179740Y-145077591D01*
X83212868Y-145028011D01*
X83228429Y-144949780D01*
X83224094Y-144927986D01*
X83230321Y-144858396D01*
X83273183Y-144803218D01*
X83339073Y-144779973D01*
X83369903Y-144782178D01*
X83391696Y-144786513D01*
X83391697Y-144786513D01*
X83391699Y-144786513D01*
X83456002Y-144773722D01*
X83469928Y-144770952D01*
X83519508Y-144737824D01*
X83536829Y-144720502D01*
X83598148Y-144687016D01*
X83667840Y-144691997D01*
G37*
%TD.AperFunction*%
%TA.AperFunction,Conductor*%
G36*
X82207719Y-143226613D02*
G01*
X82221326Y-143277394D01*
X82222223Y-143278946D01*
X82222232Y-143278982D01*
X82222241Y-143278978D01*
X82260886Y-143345914D01*
X82260888Y-143345917D01*
X82368859Y-143453888D01*
X82402344Y-143515211D01*
X82401449Y-143571751D01*
X82394756Y-143598419D01*
X82387430Y-143605746D01*
X82354302Y-143655326D01*
X82338741Y-143733557D01*
X82348513Y-143782687D01*
X82341729Y-143809723D01*
X82337577Y-143816784D01*
X82336847Y-143824943D01*
X82320128Y-143846463D01*
X82306318Y-143869955D01*
X82299008Y-143873650D01*
X82293983Y-143880120D01*
X82268282Y-143889186D01*
X82243965Y-143901481D01*
X82235817Y-143900638D01*
X82228093Y-143903363D01*
X82197269Y-143901159D01*
X82175473Y-143896824D01*
X82175471Y-143896824D01*
X82097242Y-143912384D01*
X82097241Y-143912384D01*
X82047660Y-143945514D01*
X82047656Y-143945517D01*
X81489408Y-144503765D01*
X81489405Y-144503769D01*
X81456275Y-144553350D01*
X81456275Y-144553351D01*
X81440715Y-144631579D01*
X81440715Y-144631582D01*
X81445050Y-144653378D01*
X81438821Y-144722970D01*
X81395957Y-144778146D01*
X81330067Y-144801389D01*
X81299242Y-144799185D01*
X81293902Y-144798123D01*
X81277448Y-144794850D01*
X81277447Y-144794850D01*
X81277446Y-144794850D01*
X81199217Y-144810410D01*
X81199216Y-144810410D01*
X81149635Y-144843540D01*
X81149631Y-144843543D01*
X80663616Y-145329558D01*
X80602293Y-145363043D01*
X80532601Y-145358059D01*
X80486992Y-145328278D01*
X80061186Y-144889949D01*
X80028594Y-144828148D01*
X80026129Y-144803548D01*
X80026129Y-144540253D01*
X80023275Y-144509823D01*
X80023275Y-144509821D01*
X79980849Y-144388577D01*
X79977287Y-144318798D01*
X80010206Y-144259945D01*
X81625629Y-142644523D01*
X82207719Y-143226613D01*
G37*
%TD.AperFunction*%
%TD*%
%TA.AperFunction,Conductor*%
%TO.N,GND*%
G36*
X101796124Y-168514708D02*
G01*
X101816766Y-168531342D01*
X101989310Y-168703886D01*
X102022795Y-168765209D01*
X102025629Y-168791567D01*
X102025629Y-172344523D01*
X101425629Y-172244523D01*
X101425629Y-174944523D01*
X101994262Y-175134067D01*
X101952666Y-175144523D01*
X96699341Y-175144523D01*
X96632302Y-175124838D01*
X96586547Y-175072034D01*
X96575341Y-175020523D01*
X96575341Y-172794247D01*
X96575340Y-172794245D01*
X96563709Y-172735768D01*
X96563708Y-172735767D01*
X96519392Y-172669444D01*
X96480737Y-172643615D01*
X96435932Y-172590002D01*
X96425629Y-172540514D01*
X96425629Y-172444523D01*
X96061948Y-172080842D01*
X96028463Y-172019519D01*
X96025629Y-171993161D01*
X96025629Y-169478631D01*
X96675129Y-169478631D01*
X96675129Y-169610414D01*
X96709237Y-169737710D01*
X96732374Y-169777783D01*
X96775129Y-169851837D01*
X96868315Y-169945023D01*
X96868317Y-169945024D01*
X96874766Y-169949973D01*
X96872793Y-169952542D01*
X96910545Y-169992118D01*
X96924341Y-170048961D01*
X96924341Y-172640732D01*
X96904656Y-172707771D01*
X96903444Y-172709622D01*
X96885973Y-172735768D01*
X96885972Y-172735771D01*
X96874341Y-172794245D01*
X96874341Y-174133750D01*
X96885972Y-174192227D01*
X96885973Y-174192228D01*
X96930288Y-174258550D01*
X96996610Y-174302865D01*
X96996611Y-174302866D01*
X97055088Y-174314497D01*
X97055091Y-174314498D01*
X97055093Y-174314498D01*
X97394591Y-174314498D01*
X97450649Y-174303347D01*
X97499033Y-174303347D01*
X97555090Y-174314498D01*
X97555093Y-174314498D01*
X97894591Y-174314498D01*
X97894592Y-174314497D01*
X97909409Y-174311550D01*
X97953070Y-174302866D01*
X97953070Y-174302865D01*
X97953072Y-174302865D01*
X98019393Y-174258550D01*
X98063708Y-174192229D01*
X98063708Y-174192227D01*
X98063709Y-174192227D01*
X98075340Y-174133750D01*
X98075341Y-174133748D01*
X98075341Y-172794247D01*
X98075340Y-172794245D01*
X98063709Y-172735771D01*
X98063708Y-172735768D01*
X98063708Y-172735767D01*
X98046237Y-172709620D01*
X98043200Y-172699921D01*
X98036547Y-172692243D01*
X98026872Y-172647773D01*
X98025361Y-172642945D01*
X98025618Y-172642006D01*
X98025341Y-172640732D01*
X98025341Y-170976411D01*
X98045026Y-170909372D01*
X98097830Y-170863617D01*
X98166988Y-170853673D01*
X98230544Y-170882698D01*
X98237022Y-170888730D01*
X98293315Y-170945023D01*
X98362343Y-170984876D01*
X98410556Y-171035440D01*
X98424341Y-171092261D01*
X98424341Y-172640732D01*
X98421790Y-172649417D01*
X98423079Y-172658379D01*
X98412100Y-172682419D01*
X98404656Y-172707771D01*
X98403444Y-172709622D01*
X98385973Y-172735768D01*
X98385972Y-172735771D01*
X98374341Y-172794245D01*
X98374341Y-174133750D01*
X98385972Y-174192227D01*
X98385973Y-174192228D01*
X98430288Y-174258550D01*
X98496610Y-174302865D01*
X98496611Y-174302866D01*
X98555088Y-174314497D01*
X98555091Y-174314498D01*
X98555093Y-174314498D01*
X98894591Y-174314498D01*
X98950649Y-174303347D01*
X98999033Y-174303347D01*
X99055090Y-174314498D01*
X99055093Y-174314498D01*
X99394591Y-174314498D01*
X99394592Y-174314497D01*
X99409409Y-174311550D01*
X99453070Y-174302866D01*
X99453070Y-174302865D01*
X99453072Y-174302865D01*
X99519393Y-174258550D01*
X99563708Y-174192229D01*
X99563708Y-174192227D01*
X99563709Y-174192227D01*
X99575340Y-174133750D01*
X99575341Y-174133748D01*
X99575341Y-172794247D01*
X99575340Y-172794245D01*
X99563709Y-172735771D01*
X99563708Y-172735768D01*
X99563708Y-172735767D01*
X99546237Y-172709620D01*
X99543200Y-172699921D01*
X99536547Y-172692243D01*
X99526872Y-172647773D01*
X99525361Y-172642945D01*
X99525618Y-172642006D01*
X99525341Y-172640732D01*
X99525341Y-171976411D01*
X99545026Y-171909372D01*
X99597830Y-171863617D01*
X99666988Y-171853673D01*
X99730544Y-171882698D01*
X99737022Y-171888730D01*
X99793315Y-171945023D01*
X99862343Y-171984876D01*
X99910556Y-172035440D01*
X99924341Y-172092261D01*
X99924341Y-172640732D01*
X99921790Y-172649417D01*
X99923079Y-172658379D01*
X99912100Y-172682419D01*
X99904656Y-172707771D01*
X99903444Y-172709622D01*
X99885973Y-172735768D01*
X99885972Y-172735771D01*
X99874341Y-172794245D01*
X99874341Y-174133750D01*
X99885972Y-174192227D01*
X99885973Y-174192228D01*
X99930288Y-174258550D01*
X99996610Y-174302865D01*
X99996611Y-174302866D01*
X100055088Y-174314497D01*
X100055091Y-174314498D01*
X100055093Y-174314498D01*
X100394591Y-174314498D01*
X100450649Y-174303347D01*
X100499033Y-174303347D01*
X100555090Y-174314498D01*
X100555093Y-174314498D01*
X100894591Y-174314498D01*
X100894592Y-174314497D01*
X100909409Y-174311550D01*
X100953070Y-174302866D01*
X100953070Y-174302865D01*
X100953072Y-174302865D01*
X101019393Y-174258550D01*
X101063708Y-174192229D01*
X101063708Y-174192227D01*
X101063709Y-174192227D01*
X101075340Y-174133750D01*
X101075341Y-174133748D01*
X101075341Y-172794247D01*
X101075340Y-172794245D01*
X101063709Y-172735771D01*
X101063708Y-172735768D01*
X101063708Y-172735767D01*
X101046237Y-172709620D01*
X101025361Y-172642945D01*
X101025341Y-172640732D01*
X101025341Y-172137808D01*
X101045026Y-172070769D01*
X101097830Y-172025014D01*
X101117244Y-172018034D01*
X101143815Y-172010915D01*
X101257943Y-171945023D01*
X101351129Y-171851837D01*
X101417021Y-171737709D01*
X101451129Y-171610415D01*
X101451129Y-171478631D01*
X101417021Y-171351337D01*
X101351129Y-171237209D01*
X101257943Y-171144023D01*
X101168289Y-171092261D01*
X101143816Y-171078131D01*
X101058701Y-171055325D01*
X101016521Y-171044023D01*
X100884737Y-171044023D01*
X100757441Y-171078131D01*
X100643315Y-171144023D01*
X100643312Y-171144025D01*
X100613310Y-171174028D01*
X100551987Y-171207513D01*
X100482295Y-171202529D01*
X100437948Y-171174028D01*
X100407945Y-171144025D01*
X100407943Y-171144023D01*
X100318289Y-171092261D01*
X100293816Y-171078131D01*
X100208701Y-171055325D01*
X100166521Y-171044023D01*
X100034737Y-171044023D01*
X100034735Y-171044023D01*
X99968396Y-171061798D01*
X99898546Y-171060135D01*
X99840684Y-171020971D01*
X99813181Y-170956742D01*
X99824768Y-170887840D01*
X99848623Y-170854342D01*
X99851129Y-170851837D01*
X99917021Y-170737709D01*
X99951129Y-170610415D01*
X99951129Y-170478631D01*
X99917021Y-170351337D01*
X99851129Y-170237209D01*
X99757943Y-170144023D01*
X99655879Y-170085096D01*
X99643816Y-170078131D01*
X99579563Y-170060915D01*
X99516521Y-170044023D01*
X99384737Y-170044023D01*
X99257441Y-170078131D01*
X99143315Y-170144023D01*
X99143312Y-170144025D01*
X99113310Y-170174028D01*
X99051987Y-170207513D01*
X98982295Y-170202529D01*
X98937948Y-170174028D01*
X98907945Y-170144025D01*
X98907943Y-170144023D01*
X98805879Y-170085096D01*
X98793816Y-170078131D01*
X98729563Y-170060915D01*
X98666521Y-170044023D01*
X98534737Y-170044023D01*
X98529944Y-170044023D01*
X98462905Y-170024338D01*
X98417150Y-169971534D01*
X98407206Y-169902376D01*
X98422557Y-169858022D01*
X98426126Y-169851839D01*
X98426129Y-169851837D01*
X98492021Y-169737709D01*
X98526129Y-169610415D01*
X98526129Y-169478631D01*
X98492021Y-169351337D01*
X98426129Y-169237209D01*
X98332943Y-169144023D01*
X98246341Y-169094023D01*
X98218816Y-169078131D01*
X98155168Y-169061077D01*
X98091521Y-169044023D01*
X97959737Y-169044023D01*
X97832441Y-169078131D01*
X97718315Y-169144023D01*
X97718312Y-169144025D01*
X97688310Y-169174028D01*
X97626987Y-169207513D01*
X97557295Y-169202529D01*
X97512948Y-169174028D01*
X97482945Y-169144025D01*
X97482943Y-169144023D01*
X97396341Y-169094023D01*
X97368816Y-169078131D01*
X97305168Y-169061077D01*
X97241521Y-169044023D01*
X97109737Y-169044023D01*
X96982441Y-169078131D01*
X96868315Y-169144023D01*
X96868312Y-169144025D01*
X96775131Y-169237206D01*
X96775129Y-169237209D01*
X96709237Y-169351335D01*
X96675129Y-169478631D01*
X96025629Y-169478631D01*
X96025629Y-168619023D01*
X96045314Y-168551984D01*
X96098118Y-168506229D01*
X96149629Y-168495023D01*
X101729085Y-168495023D01*
X101796124Y-168514708D01*
G37*
%TD.AperFunction*%
%TA.AperFunction,Conductor*%
G36*
X99366756Y-161631558D02*
G01*
X99380089Y-161629642D01*
X99400232Y-161638841D01*
X99421869Y-161643548D01*
X99439594Y-161656816D01*
X99443645Y-161658667D01*
X99450123Y-161664699D01*
X99510417Y-161724993D01*
X99579415Y-161764829D01*
X99590341Y-161771137D01*
X99590346Y-161771138D01*
X99597856Y-161774250D01*
X99596558Y-161777383D01*
X99642790Y-161805492D01*
X99673389Y-161868305D01*
X99675129Y-161889004D01*
X99675129Y-164366360D01*
X99684804Y-164402470D01*
X99684805Y-164402470D01*
X99685428Y-164404795D01*
X99683765Y-164474644D01*
X99664839Y-164509432D01*
X99665433Y-164509829D01*
X99628920Y-164564472D01*
X99628920Y-164564473D01*
X99613360Y-164642701D01*
X99613360Y-164642706D01*
X99628920Y-164720934D01*
X99628920Y-164720935D01*
X99662050Y-164770516D01*
X99662053Y-164770520D01*
X100538499Y-165646966D01*
X100538503Y-165646969D01*
X100538505Y-165646971D01*
X100579626Y-165674447D01*
X100588085Y-165680099D01*
X100666314Y-165695660D01*
X100666316Y-165695660D01*
X100666318Y-165695660D01*
X100718470Y-165685286D01*
X100744547Y-165680099D01*
X100794127Y-165646971D01*
X101352385Y-165088713D01*
X101385513Y-165039133D01*
X101401074Y-164960902D01*
X101396739Y-164939108D01*
X101402966Y-164869516D01*
X101445829Y-164814339D01*
X101511719Y-164791094D01*
X101542546Y-164793298D01*
X101551334Y-164795046D01*
X101564340Y-164797634D01*
X101564341Y-164797634D01*
X101564343Y-164797634D01*
X101616495Y-164787260D01*
X101642572Y-164782073D01*
X101692152Y-164748945D01*
X101813949Y-164627147D01*
X101875270Y-164593664D01*
X101944962Y-164598648D01*
X102000896Y-164640519D01*
X102025313Y-164705983D01*
X102025629Y-164714830D01*
X102025629Y-167670023D01*
X102005944Y-167737062D01*
X101953140Y-167782817D01*
X101901629Y-167794023D01*
X96149629Y-167794023D01*
X96082590Y-167774338D01*
X96036835Y-167721534D01*
X96025629Y-167670023D01*
X96025629Y-163773981D01*
X96045314Y-163706942D01*
X96098118Y-163661187D01*
X96167276Y-163651243D01*
X96230832Y-163680268D01*
X96237296Y-163686286D01*
X96324991Y-163773981D01*
X96380716Y-163829706D01*
X96430297Y-163862835D01*
X96508526Y-163878396D01*
X96508527Y-163878396D01*
X96508527Y-163878395D01*
X96508528Y-163878396D01*
X96530320Y-163874061D01*
X96599911Y-163880288D01*
X96655089Y-163923150D01*
X96678334Y-163989039D01*
X96676130Y-164019867D01*
X96671795Y-164041662D01*
X96671795Y-164041665D01*
X96687355Y-164119893D01*
X96687355Y-164119894D01*
X96720485Y-164169475D01*
X96720488Y-164169479D01*
X97278736Y-164727727D01*
X97278740Y-164727730D01*
X97278742Y-164727732D01*
X97310490Y-164748945D01*
X97328322Y-164760860D01*
X97406551Y-164776421D01*
X97406553Y-164776421D01*
X97406554Y-164776421D01*
X97419559Y-164773833D01*
X97428346Y-164772086D01*
X97497937Y-164778313D01*
X97553115Y-164821175D01*
X97576360Y-164887065D01*
X97574156Y-164917891D01*
X97569821Y-164939687D01*
X97569821Y-164939691D01*
X97585381Y-165017919D01*
X97585381Y-165017920D01*
X97618511Y-165067501D01*
X97618514Y-165067505D01*
X98176762Y-165625753D01*
X98176766Y-165625756D01*
X98176768Y-165625758D01*
X98208513Y-165646969D01*
X98226348Y-165658886D01*
X98304577Y-165674447D01*
X98304579Y-165674447D01*
X98304581Y-165674447D01*
X98356733Y-165664073D01*
X98382810Y-165658886D01*
X98432390Y-165625758D01*
X99308846Y-164749302D01*
X99341974Y-164699722D01*
X99357535Y-164621491D01*
X99357535Y-164621488D01*
X99341974Y-164543260D01*
X99341974Y-164543259D01*
X99319371Y-164509432D01*
X99308846Y-164493680D01*
X99308844Y-164493678D01*
X99308841Y-164493674D01*
X99274761Y-164459594D01*
X99241276Y-164398271D01*
X99238442Y-164371913D01*
X99238442Y-161752380D01*
X99244680Y-161731134D01*
X99246260Y-161709046D01*
X99254332Y-161698262D01*
X99258127Y-161685341D01*
X99274860Y-161670841D01*
X99288132Y-161653113D01*
X99300752Y-161648405D01*
X99310931Y-161639586D01*
X99332848Y-161636434D01*
X99353596Y-161628696D01*
X99366756Y-161631558D01*
G37*
%TD.AperFunction*%
%TA.AperFunction,Conductor*%
G36*
X96230832Y-160345853D02*
G01*
X96237310Y-160351885D01*
X97504510Y-161619085D01*
X97537995Y-161680408D01*
X97540829Y-161706766D01*
X97540829Y-162426300D01*
X97521144Y-162493339D01*
X97468340Y-162539094D01*
X97399182Y-162549038D01*
X97335626Y-162520013D01*
X97329148Y-162513981D01*
X96954542Y-162139375D01*
X96954538Y-162139372D01*
X96954002Y-162139014D01*
X96904957Y-162106243D01*
X96904956Y-162106242D01*
X96826728Y-162090682D01*
X96826724Y-162090682D01*
X96804928Y-162095017D01*
X96735337Y-162088788D01*
X96680161Y-162045923D01*
X96656918Y-161980033D01*
X96659123Y-161949207D01*
X96659239Y-161948627D01*
X96663458Y-161927414D01*
X96663458Y-161927411D01*
X96647897Y-161849183D01*
X96647897Y-161849182D01*
X96628943Y-161820816D01*
X96614769Y-161799603D01*
X96614767Y-161799601D01*
X96614764Y-161799597D01*
X96061948Y-161246781D01*
X96028463Y-161185458D01*
X96025629Y-161159100D01*
X96025629Y-160439566D01*
X96045314Y-160372527D01*
X96098118Y-160326772D01*
X96167276Y-160316828D01*
X96230832Y-160345853D01*
G37*
%TD.AperFunction*%
%TA.AperFunction,Conductor*%
G36*
X102025629Y-160137017D02*
G01*
X102005944Y-160204056D01*
X101953140Y-160249811D01*
X101883982Y-160259755D01*
X101820426Y-160230730D01*
X101813948Y-160224698D01*
X96061948Y-154472698D01*
X96028463Y-154411375D01*
X96025629Y-154385017D01*
X96025629Y-150144523D01*
X102025629Y-150144523D01*
X102025629Y-160137017D01*
G37*
%TD.AperFunction*%
%TA.AperFunction,Conductor*%
G36*
X102866353Y-138898338D02*
G01*
X102985476Y-139007670D01*
X103021555Y-139067503D01*
X103025629Y-139099025D01*
X103025629Y-141044523D01*
X103937948Y-141956842D01*
X103971433Y-142018165D01*
X103966449Y-142087857D01*
X103937948Y-142132204D01*
X102025629Y-144044522D01*
X102025629Y-144044523D01*
X102025629Y-147844523D01*
X96025629Y-147844523D01*
X96025629Y-147044523D01*
X88635437Y-139752867D01*
X88601542Y-139691771D01*
X88600912Y-139640408D01*
X88616583Y-139561626D01*
X88616583Y-139561623D01*
X88615246Y-139554905D01*
X88725629Y-139444523D01*
X89660020Y-138496781D01*
X89669452Y-138498657D01*
X89677874Y-138500333D01*
X89677876Y-138500333D01*
X89677878Y-138500333D01*
X89730030Y-138489959D01*
X89756107Y-138484772D01*
X89805687Y-138451644D01*
X89805689Y-138451641D01*
X89810391Y-138447783D01*
X89811191Y-138448757D01*
X89866739Y-138418417D01*
X89936431Y-138423393D01*
X89940556Y-138425015D01*
X89941832Y-138425543D01*
X89941833Y-138425543D01*
X89941836Y-138425545D01*
X90018262Y-138446023D01*
X90097386Y-138446023D01*
X91202266Y-138446023D01*
X91269305Y-138465708D01*
X91289947Y-138482342D01*
X91318315Y-138510710D01*
X91432443Y-138576602D01*
X91559737Y-138610710D01*
X91559739Y-138610710D01*
X91691519Y-138610710D01*
X91691521Y-138610710D01*
X91818815Y-138576602D01*
X91932943Y-138510710D01*
X92026129Y-138417524D01*
X92092021Y-138303396D01*
X92126129Y-138176102D01*
X92126129Y-138044318D01*
X92092021Y-137917024D01*
X92026129Y-137802896D01*
X91932943Y-137709710D01*
X91875879Y-137676764D01*
X91818816Y-137643818D01*
X91727524Y-137619357D01*
X91691521Y-137609710D01*
X91650129Y-137609710D01*
X91583090Y-137590025D01*
X91537335Y-137537221D01*
X91526129Y-137485710D01*
X91526129Y-137478633D01*
X91526129Y-137478631D01*
X91492021Y-137351337D01*
X91426129Y-137237209D01*
X91332943Y-137144023D01*
X91332940Y-137144021D01*
X91332936Y-137144018D01*
X91324703Y-137139265D01*
X91276488Y-137088698D01*
X91263266Y-137020091D01*
X91265021Y-137008020D01*
X91269800Y-136983642D01*
X91295099Y-136945781D01*
X91310660Y-136867550D01*
X91303213Y-136830115D01*
X91432904Y-136698571D01*
X91452134Y-136699947D01*
X91473927Y-136704282D01*
X91473928Y-136704282D01*
X91473930Y-136704282D01*
X91552156Y-136688722D01*
X91552157Y-136688721D01*
X91552159Y-136688721D01*
X91552159Y-136688720D01*
X91553361Y-136688223D01*
X91556200Y-136687917D01*
X91564137Y-136686339D01*
X91564278Y-136687049D01*
X91622830Y-136680753D01*
X91685310Y-136712026D01*
X91720591Y-136770690D01*
X91740126Y-136843599D01*
X91773072Y-136900662D01*
X91806018Y-136957726D01*
X91899204Y-137050912D01*
X92013332Y-137116804D01*
X92140626Y-137150912D01*
X92140628Y-137150912D01*
X92272408Y-137150912D01*
X92272410Y-137150912D01*
X92399704Y-137116804D01*
X92513832Y-137050912D01*
X92543837Y-137020907D01*
X92605160Y-136987422D01*
X92674852Y-136992406D01*
X92719199Y-137020907D01*
X92749204Y-137050912D01*
X92863332Y-137116804D01*
X92990626Y-137150912D01*
X92990628Y-137150912D01*
X93122408Y-137150912D01*
X93122410Y-137150912D01*
X93249704Y-137116804D01*
X93363832Y-137050912D01*
X93457018Y-136957726D01*
X93522910Y-136843598D01*
X93557018Y-136716304D01*
X93557018Y-136584520D01*
X93522910Y-136457226D01*
X93457018Y-136343098D01*
X93363832Y-136249912D01*
X93297939Y-136211868D01*
X93249703Y-136184019D01*
X93249701Y-136184018D01*
X93244310Y-136182574D01*
X93234063Y-136176327D01*
X93222229Y-136174338D01*
X93204783Y-136158479D01*
X93184651Y-136146207D01*
X93178115Y-136134237D01*
X93170528Y-136127340D01*
X93156634Y-136094893D01*
X93154321Y-136086262D01*
X93144842Y-136050886D01*
X93144842Y-136050885D01*
X93136541Y-136019903D01*
X93096979Y-135951380D01*
X92789146Y-135643547D01*
X92755661Y-135582224D01*
X92760645Y-135512532D01*
X92789146Y-135468185D01*
X93058017Y-135199314D01*
X93058022Y-135199309D01*
X93091150Y-135149729D01*
X93106711Y-135071498D01*
X93102376Y-135049704D01*
X93106750Y-135000813D01*
X93197609Y-134908656D01*
X93217355Y-134901691D01*
X93248185Y-134903896D01*
X93269978Y-134908231D01*
X93269979Y-134908231D01*
X93269981Y-134908231D01*
X93322133Y-134897857D01*
X93348210Y-134892670D01*
X93397790Y-134859542D01*
X93666666Y-134590664D01*
X93727987Y-134557181D01*
X93797679Y-134562165D01*
X93842027Y-134590666D01*
X98463809Y-139212448D01*
X98497294Y-139273771D01*
X98500128Y-139300129D01*
X98500128Y-143295036D01*
X98480443Y-143362075D01*
X98438147Y-143402412D01*
X98338347Y-143460054D01*
X98338345Y-143460055D01*
X98250379Y-143548043D01*
X98250378Y-143548045D01*
X98188178Y-143655800D01*
X98155979Y-143775982D01*
X98155979Y-143775984D01*
X98155980Y-143838195D01*
X98155979Y-143885789D01*
X98155980Y-143885792D01*
X98155980Y-144141098D01*
X98156061Y-144142354D01*
X98156057Y-144156168D01*
X98156058Y-144156176D01*
X98188224Y-144276357D01*
X98188225Y-144276359D01*
X98188226Y-144276362D01*
X98250406Y-144384130D01*
X98298935Y-144432686D01*
X98316610Y-144450372D01*
X98350077Y-144511705D01*
X98345072Y-144581395D01*
X98303184Y-144637317D01*
X98295155Y-144642611D01*
X98293312Y-144644025D01*
X98200131Y-144737206D01*
X98200129Y-144737209D01*
X98134237Y-144851335D01*
X98100129Y-144978631D01*
X98100129Y-145110414D01*
X98134237Y-145237710D01*
X98145415Y-145257070D01*
X98200129Y-145351837D01*
X98200131Y-145351839D01*
X98277755Y-145429463D01*
X98311240Y-145490786D01*
X98306256Y-145560478D01*
X98264384Y-145616411D01*
X98252076Y-145624530D01*
X98218318Y-145644020D01*
X98218312Y-145644025D01*
X98125131Y-145737206D01*
X98125129Y-145737209D01*
X98059237Y-145851335D01*
X98025129Y-145978631D01*
X98025129Y-146110414D01*
X98059237Y-146237710D01*
X98092183Y-146294773D01*
X98125129Y-146351837D01*
X98218315Y-146445023D01*
X98332443Y-146510915D01*
X98459737Y-146545023D01*
X98459739Y-146545023D01*
X98591519Y-146545023D01*
X98591521Y-146545023D01*
X98718815Y-146510915D01*
X98832943Y-146445023D01*
X98926129Y-146351837D01*
X98992021Y-146237709D01*
X99026129Y-146110415D01*
X99026129Y-146020355D01*
X99045814Y-145953316D01*
X99062448Y-145932674D01*
X99143787Y-145851335D01*
X99491090Y-145504033D01*
X99525159Y-145445023D01*
X99530651Y-145435511D01*
X99551130Y-145359084D01*
X99551130Y-144804962D01*
X99551130Y-138898338D01*
X99536644Y-138844275D01*
X99530652Y-138821912D01*
X99491090Y-138753389D01*
X94585197Y-133847496D01*
X94551712Y-133786173D01*
X94556696Y-133716481D01*
X94585197Y-133672134D01*
X94854068Y-133403263D01*
X94854073Y-133403258D01*
X94887201Y-133353678D01*
X94902762Y-133275447D01*
X94902762Y-133275444D01*
X94887201Y-133197216D01*
X94887201Y-133197215D01*
X94886290Y-133195852D01*
X95725629Y-132344523D01*
X102866353Y-138898338D01*
G37*
%TD.AperFunction*%
%TD*%
%TA.AperFunction,Conductor*%
%TO.N,GND*%
G36*
X102025629Y-172344523D02*
G01*
X103649296Y-172344523D01*
X103678736Y-172353167D01*
X103708723Y-172359691D01*
X103713738Y-172363445D01*
X103716335Y-172364208D01*
X103736977Y-172380842D01*
X103888022Y-172531887D01*
X103921507Y-172593210D01*
X103924341Y-172619568D01*
X103924341Y-172640732D01*
X103904656Y-172707771D01*
X103903444Y-172709622D01*
X103885973Y-172735768D01*
X103885972Y-172735771D01*
X103874341Y-172794245D01*
X103874341Y-174120523D01*
X103854656Y-174187562D01*
X103801852Y-174233317D01*
X103750341Y-174244523D01*
X102525629Y-174244523D01*
X102061061Y-175080743D01*
X102011297Y-175129786D01*
X101994262Y-175134067D01*
X101425629Y-174944523D01*
X101425629Y-172244523D01*
X102025629Y-172344523D01*
G37*
%TD.AperFunction*%
%TD*%
%TA.AperFunction,Conductor*%
%TO.N,GND*%
G36*
X114968668Y-154164208D02*
G01*
X115014423Y-154217012D01*
X115025629Y-154268523D01*
X115025629Y-165398652D01*
X115005944Y-165465691D01*
X114995777Y-165479350D01*
X112062745Y-168901221D01*
X112004170Y-168939311D01*
X111968597Y-168944523D01*
X110149629Y-168944523D01*
X110082590Y-168924838D01*
X110036835Y-168872034D01*
X110025629Y-168820523D01*
X110025629Y-158091567D01*
X110045314Y-158024528D01*
X110061948Y-158003886D01*
X111899186Y-156166648D01*
X113806099Y-154259735D01*
X113836821Y-154206523D01*
X113887387Y-154158308D01*
X113944208Y-154144523D01*
X114901629Y-154144523D01*
X114968668Y-154164208D01*
G37*
%TD.AperFunction*%
%TD*%
%TA.AperFunction,Conductor*%
%TO.N,GND*%
G36*
X122533492Y-137064208D02*
G01*
X122554134Y-137080842D01*
X122775129Y-137301837D01*
X122868315Y-137395023D01*
X122892931Y-137409235D01*
X122982443Y-137460915D01*
X123109736Y-137495023D01*
X123109737Y-137495023D01*
X123109738Y-137495023D01*
X124933890Y-137495023D01*
X124967955Y-137490059D01*
X125002022Y-137485096D01*
X125002023Y-137485095D01*
X125011224Y-137482253D01*
X125012094Y-137485069D01*
X125065562Y-137475932D01*
X125129863Y-137503265D01*
X125169179Y-137561024D01*
X125174106Y-137582903D01*
X125175128Y-137590663D01*
X125192835Y-137656749D01*
X125199014Y-137679808D01*
X125199016Y-137679813D01*
X125245156Y-137759731D01*
X125245158Y-137759734D01*
X125245159Y-137759735D01*
X125810417Y-138324993D01*
X125890341Y-138371137D01*
X125979485Y-138395023D01*
X125979487Y-138395023D01*
X128030082Y-138395023D01*
X128030084Y-138395023D01*
X128119228Y-138371137D01*
X128140834Y-138358662D01*
X128208729Y-138342190D01*
X128274757Y-138365041D01*
X128286508Y-138374539D01*
X128691093Y-138744523D01*
X129101629Y-138744523D01*
X129168668Y-138764208D01*
X129214423Y-138817012D01*
X129225629Y-138868523D01*
X129225629Y-140044523D01*
X129974267Y-140044523D01*
X130041306Y-140064208D01*
X130061948Y-140080842D01*
X132989310Y-143008204D01*
X133022795Y-143069527D01*
X133025629Y-143095885D01*
X133025629Y-143920523D01*
X133005944Y-143987562D01*
X132953140Y-144033317D01*
X132901629Y-144044523D01*
X129310654Y-144044523D01*
X129425629Y-143944523D01*
X129625629Y-143244523D01*
X127325629Y-142844523D01*
X127026129Y-142844523D01*
X127026129Y-141978633D01*
X127026129Y-141978631D01*
X126992021Y-141851337D01*
X126926129Y-141737209D01*
X126832943Y-141644023D01*
X126332943Y-141144023D01*
X126275879Y-141111077D01*
X126218816Y-141078131D01*
X126155168Y-141061077D01*
X126091521Y-141044023D01*
X122591521Y-141044023D01*
X122459737Y-141044023D01*
X122332441Y-141078131D01*
X122218315Y-141144023D01*
X122218312Y-141144025D01*
X121237810Y-142124528D01*
X121176487Y-142158013D01*
X121106795Y-142153029D01*
X121050862Y-142111157D01*
X121026445Y-142045693D01*
X121026129Y-142036847D01*
X121026129Y-138287268D01*
X121025629Y-138277090D01*
X121025629Y-138095885D01*
X121045314Y-138028846D01*
X121061948Y-138008204D01*
X121989310Y-137080842D01*
X122050633Y-137047357D01*
X122076991Y-137044523D01*
X122466453Y-137044523D01*
X122533492Y-137064208D01*
G37*
%TD.AperFunction*%
%TD*%
%TA.AperFunction,Conductor*%
%TO.N,GND*%
G36*
X129625629Y-143244523D02*
G01*
X129425629Y-143944523D01*
X129310654Y-144044523D01*
X129310653Y-144044523D01*
X129310652Y-144044524D01*
X128735783Y-144544520D01*
X128735782Y-144544524D01*
X128735356Y-144578046D01*
X128728469Y-144617249D01*
X128724612Y-144628324D01*
X128699501Y-144671818D01*
X128666240Y-144795947D01*
X128664749Y-144800232D01*
X128646965Y-144825105D01*
X128631056Y-144851207D01*
X128626839Y-144853255D01*
X128624113Y-144857069D01*
X128595707Y-144868378D01*
X128568210Y-144881736D01*
X128560551Y-144882375D01*
X128559199Y-144882914D01*
X128557669Y-144882616D01*
X128547646Y-144883453D01*
X127323734Y-144883453D01*
X127256695Y-144863768D01*
X127236053Y-144847134D01*
X127062448Y-144673528D01*
X127028963Y-144612205D01*
X127026129Y-144585847D01*
X127026129Y-142844523D01*
X127325629Y-142844523D01*
X129625629Y-143244523D01*
G37*
%TD.AperFunction*%
%TD*%
%TA.AperFunction,Conductor*%
%TO.N,GND*%
G36*
X128614685Y-150704138D02*
G01*
X128660440Y-150756942D01*
X128667418Y-150776352D01*
X128675710Y-150807297D01*
X128699501Y-150896089D01*
X128737384Y-150961703D01*
X128775267Y-151027318D01*
X128775269Y-151027320D01*
X128888164Y-151140215D01*
X128885918Y-151142460D01*
X128918310Y-151186804D01*
X128925629Y-151228775D01*
X128925629Y-151644523D01*
X129325948Y-151724586D01*
X129387824Y-151757036D01*
X129422335Y-151817787D01*
X129425629Y-151846178D01*
X129425629Y-152420523D01*
X129405944Y-152487562D01*
X129353140Y-152533317D01*
X129301629Y-152544523D01*
X127376991Y-152544523D01*
X127347550Y-152535878D01*
X127317564Y-152529355D01*
X127312548Y-152525600D01*
X127309952Y-152524838D01*
X127289310Y-152508204D01*
X127161948Y-152380842D01*
X127128463Y-152319519D01*
X127125629Y-152293161D01*
X127125629Y-150903987D01*
X127145314Y-150836948D01*
X127171996Y-150807297D01*
X127290994Y-150711759D01*
X127355593Y-150685140D01*
X127368623Y-150684453D01*
X127476034Y-150684453D01*
X128049890Y-150684453D01*
X128181674Y-150684453D01*
X128547646Y-150684453D01*
X128614685Y-150704138D01*
G37*
%TD.AperFunction*%
%TD*%
M02*
